<svg width="22" height="21" viewBox="0 0 22 21" fill="none" xmlns="http://www.w3.org/2000/svg">
<path d="M20.4902 6.00097H16.0406C16.2689 5.85856 16.4853 5.69805 16.6876 5.52101C16.9928 5.25094 17.2385 4.92128 17.4096 4.5526C17.5807 4.18393 17.6734 3.78416 17.682 3.37829C17.6952 2.9318 17.6165 2.48733 17.4508 2.0721C17.2851 1.65688 17.0358 1.27963 16.7181 0.963482C16.4005 0.647331 16.0212 0.39893 15.6036 0.233493C15.1859 0.0680555 14.7387 -0.0109335 14.2892 0.00136399C13.8807 0.00986574 13.4783 0.101973 13.1072 0.271933C12.736 0.441892 12.4042 0.686051 12.1324 0.989157C11.6328 1.57481 11.2487 2.24864 11 2.97546C10.7519 2.24918 10.3685 1.57574 9.8698 0.990228C9.59781 0.686665 9.26566 0.442153 8.89416 0.271997C8.52265 0.101842 8.11979 0.00970827 7.71078 0.00136399C7.26106 -0.0115211 6.81343 0.0669971 6.39535 0.232103C5.97726 0.397209 5.59753 0.645422 5.27945 0.961519C4.96136 1.27762 4.71163 1.65493 4.54557 2.07033C4.37951 2.48573 4.30061 2.93045 4.31373 3.37722C4.32228 3.78309 4.415 4.18285 4.58608 4.55153C4.75716 4.9202 5.00293 5.24987 5.30804 5.51993C5.51016 5.69722 5.72657 5.85775 5.9551 5.9999H1.5098C1.31144 5.9999 1.11503 6.03873 0.931778 6.11418C0.74853 6.18962 0.582043 6.3002 0.44183 6.43959C0.301618 6.57899 0.190429 6.74446 0.114618 6.92656C0.0388063 7.10866 -0.000141301 7.30382 3.8519e-07 7.50088V10.9292C3.8519e-07 11.327 0.159069 11.7085 0.442212 11.9898C0.725355 12.2711 1.10938 12.4291 1.5098 12.4291H1.72549V19.5001C1.72549 19.8979 1.88456 20.2794 2.1677 20.5607C2.45085 20.842 2.83487 21 3.23529 21H18.7647C19.1651 21 19.5492 20.842 19.8323 20.5607C20.1154 20.2794 20.2745 19.8979 20.2745 19.5001V12.4291H20.4902C20.8906 12.4291 21.2746 12.2711 21.5578 11.9898C21.8409 11.7085 22 11.327 22 10.9292V7.50088C22 7.10308 21.8409 6.72157 21.5578 6.44029C21.2746 6.159 20.8906 6.00097 20.4902 6.00097ZM11.8379 4.82248C12.0806 3.52399 12.5163 2.49227 13.0986 1.83874C13.2545 1.66788 13.444 1.53072 13.6556 1.4358C13.8671 1.34088 14.096 1.29022 14.328 1.28699H14.3874C14.6557 1.28703 14.9212 1.34053 15.1683 1.44433C15.4154 1.54814 15.6391 1.70014 15.826 1.89134C16.0129 2.08254 16.1594 2.30905 16.2566 2.55746C16.3539 2.80588 16.3999 3.07115 16.3922 3.33758C16.3885 3.56836 16.337 3.79592 16.2409 4.00605C16.1448 4.21619 16.0061 4.40439 15.8335 4.55893C14.6775 5.57243 12.7169 5.87563 11.6837 5.96348C11.7107 5.65385 11.7549 5.25959 11.8379 4.82248ZM6.19559 1.87089C6.572 1.4983 7.08129 1.28845 7.61265 1.28699H7.67196C7.90427 1.29063 8.13333 1.34179 8.34485 1.43727C8.55637 1.53275 8.74582 1.67051 8.90137 1.84196C9.92157 2.99046 10.2268 4.93819 10.3152 5.96455C10.0035 5.93776 9.60667 5.8917 9.17098 5.81134C7.86392 5.57243 6.82539 5.13746 6.16755 4.55785C5.9947 4.4037 5.85577 4.21575 5.75946 4.00576C5.66315 3.79578 5.61153 3.5683 5.60784 3.33758C5.6004 3.06626 5.64868 2.79629 5.74973 2.54412C5.85078 2.29196 6.00248 2.06288 6.19559 1.87089ZM1.29412 10.9292V7.50088C1.29412 7.44405 1.31684 7.38955 1.35729 7.34936C1.39774 7.30918 1.4526 7.28661 1.5098 7.28661H10.3529V11.1435H1.5098C1.4526 11.1435 1.39774 11.1209 1.35729 11.0807C1.31684 11.0406 1.29412 10.9861 1.29412 10.9292ZM3.01961 19.5001V12.4291H10.3529V19.7144H3.23529C3.17809 19.7144 3.12323 19.6918 3.08278 19.6516C3.04233 19.6114 3.01961 19.5569 3.01961 19.5001ZM18.9804 19.5001C18.9804 19.5569 18.9577 19.6114 18.9172 19.6516C18.8768 19.6918 18.8219 19.7144 18.7647 19.7144H11.6471V12.4291H18.9804V19.5001ZM20.7059 10.9292C20.7059 10.9861 20.6832 11.0406 20.6427 11.0807C20.6023 11.1209 20.5474 11.1435 20.4902 11.1435H11.6471V7.28661H20.4902C20.5474 7.28661 20.6023 7.30918 20.6427 7.34936C20.6832 7.38955 20.7059 7.44405 20.7059 7.50088V10.9292Z" fill="white"/>
</svg>
