<svg width="187" height="61" viewBox="0 0 187 61" fill="none" xmlns="http://www.w3.org/2000/svg">
<g clip-path="url(#clip0_215_21392)">
<path d="M9.44763 52.8602L1.09829 52.5067C0.274857 52.4715 -0.243075 51.6003 0.116083 50.8548L17.9809 13.7057C18.1518 13.3499 18.4923 13.1077 18.8821 13.0625L29.4039 11.8533L9.44763 52.8602Z" fill="#FED330"/>
<path d="M18.3541 57.0656L18.3467 57.081L18.3404 57.0969C18.1358 57.6066 18.51 58.1652 19.0617 58.1652H27.8731C28.1974 58.1652 28.4806 57.9653 28.5963 57.6723L51.5731 7.59898H51.6084L51.7255 7.26395C51.9007 6.76256 51.5334 6.22674 50.9918 6.22674H43.3958C43.0835 6.22674 42.8035 6.4151 42.6821 6.69808L18.3541 57.0656ZM34.6176 1.31055H86.7988L61.7233 60.5H5.51481L34.6176 1.31055Z" fill="#0052BF" stroke="white"/>
<path d="M44.0571 9.82471L23.734 54.0354L77.6078 56.2402C78.0502 56.26 78.4016 55.8712 78.3414 55.4307L71.6532 6.79173C71.5995 6.40297 71.2437 6.13095 70.856 6.18271L44.056 9.82471H44.0571Z" fill="#FED330"/>
<path d="M114.287 13.2157C112.94 13.2157 111.771 13.7883 110.78 14.9348C109.788 16.0812 109.1 17.6286 108.716 19.5779L106.074 33.1283H99.8822L102.612 18.9523C102.864 17.5977 102.99 16.5856 102.99 15.916C102.99 14.1154 102.058 13.2146 100.193 13.2146C98.8913 13.2146 97.7327 13.7762 96.7199 14.8995C95.7059 16.0229 94.9996 17.6043 94.6 19.6429L91.9807 33.1261H85.7217L89.4064 14.1286C89.7021 12.7146 89.9911 10.9965 90.2715 8.97234H96.3082C96.3082 9.13643 96.2304 9.71242 96.0749 10.7025C95.9194 11.6926 95.7902 12.4921 95.6862 13.1022H95.753C96.8918 11.3765 98.0131 10.186 99.1157 9.5307C100.217 8.87653 101.524 8.54834 103.034 8.54834C104.869 8.54834 106.319 8.99106 107.384 9.87651C108.449 10.762 109.086 12.0461 109.293 13.7278C110.476 11.8677 111.679 10.5395 112.9 9.74325C114.12 8.94701 115.537 8.54944 117.15 8.54944C119.192 8.54944 120.757 9.09238 121.845 10.1794C122.932 11.2664 123.476 12.8357 123.476 14.8896C123.476 15.8423 123.321 17.0625 123.01 18.5504L120.168 33.1272H113.976L116.684 19.1307C116.95 17.7916 117.084 16.7574 117.084 16.0273V15.916C117.039 14.1154 116.107 13.2146 114.287 13.2146V13.2157Z" fill="#FED330"/>
<path d="M145.161 33.3518C143.682 33.3518 142.542 33.039 141.743 32.4146C140.943 31.789 140.544 30.9642 140.544 29.9366C140.544 29.386 140.581 28.9102 140.654 28.5083H140.521C139.278 30.4432 138.049 31.7714 136.836 32.4928C135.623 33.2141 134.142 33.5753 132.397 33.5753C130.325 33.5753 128.672 32.9542 127.437 31.7108C126.2 30.4686 125.583 28.8728 125.583 26.9224C125.583 24.1691 126.527 22.0899 128.413 20.6835C130.3 19.2771 133.36 18.5371 137.592 18.4622L141.832 18.395C142.143 16.9809 142.298 16.0063 142.298 15.471C142.298 13.5658 141.358 12.6132 139.479 12.6132C138.089 12.6132 137.053 12.8852 136.372 13.4281C135.691 13.9711 135.225 14.7563 134.974 15.7827L129.136 15.0911C129.639 12.948 130.775 11.318 132.544 10.2024C134.312 9.0857 136.661 8.52844 139.591 8.52844C142.521 8.52844 144.9 9.07138 146.328 10.1584C147.755 11.2454 148.469 12.8973 148.469 15.1142C148.469 15.6649 148.292 16.8334 147.936 18.6186L146.36 26.4984C146.242 27.168 146.183 27.7043 146.183 28.1052C146.183 28.462 146.256 28.7384 146.405 28.9312C146.553 29.125 146.723 29.2659 146.916 29.3552C147.107 29.4444 147.3 29.5005 147.493 29.5226C147.684 29.5446 147.833 29.5556 147.936 29.5556C148.38 29.5556 148.838 29.5038 149.313 29.3992L149.002 32.8595C148.38 33.0974 147.751 33.2394 147.115 33.2835C146.479 33.3287 145.827 33.3507 145.161 33.3507V33.3518ZM141.144 21.8993H137.548C135.817 21.9291 134.451 22.287 133.453 22.9709C132.454 23.6559 131.955 24.6229 131.955 25.8728C131.955 26.9147 132.247 27.7296 132.832 28.3177C133.416 28.9058 134.204 29.1999 135.196 29.1999C136.424 29.1999 137.541 28.7197 138.548 27.7605C139.554 26.8001 140.257 25.5314 140.657 23.9544L141.145 21.9004L141.144 21.8993Z" fill="#FED330"/>
<path d="M151.42 33.1283L156.082 8.97451H162.319L157.636 33.1283H151.42ZM156.903 4.62106L157.813 0H164.05L163.14 4.62106H156.903Z" fill="#FED330"/>
<path d="M185.468 25.6725C185.468 28.2617 184.518 30.2264 182.616 31.5656C180.714 32.9047 177.943 33.5743 174.304 33.5743C171.33 33.5743 168.984 33.0468 167.267 31.9896C165.55 30.9334 164.389 29.2958 163.783 27.0788L169.354 26.2749C169.665 27.3916 170.235 28.1945 171.063 28.6856C171.892 29.1768 173.12 29.4224 174.748 29.4224C176.376 29.4224 177.585 29.1625 178.422 28.6416C179.257 28.1207 179.676 27.3696 179.676 26.3872C179.676 25.6141 179.368 25.0216 178.755 24.613C178.14 24.2034 176.79 23.776 174.704 23.3289C171.76 22.6593 169.684 21.7331 168.478 20.5492C167.273 19.3664 166.669 17.8367 166.669 15.9612C166.669 13.5802 167.598 11.7575 169.455 10.4921C171.312 9.22785 173.964 8.5946 177.412 8.5946C180.461 8.5946 182.732 9.11882 184.226 10.1684C185.721 11.2179 186.645 12.8357 187.001 15.024L181.43 15.6716C181.178 14.6452 180.69 13.9007 179.965 13.4392C179.24 12.9778 178.248 12.7476 176.991 12.7476C173.958 12.7476 172.441 13.6408 172.441 15.4271C172.441 15.9183 172.589 16.3279 172.884 16.655C173.18 16.9821 173.602 17.2652 174.149 17.503C174.697 17.7409 176.014 18.1054 178.1 18.5966C180.792 19.2067 182.695 20.0779 183.804 21.2089C184.914 22.3399 185.468 23.8289 185.468 25.6736V25.6725Z" fill="#FED330"/>
<path d="M98.0088 37.4618C99.0808 38.3736 99.7135 39.6261 99.8957 41.2442L95.9309 41.5667C95.8458 40.6513 95.5932 39.921 95.1456 39.4059C94.6499 38.8355 93.9461 38.5643 93.0735 38.5643C91.8863 38.5643 90.9331 38.9782 90.2445 39.8188C89.5731 40.6384 88.9886 42.058 88.4735 44.0364L88.4717 44.0436L88.4702 44.0508C88.229 45.2659 88.1041 46.1721 88.1041 46.758C88.1041 48.0163 88.3407 49.006 88.8547 49.6856C89.3786 50.3784 90.1609 50.7106 91.1551 50.7106H91.2591L91.2614 50.7082C92.1442 50.6864 92.8917 50.3893 93.486 49.8078C94.0528 49.2531 94.4989 48.4624 94.8352 47.4547L98.6045 48.1537C98.0486 49.8269 97.157 51.0758 95.9382 51.9193C94.6536 52.8085 92.9819 53.2634 90.9043 53.2634C88.639 53.2634 86.9332 52.6811 85.751 51.5529C84.5683 50.4232 83.9635 48.8472 83.9635 46.7888C83.9635 44.7139 84.37 42.8718 85.1835 41.1015L85.1835 41.1013C85.9953 39.3323 87.0705 38.0514 88.3981 37.239C89.728 36.4252 91.3979 36.0104 93.4195 36.0104C95.4308 36.0104 96.8796 36.5025 98.0088 37.4618Z" fill="#0052BF" stroke="white" stroke-width="0.5"/>
<path d="M104.517 36.3242H108.394L106.597 45.4405C106.326 46.7325 106.182 47.6275 106.182 48.1015C106.182 48.8319 106.398 49.4217 106.868 49.8225C107.33 50.2169 107.997 50.3922 108.824 50.3922C109.958 50.3922 110.996 49.9322 111.931 49.0413C112.867 48.149 113.461 47.0363 113.711 45.7113C113.711 45.7111 113.711 45.7109 113.711 45.7107L115.528 36.3253H119.455L116.902 49.4917C116.902 49.492 116.902 49.4923 116.902 49.4925C116.74 50.2952 116.551 51.4469 116.333 52.9462H112.604C112.608 52.9087 112.613 52.8669 112.618 52.8204C112.643 52.6006 112.68 52.2933 112.73 51.8985L112.73 51.8981C112.83 51.1061 112.905 50.581 112.956 50.316L113.013 50.0189H112.71H112.663H112.533L112.459 50.1247C111.678 51.2305 110.831 52.0208 109.925 52.5091C109.017 52.9981 107.975 53.2468 106.795 53.2468C105.237 53.2468 104.109 52.8702 103.365 52.1606L103.365 52.1605C102.62 51.4512 102.231 50.412 102.231 49.0024C102.231 48.756 102.266 48.3441 102.34 47.7597L102.34 47.7593C102.413 47.176 102.485 46.7483 102.555 46.4667L102.555 46.4668L102.557 46.4541L104.517 36.3242Z" fill="#0052BF" stroke="white" stroke-width="0.5"/>
<path d="M128.193 38.9725L128.248 38.9448L128.284 38.8949C129.024 37.8612 129.808 37.1291 130.631 36.6828C131.451 36.2379 132.459 36.0093 133.666 36.0093C135.281 36.0093 136.51 36.4904 137.385 37.4257C138.264 38.3644 138.718 39.6659 138.718 41.3605C138.718 43.4656 138.397 45.5157 137.754 47.5106C137.113 49.5019 136.219 50.9471 135.089 51.8716C133.962 52.7931 132.519 53.2634 130.74 53.2634C129.463 53.2634 128.452 52.9961 127.685 52.483C126.915 51.9672 126.372 51.2438 126.052 50.2999L125.994 50.1302H125.815H125.783H125.56L125.535 50.3523C125.463 50.9956 125.297 51.9784 125.034 53.3063L125.034 53.3077L123.815 59.6718H119.919L123.684 40.063L123.684 40.063L123.685 40.0602L123.999 38.3202L123.999 38.3202L124.001 38.3094L124.27 36.3264H128.113C128.095 36.5319 128.062 36.8454 128.012 37.273C127.933 37.9415 127.854 38.4075 127.776 38.6817L127.684 39.0004H128.016H128.078H128.138L128.191 38.9736L128.193 38.9725ZM131.527 38.5929V38.5995C130.253 38.6556 129.209 39.1458 128.417 40.0737L128.417 40.0739C127.586 41.0487 126.999 42.4941 126.639 44.383L126.639 44.383L126.639 44.3851C126.459 45.3739 126.368 46.1974 126.368 46.8505C126.368 48.0194 126.656 48.9678 127.262 49.6653L127.262 49.6655C127.875 50.3686 128.724 50.7084 129.779 50.7084C130.906 50.7084 131.822 50.3508 132.496 49.6139C133.157 48.8928 133.657 47.7573 134.018 46.2433C134.378 44.7325 134.56 43.3886 134.56 42.214C134.56 41.0405 134.355 40.1702 133.908 39.5444L133.908 39.5442C133.444 38.8975 132.714 38.5929 131.777 38.5929H131.527Z" fill="#0052BF" stroke="white" stroke-width="0.5"/>
<path d="M158.398 42.3902V42.5785C158.374 44.6514 157.954 46.4895 157.144 48.0992C156.309 49.7565 155.131 51.028 153.607 51.9198C152.08 52.8129 150.355 53.2622 148.423 53.2622C146.183 53.2622 144.44 52.6558 143.166 51.4702C141.894 50.2871 141.247 48.6626 141.247 46.5663C141.247 44.4481 141.657 42.6421 142.47 41.0466C143.284 39.4525 144.438 38.2199 145.937 37.344L145.937 37.3439C147.436 36.4667 149.148 36.0258 151.081 36.0258C153.51 36.0258 155.319 36.5946 156.547 37.6943C157.773 38.7922 158.398 40.3447 158.398 42.3902ZM154.274 42.7335L154.274 42.7335V42.7217C154.274 41.3901 153.996 40.3448 153.398 39.6298C152.792 38.9063 151.894 38.5631 150.752 38.5631C149.512 38.5631 148.495 38.892 147.73 39.5761C146.976 40.2498 146.404 41.2586 145.998 42.5764C145.593 43.8889 145.389 45.1561 145.389 46.3769C145.389 47.7697 145.666 48.8604 146.262 49.6065C146.866 50.3633 147.765 50.7248 148.912 50.7248C150.129 50.7248 151.124 50.415 151.868 49.7694C152.6 49.1341 153.161 48.1833 153.562 46.9441C153.964 45.7064 154.2 44.3017 154.274 42.7335Z" fill="#0052BF" stroke="white" stroke-width="0.5"/>
<path d="M170.579 52.9451L172.457 43.194L172.457 43.1925C172.636 42.2292 172.728 41.4936 172.728 40.9948C172.728 40.3158 172.552 39.7613 172.156 39.3793C171.762 38.9989 171.193 38.8308 170.496 38.8308C169.491 38.8308 168.605 39.2688 167.848 40.1082C167.09 40.9484 166.574 42.1164 166.286 43.59L166.286 43.5903L164.469 52.9451H160.541L163.095 39.7805C163.095 39.7799 163.095 39.7794 163.095 39.7788C163.295 38.8205 163.49 37.6691 163.681 36.3242H167.468C167.464 36.3576 167.459 36.3944 167.453 36.4348C167.426 36.6364 167.385 36.9116 167.33 37.261L167.33 37.261C167.22 37.962 167.128 38.5284 167.056 38.9603L167.007 39.2515H167.302H167.349H167.484L167.558 39.1393C168.356 37.9301 169.125 37.1217 169.861 36.6845C170.596 36.2476 171.477 36.0236 172.51 36.0236C173.771 36.0236 174.736 36.3276 175.434 36.9075C176.13 37.4858 176.557 38.3314 176.699 39.475L176.784 40.1653L177.158 39.5784C177.986 38.2764 178.816 37.367 179.64 36.8288C180.461 36.2941 181.416 36.0225 182.516 36.0225C183.92 36.0225 184.957 36.3954 185.667 37.1046C186.377 37.8134 186.75 38.8542 186.75 40.2669C186.75 40.9177 186.643 41.7645 186.425 42.8104L186.424 42.8137L184.45 52.944H180.569L182.431 43.321C182.431 43.3207 182.431 43.3205 182.431 43.3202C182.62 42.3668 182.719 41.6144 182.719 41.073V40.9937H182.719L182.719 40.9875C182.702 40.3097 182.517 39.7582 182.123 39.3782C181.73 38.9987 181.17 38.8297 180.487 38.8297H180.237V38.8407C179.306 38.907 178.496 39.3473 177.812 40.1362L177.812 40.1364C177.073 40.9907 176.572 42.1315 176.293 43.5422L176.293 43.5428L174.46 52.9451H170.579Z" fill="#0052BF" stroke="white" stroke-width="0.5"/>
</g>
<defs>
<clipPath id="clip0_215_21392">
<rect width="187" height="61" fill="white"/>
</clipPath>
</defs>
</svg>
