<svg xmlns="http://www.w3.org/2000/svg" width="431" height="140" fill="none"><g clip-path="url(#a)"><path fill="#FED330" d="m21.775 121.319-19.244-.812c-1.897-.081-3.091-2.08-2.263-3.791l41.175-85.26a2.642 2.642 0 0 1 2.077-1.476l24.25-2.776-45.995 94.115Z"/><path fill="#0052BF" d="M79.07 1.86 10.86 140h132.164L201.795 1.86H79.069Zm39.057 14.433L64.846 131.919a.64.64 0 0 1-.604.428H43.934a.64.64 0 0 1-.593-.878L99.425 15.843a.641.641 0 0 1 .593-.405h17.507c.442 0 .75.438.604.855h-.003Z"/><path fill="#FED330" d="m101.543 22.549-46.84 101.467 124.168 5.06a1.636 1.636 0 0 0 1.691-1.858l-15.415-111.63a1.636 1.636 0 0 0-1.837-1.398l-61.769 8.359h.002ZM263.41 30.331c-3.105 0-5.8 1.314-8.084 3.946-2.286 2.63-3.871 6.182-4.757 10.656l-6.087 31.1H230.21l6.291-32.536c.581-3.109.871-5.432.871-6.968 0-4.133-2.148-6.2-6.446-6.2-3 0-5.67 1.289-8.005 3.867-2.337 2.578-3.965 6.207-4.886 10.886l-6.037 30.945h-14.426l8.493-43.6c.681-3.246 1.348-7.19 1.994-11.835h13.913c0 .377-.179 1.699-.537 3.971a474.288 474.288 0 0 1-.896 5.508h.154c2.624-3.961 5.209-6.693 7.75-8.197 2.539-1.502 5.55-2.255 9.03-2.255 4.23 0 7.571 1.016 10.027 3.048 2.456 2.033 3.922 4.98 4.399 8.84 2.728-4.27 5.499-7.318 8.313-9.145 2.814-1.828 6.08-2.74 9.797-2.74 4.707 0 8.314 1.246 10.82 3.74 2.506 2.495 3.76 6.097 3.76 10.81 0 2.187-.358 4.988-1.075 8.403l-6.549 33.455h-14.272l6.241-32.123c.613-3.074.921-5.447.921-7.123v-.255c-.103-4.133-2.251-6.2-6.445-6.2v.002ZM334.57 76.545c-3.41 0-6.037-.718-7.88-2.15-1.842-1.437-2.763-3.33-2.763-5.688 0-1.264.086-2.356.255-3.278h-.308c-2.865 4.44-5.696 7.489-8.493 9.145-2.796 1.655-6.208 2.484-10.231 2.484-4.775 0-8.586-1.425-11.432-4.279-2.85-2.851-4.273-6.514-4.273-10.99 0-6.319 2.175-11.09 6.524-14.319 4.348-3.227 11.4-4.926 21.154-5.098l9.772-.154c.717-3.245 1.075-5.482 1.075-6.71 0-4.373-2.165-6.56-6.496-6.56-3.205 0-5.593.625-7.163 1.87-1.569 1.247-2.642 3.049-3.222 5.405l-13.455-1.588c1.159-4.918 3.778-8.66 7.854-11.22 4.076-2.563 9.49-3.841 16.243-3.841 6.754 0 12.235 1.246 15.526 3.74 3.291 2.495 4.937 6.286 4.937 11.374 0 1.264-.409 3.946-1.229 8.043l-3.632 18.085c-.272 1.537-.409 2.768-.409 3.688 0 .819.169 1.453.513 1.895.34.445.731.769 1.176.974.441.204.886.333 1.33.384.441.05.785.075 1.022.075 1.022 0 2.079-.118 3.172-.358l-.717 7.941a15.077 15.077 0 0 1-4.348.973 63.903 63.903 0 0 1-4.502.155v.002Zm-9.26-26.284h-8.288c-3.99.068-7.137.89-9.439 2.46-2.302 1.571-3.452 3.79-3.452 6.66 0 2.39.673 4.26 2.021 5.61 1.348 1.35 3.162 2.025 5.449 2.025 2.832 0 5.406-1.102 7.725-3.303 2.319-2.205 3.94-5.116 4.861-8.736l1.125-4.714-.002-.002ZM348.995 76.032l10.744-55.435h14.375L363.32 76.032h-14.325Zm12.637-65.426L363.729 0h14.375l-2.097 10.606h-14.375ZM427.469 58.92c0 5.943-2.19 10.452-6.574 13.525-4.384 3.074-10.769 4.61-19.158 4.61-6.854 0-12.26-1.21-16.218-3.637-3.957-2.424-6.632-6.182-8.03-11.27l12.841-1.845c.716 2.563 2.029 4.405 3.939 5.533 1.911 1.127 4.74 1.69 8.493 1.69s6.539-.596 8.467-1.791c1.926-1.196 2.89-2.92 2.89-5.174 0-1.775-.71-3.135-2.123-4.072-1.416-.94-4.527-1.921-9.335-2.947-6.787-1.537-11.572-3.663-14.35-6.38-2.779-2.715-4.17-6.225-4.17-10.53 0-5.465 2.141-9.648 6.421-12.552 4.28-2.901 10.393-4.355 18.34-4.355 7.026 0 12.26 1.203 15.705 3.612 3.445 2.409 5.575 6.122 6.396 11.144l-12.841 1.486c-.581-2.355-1.706-4.064-3.377-5.123-1.671-1.06-3.957-1.587-6.855-1.587-6.99 0-10.486 2.05-10.486 6.15 0 1.127.341 2.067 1.022 2.817.682.751 1.653 1.4 2.915 1.947 1.262.546 4.298 1.382 9.106 2.51 6.206 1.4 10.59 3.4 13.146 5.995 2.559 2.596 3.836 6.013 3.836 10.247v-.003Z"/><path fill="#0052BF" d="M210.098 115.809c2.006 0 3.662-.635 4.967-1.906 1.304-1.272 2.344-3.155 3.119-5.647l9.827 1.815c-2.586 8.498-8.752 12.747-18.494 12.747-5.317 0-9.411-1.363-12.275-4.085-2.865-2.725-4.298-6.506-4.298-11.349s.954-9.152 2.864-13.292c1.908-4.14 4.455-7.179 7.632-9.115 3.178-1.936 7.137-2.904 11.874-2.904 4.738 0 8.22 1.158 10.951 3.468 2.731 2.313 4.265 5.525 4.606 9.642l-10.3.835c-.267-4.623-2.284-6.936-6.054-6.936-2.587 0-4.611.89-6.075 2.67-1.464 1.779-2.786 4.933-3.97 9.46-.555 2.785-.832 4.817-.832 6.101 0 5.665 2.15 8.498 6.455 8.498l.003-.002ZM250.528 82.796l-4.277 21.608c-.629 2.978-.944 4.975-.944 5.993 0 3.124 1.837 4.684 5.512 4.684 2.44 0 4.696-.981 6.763-2.942 2.067-1.962 3.38-4.406 3.935-7.335l4.278-22.008h10.226l-6.019 30.905c-.386 1.913-.846 4.709-1.378 8.389h-9.719c0-.218.113-1.236.346-3.051.229-1.815.403-3.038.525-3.668h-.109c-1.837 2.591-3.851 4.474-6.037 5.647-2.188 1.173-4.684 1.762-7.488 1.762-3.674 0-6.443-.885-8.303-2.652-1.863-1.766-2.791-4.322-2.791-7.663 0-.604.083-1.58.255-2.925.169-1.344.338-2.353.507-3.033l4.606-23.714h10.118l-.006.003ZM295.202 88.933c1.741-2.422 3.609-4.17 5.602-5.247 1.994-1.077 4.417-1.615 7.271-1.615 3.844 0 6.842 1.145 8.992 3.432 2.151 2.287 3.228 5.43 3.228 9.423 0 4.89-.749 9.655-2.248 14.291-1.5 4.635-3.609 8.063-6.327 10.277-2.721 2.214-6.184 3.324-10.388 3.324-3.021 0-5.474-.63-7.362-1.888-1.888-1.259-3.215-3.026-3.99-5.303h-.073c-.169 1.501-.556 3.776-1.161 6.827l-2.9 15.072h-10.153l8.81-45.686.725-3.994.689-5.047h9.971c0 .338-.091 1.276-.273 2.813-.181 1.537-.368 2.646-.562 3.324h.144l.005-.003Zm8.52.217c-3.046 0-5.482 1.067-7.307 3.195-1.824 2.13-3.149 5.338-3.969 9.625-.412 2.252-.616 4.105-.616 5.556 0 2.591.641 4.618 1.92 6.084 1.282 1.466 3.069 2.196 5.366 2.196 2.466 0 4.411-.773 5.837-2.325 1.426-1.55 2.549-4.044 3.372-7.482.823-3.437 1.234-6.475 1.234-9.114 0-2.64-.464-4.497-1.395-5.794-.932-1.294-2.413-1.943-4.442-1.943v.002ZM365.657 97.287c0 5.012-.986 9.465-2.955 13.363-1.971 3.897-4.762 6.9-8.376 9.006-3.614 2.105-7.693 3.159-12.238 3.159-5.27 0-9.441-1.423-12.51-4.267-3.069-2.843-4.606-6.736-4.606-11.674 0-4.939.961-9.175 2.882-12.929 1.923-3.753 4.659-6.665 8.212-8.733 3.554-2.07 7.602-3.104 12.147-3.104 5.681 0 10.009 1.325 12.982 3.976 2.973 2.652 4.46 6.385 4.46 11.205l.002-.002Zm-10.66.763c0-5.98-2.514-8.97-7.541-8.97-2.756 0-4.949.725-6.582 2.178-1.633 1.454-2.907 3.663-3.826 6.627-.919 2.965-1.378 5.816-1.378 8.554 0 6.271 2.514 9.405 7.544 9.405 2.708 0 4.853-.685 6.435-2.052 1.583-1.368 2.829-3.446 3.735-6.228.906-2.783 1.444-5.955 1.613-9.514ZM415.989 89.696c-2.201 0-4.109.933-5.729 2.796-1.621 1.865-2.744 4.382-3.372 7.552l-4.316 22.043h-10.117l4.459-23.062c.411-2.204.616-3.849.616-4.938 0-2.93-1.524-4.393-4.568-4.393-2.128 0-4.02.915-5.676 2.742-1.656 1.827-2.812 4.4-3.463 7.717l-4.277 21.934h-10.227l6.019-30.905c.483-2.3.954-5.095 1.414-8.389h9.863c0 .268-.127 1.206-.381 2.814-.255 1.61-.467 2.911-.634 3.905h.109c1.862-2.808 3.692-4.745 5.494-5.811 1.799-1.064 3.934-1.598 6.4-1.598 2.998 0 5.366.72 7.107 2.161 1.741 1.441 2.779 3.529 3.119 6.264 1.934-3.026 3.9-5.187 5.893-6.484 1.994-1.294 4.308-1.943 6.943-1.943 3.337 0 5.893.885 7.67 2.651 1.777 1.767 2.665 4.322 2.665 7.664 0 1.55-.255 3.536-.762 5.955l-4.641 23.714h-10.118l4.424-22.771c.434-2.18.654-3.862.654-5.048v-.182c-.074-2.93-1.595-4.393-4.568-4.393v.005Z"/></g><defs><clipPath id="a"><path fill="#fff" d="M0 0h431v140H0z"/></clipPath></defs></svg>