<svg width="20" height="17" viewBox="0 0 20 17" fill="none" xmlns="http://www.w3.org/2000/svg">
<path d="M7.34211 5.75272C7.15907 5.58996 6.92267 5.50003 6.67773 5.5C6.41252 5.5 6.15816 5.60536 5.97063 5.79289C5.78309 5.98043 5.67773 6.23478 5.67773 6.5V10.5L5.68473 10.617C5.71484 10.8701 5.84045 11.1021 6.0359 11.2657C6.23136 11.4293 6.4819 11.5121 6.73634 11.4972C6.99078 11.4822 7.22992 11.3707 7.40489 11.1854C7.57986 11 7.67745 10.7549 7.67773 10.5V6.5L7.67073 6.383C7.64208 6.13975 7.52514 5.91547 7.34211 5.75272Z" fill="white"/>
<path d="M16.9999 1.25015H17C17.5739 1.25012 18.1261 1.4694 18.5437 1.86312C18.9587 2.25443 19.2095 2.78867 19.2456 3.35767L19.2499 3.51077V5.31355C19.2483 5.45203 19.2108 5.58773 19.141 5.70737C19.0721 5.82542 18.9742 5.92381 18.8565 5.99322L18.7718 6.03914C18.3333 6.25761 17.9611 6.58931 17.6936 7.00002C17.4232 7.4153 17.2701 7.89593 17.2504 8.3911C17.2306 8.88626 17.3451 9.37755 17.5816 9.81302C17.8181 10.2485 18.1679 10.612 18.594 10.865L18.6082 10.8735L18.6228 10.8813L18.7628 10.9563L18.7736 10.9621L18.7846 10.9675C19.0235 11.0856 19.2126 11.3172 19.2448 11.5919L19.2499 11.7009V13.5002V13.5002C19.25 14.0741 19.0307 14.6263 18.637 15.0439C18.2457 15.4589 17.7115 15.7097 17.1425 15.7458L16.9893 15.7502H2.99994H2.9999C2.42599 15.7502 1.87376 15.5309 1.4562 15.1372C1.0412 14.7459 0.790405 14.2117 0.754293 13.6427L0.749941 13.4895V11.6832C0.749941 11.3927 0.914385 11.1478 1.14831 11.0044L1.22807 10.9612C1.66656 10.7427 2.03883 10.411 2.30625 10.0003C2.57664 9.58501 2.7298 9.10437 2.74952 8.60921C2.76924 8.11405 2.6548 7.62276 2.41829 7.18728C2.18178 6.75181 1.83199 6.38834 1.40591 6.1353L1.39169 6.12685L1.37711 6.11904L1.23711 6.04404L1.22627 6.03824L1.21524 6.03279C0.976346 5.91472 0.787204 5.68305 0.755083 5.40829L0.749941 5.30031V3.50015V3.50011C0.749909 2.9262 0.969185 2.37398 1.3629 1.95642C1.75421 1.54142 2.28843 1.29062 2.85741 1.25451L3.01059 1.25015H16.9999Z" stroke="white" stroke-width="1.5"/>
</svg>
