<svg xmlns="http://www.w3.org/2000/svg" width="647" height="548" fill="none"><g clip-path="url(#a)"><path fill="#EBEBEB" d="M570.484 44.353H406.332S422.617 0 447.656 0c25.038 0 32.891 30.612 32.891 30.612s16.896-16.63 30.784-16.63c13.887 0 25.956 21.976 25.956 21.976s19.615-11.815 33.197 8.395Z"/><path fill="#EBEBEB" d="M647 91.676h-76.709s17.138-24.77 30.639-24.77c13.501 0 17.491 16.519 17.491 16.519s9.527-7.705 18.361-6.325c8.834 1.38 10.202 14.592 10.202 14.592l.016-.016ZM491.425 183.833h-76.709s17.138-24.769 30.638-24.769c13.501 0 17.492 16.518 17.492 16.518s9.526-7.705 18.361-6.324c8.834 1.38 10.202 14.591 10.202 14.591l.016-.016Z" opacity=".5"/><path fill="#EBEBEB" d="M149.412 202.871H0s20.469-45.573 42.353-48.414c21.885-2.841 32.36 33.855 32.36 33.855s14.113-12.971 25.217-12.971c11.103 0 19.664 17.096 19.664 17.096s22.206-11.702 29.818 10.45v-.016Z"/><path fill="#EBEBEB" d="M217.657 68.945H116.729s17.331-33.02 36.143-33.501c18.811-.482 28.691 24.994 28.691 24.994s29.255-23.421 36.094 8.507Z" opacity=".5"/><path fill="#DBDBDB" d="M379.829 226.019h-59.99v313.73h59.99v-313.73Z"/><path fill="#EBEBEB" d="M340.823 236.213h-11.667v11.975h11.667v-11.975ZM355.74 236.213h-11.667v11.975h11.667v-11.975ZM340.823 256.551h-11.667v11.975h11.667v-11.975ZM355.74 256.551h-11.667v11.975h11.667v-11.975ZM340.823 276.89h-11.667v11.975h11.667V276.89ZM355.74 276.89h-11.667v11.975h11.667V276.89ZM340.823 297.228h-11.667v11.975h11.667v-11.975ZM355.74 297.228h-11.667v11.975h11.667v-11.975ZM340.823 317.567h-11.667v11.975h11.667v-11.975ZM355.74 317.567h-11.667v11.975h11.667v-11.975ZM340.823 337.905h-11.667v11.975h11.667v-11.975ZM355.74 337.905h-11.667v11.975h11.667v-11.975ZM340.823 358.244h-11.667v11.975h11.667v-11.975ZM355.74 358.244h-11.667v11.975h11.667v-11.975ZM340.823 378.582h-11.667v11.975h11.667v-11.975ZM355.74 378.582h-11.667v11.975h11.667v-11.975ZM340.823 398.921h-11.667v11.975h11.667v-11.975ZM355.74 398.921h-11.667v11.975h11.667v-11.975ZM340.823 419.259h-11.667v11.975h11.667v-11.975ZM355.74 419.259h-11.667v11.975h11.667v-11.975ZM340.823 439.598h-11.667v11.975h11.667v-11.975ZM355.74 439.598h-11.667v11.975h11.667v-11.975ZM340.823 459.936h-11.667v11.975h11.667v-11.975ZM355.74 459.936h-11.667v11.975h11.667v-11.975ZM340.823 480.275h-11.667v11.975h11.667v-11.975ZM355.74 480.275h-11.667v11.975h11.667v-11.975ZM340.823 500.613h-11.667v11.975h11.667v-11.975ZM358.862 512.572h11.666v-11.975h-11.666v11.975ZM358.862 492.234h11.666v-11.976h-11.666v11.976ZM358.862 471.895h11.666V459.92h-11.666v11.975ZM358.862 451.573h11.666v-11.975h-11.666v11.975ZM358.862 431.234h11.666v-11.975h-11.666v11.975ZM358.862 410.896h11.666v-11.975h-11.666v11.975ZM358.862 390.557h11.666v-11.975h-11.666v11.975ZM358.862 370.219h11.666v-11.975h-11.666v11.975ZM358.862 349.88h11.666v-11.975h-11.666v11.975ZM358.862 329.542h11.666v-11.975h-11.666v11.975ZM358.862 309.203h11.666v-11.975h-11.666v11.975ZM358.862 288.865h11.666V276.89h-11.666v11.975ZM358.862 268.526h11.666v-11.975h-11.666v11.975ZM358.862 248.188h11.666v-11.975h-11.666v11.975ZM355.74 500.613h-11.667v11.975h11.667v-11.975Z"/><path fill="#A6A6A6" d="M427.154 226.019h-47.309v313.73h47.309v-313.73Z"/><path fill="#C7C7C7" d="M412.624 512.572h9.639v-11.975h-9.639v11.975ZM400.329 512.572h9.623v-11.975h-9.623v11.975ZM412.624 492.234h9.639v-11.976h-9.639v11.976ZM400.329 492.234h9.623v-11.976h-9.623v11.976ZM412.624 471.895h9.639V459.92h-9.639v11.975ZM400.329 471.895h9.623V459.92h-9.623v11.975ZM412.624 451.573h9.639v-11.975h-9.639v11.975ZM400.329 451.573h9.623v-11.975h-9.623v11.975ZM412.624 431.234h9.639v-11.975h-9.639v11.975ZM400.329 431.234h9.623v-11.975h-9.623v11.975ZM412.624 410.896h9.639v-11.975h-9.639v11.975ZM400.329 410.896h9.623v-11.975h-9.623v11.975ZM412.624 390.557h9.639v-11.975h-9.639v11.975ZM400.329 390.557h9.623v-11.975h-9.623v11.975ZM412.624 370.219h9.639v-11.975h-9.639v11.975ZM400.329 370.219h9.623v-11.975h-9.623v11.975ZM412.624 349.88h9.639v-11.975h-9.639v11.975ZM400.329 349.88h9.623v-11.975h-9.623v11.975ZM412.624 329.542h9.639v-11.975h-9.639v11.975ZM400.329 329.542h9.623v-11.975h-9.623v11.975ZM412.624 309.203h9.639v-11.975h-9.639v11.975ZM400.329 309.203h9.623v-11.975h-9.623v11.975ZM412.624 288.865h9.639V276.89h-9.639v11.975ZM400.329 288.865h9.623V276.89h-9.623v11.975ZM412.624 268.526h9.639v-11.975h-9.639v11.975ZM400.329 268.526h9.623v-11.975h-9.623v11.975ZM412.624 248.188h9.639v-11.975h-9.639v11.975ZM397.722 236.213H388.1v11.975h9.622v-11.975ZM397.722 256.551H388.1v11.975h9.622v-11.975ZM397.722 276.89H388.1v11.975h9.622V276.89ZM397.722 297.228H388.1v11.975h9.622v-11.975ZM397.722 317.567H388.1v11.975h9.622v-11.975ZM397.722 337.905H388.1v11.975h9.622v-11.975ZM397.722 358.244H388.1v11.975h9.622v-11.975ZM397.722 378.582H388.1v11.975h9.622v-11.975ZM397.722 398.921H388.1v11.975h9.622v-11.975ZM397.722 419.259H388.1v11.975h9.622v-11.975ZM397.722 439.598H388.1v11.975h9.622v-11.975ZM397.722 459.936H388.1v11.975h9.622v-11.975ZM397.722 480.275H388.1v11.975h9.622v-11.975ZM397.722 500.613H388.1v11.975h9.622v-11.975ZM400.329 248.188h9.623v-11.975h-9.623v11.975Z"/><path fill="#EBEBEB" d="M164.135 219.181h-62.58v320.568h62.58V219.181Z"/><path fill="#C7C7C7" d="M164.135 212.792h-64.093v6.389h64.093v-6.389Z"/><path fill="#fff" d="M113.543 228.588h-6.34v311.161h6.34V228.588ZM124.776 228.588h-6.34v311.161h6.34V228.588ZM136.007 228.588h-6.34v311.161h6.34V228.588ZM147.24 228.588h-6.341v311.161h6.341V228.588ZM158.471 228.588h-6.34v311.161h6.34V228.588Z"/><path fill="#EBEBEB" d="M113.543 236.646h-6.34v12.601h6.34v-12.601ZM124.776 236.646h-6.34v12.601h6.34v-12.601ZM136.007 236.646h-6.34v12.601h6.34v-12.601ZM147.24 236.646h-6.341v12.601h6.341v-12.601ZM158.471 236.646h-6.34v12.601h6.34v-12.601ZM113.543 257.129h-6.34v12.601h6.34v-12.601ZM124.776 257.129h-6.34v12.601h6.34v-12.601ZM136.007 257.129h-6.34v12.601h6.34v-12.601ZM147.24 257.129h-6.341v12.601h6.341v-12.601ZM158.471 257.129h-6.34v12.601h6.34v-12.601ZM113.543 277.612h-6.34v12.601h6.34v-12.601ZM124.776 277.612h-6.34v12.601h6.34v-12.601ZM136.007 277.612h-6.34v12.601h6.34v-12.601ZM147.24 277.612h-6.341v12.601h6.341v-12.601ZM158.471 277.612h-6.34v12.601h6.34v-12.601ZM113.543 298.095h-6.34v12.601h6.34v-12.601ZM124.776 298.095h-6.34v12.601h6.34v-12.601ZM136.007 298.095h-6.34v12.601h6.34v-12.601ZM147.24 298.095h-6.341v12.601h6.341v-12.601ZM158.471 298.095h-6.34v12.601h6.34v-12.601ZM113.543 318.578h-6.34v12.601h6.34v-12.601ZM124.776 318.578h-6.34v12.601h6.34v-12.601ZM136.007 318.578h-6.34v12.601h6.34v-12.601ZM147.24 318.578h-6.341v12.601h6.341v-12.601ZM158.471 318.578h-6.34v12.601h6.34v-12.601ZM113.543 339.045h-6.34v12.601h6.34v-12.601ZM124.776 339.045h-6.34v12.601h6.34v-12.601ZM136.007 339.045h-6.34v12.601h6.34v-12.601ZM147.24 339.045h-6.341v12.601h6.341v-12.601ZM158.471 339.045h-6.34v12.601h6.34v-12.601ZM113.543 359.528h-6.34v12.601h6.34v-12.601ZM124.776 359.528h-6.34v12.601h6.34v-12.601ZM136.007 359.528h-6.34v12.601h6.34v-12.601ZM147.24 359.528h-6.341v12.601h6.341v-12.601ZM158.471 359.528h-6.34v12.601h6.34v-12.601ZM113.543 380.011h-6.34v12.601h6.34v-12.601ZM124.776 380.011h-6.34v12.601h6.34v-12.601ZM136.007 380.011h-6.34v12.601h6.34v-12.601ZM147.24 380.011h-6.341v12.601h6.341v-12.601ZM158.471 380.011h-6.34v12.601h6.34v-12.601ZM113.543 400.494h-6.34v12.601h6.34v-12.601ZM124.776 400.494h-6.34v12.601h6.34v-12.601ZM136.007 400.494h-6.34v12.601h6.34v-12.601ZM147.24 400.494h-6.341v12.601h6.341v-12.601ZM158.471 400.494h-6.34v12.601h6.34v-12.601ZM113.543 420.977h-6.34v12.601h6.34v-12.601ZM124.776 420.977h-6.34v12.601h6.34v-12.601ZM136.007 420.977h-6.34v12.601h6.34v-12.601ZM147.24 420.977h-6.341v12.601h6.341v-12.601ZM158.471 420.977h-6.34v12.601h6.34v-12.601ZM113.543 441.46h-6.34v12.601h6.34V441.46ZM124.776 441.46h-6.34v12.601h6.34V441.46ZM136.007 441.46h-6.34v12.601h6.34V441.46ZM147.24 441.46h-6.341v12.601h6.341V441.46ZM158.471 441.46h-6.34v12.601h6.34V441.46ZM113.543 461.927h-6.34v12.601h6.34v-12.601ZM124.776 461.927h-6.34v12.601h6.34v-12.601ZM136.007 461.927h-6.34v12.601h6.34v-12.601ZM147.24 461.927h-6.341v12.601h6.341v-12.601ZM158.471 461.927h-6.34v12.601h6.34v-12.601ZM113.543 482.41h-6.34v12.601h6.34V482.41ZM124.776 482.41h-6.34v12.601h6.34V482.41ZM136.007 482.41h-6.34v12.601h6.34V482.41ZM147.24 482.41h-6.341v12.601h6.341V482.41ZM158.471 482.41h-6.34v12.601h6.34V482.41ZM113.543 502.893h-6.34v36.856h6.34v-36.856ZM124.776 502.893h-6.34v36.856h6.34v-36.856ZM136.007 502.893h-6.34v36.856h6.34v-36.856ZM147.24 502.893h-6.341v36.856h6.341v-36.856ZM158.471 502.893h-6.34v36.856h6.34v-36.856Z"/><path fill="#DBDBDB" d="M204.317 219.181h-40.181v320.568h40.181V219.181Z"/><path fill="#C7C7C7" d="M206.055 212.792h-41.919v6.389h41.919v-6.389ZM176.14 228.588h-6.34v311.161h6.34V228.588ZM187.372 228.588h-6.34v311.161h6.34V228.588ZM198.604 228.588h-6.34v311.161h6.34V228.588Z"/><path fill="#DBDBDB" d="M176.14 236.646h-6.34v12.601h6.34v-12.601ZM187.372 236.646h-6.34v12.601h6.34v-12.601ZM198.604 236.646h-6.34v12.601h6.34v-12.601ZM176.14 257.129h-6.34v12.601h6.34v-12.601ZM187.372 257.129h-6.34v12.601h6.34v-12.601ZM198.604 257.129h-6.34v12.601h6.34v-12.601ZM176.14 277.612h-6.34v12.601h6.34v-12.601ZM187.372 277.612h-6.34v12.601h6.34v-12.601ZM198.604 277.612h-6.34v12.601h6.34v-12.601ZM176.14 298.095h-6.34v12.601h6.34v-12.601ZM187.372 298.095h-6.34v12.601h6.34v-12.601ZM198.604 298.095h-6.34v12.601h6.34v-12.601ZM176.14 318.578h-6.34v12.601h6.34v-12.601ZM187.372 318.578h-6.34v12.601h6.34v-12.601ZM198.604 318.578h-6.34v12.601h6.34v-12.601ZM176.14 339.045h-6.34v12.601h6.34v-12.601ZM187.372 339.045h-6.34v12.601h6.34v-12.601ZM198.604 339.045h-6.34v12.601h6.34v-12.601ZM176.14 359.528h-6.34v12.601h6.34v-12.601ZM187.372 359.528h-6.34v12.601h6.34v-12.601ZM198.604 359.528h-6.34v12.601h6.34v-12.601ZM176.14 380.011h-6.34v12.601h6.34v-12.601ZM187.372 380.011h-6.34v12.601h6.34v-12.601ZM198.604 380.011h-6.34v12.601h6.34v-12.601ZM176.14 400.494h-6.34v12.601h6.34v-12.601ZM187.372 400.494h-6.34v12.601h6.34v-12.601ZM198.604 400.494h-6.34v12.601h6.34v-12.601ZM176.14 420.977h-6.34v12.601h6.34v-12.601ZM187.372 420.977h-6.34v12.601h6.34v-12.601ZM198.604 420.977h-6.34v12.601h6.34v-12.601ZM176.14 441.46h-6.34v12.601h6.34V441.46ZM187.372 441.46h-6.34v12.601h6.34V441.46ZM198.604 441.46h-6.34v12.601h6.34V441.46ZM176.14 461.927h-6.34v12.601h6.34v-12.601ZM187.372 461.927h-6.34v12.601h6.34v-12.601ZM198.604 461.927h-6.34v12.601h6.34v-12.601ZM176.14 482.41h-6.34v12.601h6.34V482.41ZM187.372 482.41h-6.34v12.601h6.34V482.41ZM198.604 482.41h-6.34v12.601h6.34V482.41ZM176.14 502.893h-6.34v36.856h6.34v-36.856ZM187.372 502.893h-6.34v36.856h6.34v-36.856ZM198.604 502.893h-6.34v36.856h6.34v-36.856Z"/><path fill="#EBEBEB" d="M73.314 315.191H13.95v224.558h59.363V315.191Z"/><path fill="#C7C7C7" d="M73.314 300.294H22.399v14.897h50.915v-14.897Z"/><path fill="#DBDBDB" d="M66.813 322.96H20.469v167.877h46.344V322.96Z"/><path fill="#fff" d="M66.813 338.981H20.469v3.965h46.344v-3.965ZM66.813 355.418H20.469v3.965h46.344v-3.965ZM66.813 371.84H20.469v3.965h46.344v-3.965ZM66.813 388.278H20.469v3.965h46.344v-3.965ZM66.813 404.716H20.469v3.965h46.344v-3.965ZM66.813 421.137H20.469v3.965h46.344v-3.965ZM66.813 437.575H20.469v3.965h46.344v-3.965ZM66.813 454.013H20.469v3.965h46.344v-3.965ZM66.813 470.434H20.469v3.965h46.344v-3.965ZM66.813 486.872H20.469v3.965h46.344v-3.965Z"/><path fill="#DBDBDB" d="M110.485 315.191H73.314v224.558h37.171V315.191Z"/><path fill="#A6A6A6" d="M104.918 300.294H73.313v14.897h31.605v-14.897Z"/><path fill="#C7C7C7" d="M107.025 322.96H78.446v167.877h28.579V322.96Z"/><path fill="#fff" d="M107.025 338.981H78.446v3.965h28.579v-3.965ZM107.025 355.418H78.446v3.965h28.579v-3.965ZM107.025 371.84H78.446v3.965h28.579v-3.965ZM107.025 388.278H78.446v3.965h28.579v-3.965ZM107.025 404.716H78.446v3.965h28.579v-3.965ZM107.025 421.137H78.446v3.965h28.579v-3.965ZM107.025 437.575H78.446v3.965h28.579v-3.965ZM107.025 454.013H78.446v3.965h28.579v-3.965ZM107.025 470.434H78.446v3.965h28.579v-3.965ZM107.025 486.872H78.446v3.965h28.579v-3.965Z"/><path fill="#DBDBDB" d="M576.036 318.979h-31.701v37.354h31.701v-37.354Z"/><path fill="#C7C7C7" d="M596.134 318.979h-20.099v38.735h20.099v-38.735Z"/><path fill="#DBDBDB" d="M597.486 335.465h-19.954v22.233h19.954v-22.233Z"/><path fill="#C7C7C7" d="M609.909 335.465H597.47v22.233h12.439v-22.233Z"/><path fill="#EBEBEB" d="M583.454 353.909h-51.268v185.856h51.268V353.909Z"/><path fill="#fff" d="M554.167 361.887h-16.124v6.566h16.124v-6.566ZM574.78 361.887h-16.124v6.566h16.124v-6.566ZM554.167 373.044h-16.124v6.565h16.124v-6.565ZM574.78 373.044h-16.124v6.565h16.124v-6.565ZM554.167 384.2h-16.124v6.566h16.124V384.2ZM574.78 384.2h-16.124v6.566h16.124V384.2ZM554.167 395.357h-16.124v6.565h16.124v-6.565ZM574.78 395.357h-16.124v6.565h16.124v-6.565ZM554.167 406.513h-16.124v6.566h16.124v-6.566ZM574.78 406.513h-16.124v6.566h16.124v-6.566ZM554.167 417.67h-16.124v6.565h16.124v-6.565ZM574.78 417.67h-16.124v6.565h16.124v-6.565ZM554.167 428.826h-16.124v6.566h16.124v-6.566ZM574.78 428.826h-16.124v6.566h16.124v-6.566ZM554.167 439.983h-16.124v6.565h16.124v-6.565ZM574.78 439.983h-16.124v6.565h16.124v-6.565ZM554.167 451.139h-16.124v6.566h16.124v-6.566ZM574.78 451.139h-16.124v6.566h16.124v-6.566ZM554.167 462.296h-16.124v6.565h16.124v-6.565ZM574.78 462.296h-16.124v6.565h16.124v-6.565ZM554.167 473.436h-16.124v6.566h16.124v-6.566ZM574.78 473.436h-16.124v6.566h16.124v-6.566ZM554.167 484.593h-16.124v6.565h16.124v-6.565ZM574.78 484.593h-16.124v6.565h16.124v-6.565ZM554.167 495.749h-16.124v6.566h16.124v-6.566ZM574.78 495.749h-16.124v6.566h16.124v-6.566ZM554.167 506.906h-16.124v6.565h16.124v-6.565ZM574.78 506.906h-16.124v6.565h16.124v-6.565Z"/><path fill="#C7C7C7" d="M624.97 353.909h-41.532v185.856h41.532V353.909Z"/><path fill="#EBEBEB" d="M607.592 513.487h13.227v-6.565h-13.227v6.565ZM590.663 513.487h13.228v-6.565h-13.228v6.565ZM607.592 502.331h13.227v-6.566h-13.227v6.566ZM590.663 502.331h13.228v-6.566h-13.228v6.566ZM607.592 491.174h13.227v-6.565h-13.227v6.565ZM590.663 491.174h13.228v-6.565h-13.228v6.565ZM607.592 480.018h13.227v-6.566h-13.227v6.566ZM590.663 480.018h13.228v-6.566h-13.228v6.566ZM607.592 468.845h13.227v-6.565h-13.227v6.565ZM590.663 468.845h13.228v-6.565h-13.228v6.565ZM607.592 457.705h13.227v-6.566h-13.227v6.566ZM590.663 457.705h13.228v-6.566h-13.228v6.566ZM607.592 446.548h13.227v-6.565h-13.227v6.565ZM590.663 446.548h13.228v-6.565h-13.228v6.565ZM607.592 435.392h13.227v-6.566h-13.227v6.566ZM590.663 435.392h13.228v-6.566h-13.228v6.566ZM607.592 424.235h13.227v-6.565h-13.227v6.565ZM590.663 424.235h13.228v-6.565h-13.228v6.565ZM607.592 413.079h13.227v-6.566h-13.227v6.566ZM590.663 413.079h13.228v-6.566h-13.228v6.566ZM607.592 401.922h13.227v-6.565h-13.227v6.565ZM590.663 401.922h13.228v-6.565h-13.228v6.565ZM607.592 390.782h13.227v-6.566h-13.227v6.566ZM590.663 390.782h13.228v-6.566h-13.228v6.566ZM607.592 379.625h13.227v-6.565h-13.227v6.565ZM590.663 379.625h13.228v-6.565h-13.228v6.565ZM607.592 368.469h13.227v-6.566h-13.227v6.566ZM590.663 368.469h13.228v-6.566h-13.228v6.566Z"/><path fill="#DBDBDB" d="M233.297 318.979h-31.7v37.354h31.7v-37.354Z"/><path fill="#C7C7C7" d="M253.395 318.979h-20.098v38.735h20.098v-38.735Z"/><path fill="#DBDBDB" d="M254.748 335.465h-19.954v22.233h19.954v-22.233Z"/><path fill="#C7C7C7" d="M267.186 335.465h-12.439v22.233h12.439v-22.233Z"/><path fill="#EBEBEB" d="M240.715 353.909h-51.268v185.856h51.268V353.909Z"/><path fill="#fff" d="M211.429 361.887h-16.124v6.566h16.124v-6.566ZM232.042 361.887h-16.124v6.566h16.124v-6.566ZM211.429 373.044h-16.124v6.565h16.124v-6.565ZM232.042 373.044h-16.124v6.565h16.124v-6.565ZM211.429 384.2h-16.124v6.566h16.124V384.2ZM232.042 384.2h-16.124v6.566h16.124V384.2ZM211.429 395.357h-16.124v6.565h16.124v-6.565ZM232.042 395.357h-16.124v6.565h16.124v-6.565ZM211.429 406.513h-16.124v6.566h16.124v-6.566ZM232.042 406.513h-16.124v6.566h16.124v-6.566ZM211.429 417.67h-16.124v6.565h16.124v-6.565ZM232.042 417.67h-16.124v6.565h16.124v-6.565ZM211.429 428.826h-16.124v6.566h16.124v-6.566ZM232.042 428.826h-16.124v6.566h16.124v-6.566ZM211.429 439.983h-16.124v6.565h16.124v-6.565ZM232.042 439.983h-16.124v6.565h16.124v-6.565ZM211.429 451.139h-16.124v6.566h16.124v-6.566ZM232.042 451.139h-16.124v6.566h16.124v-6.566ZM211.429 462.296h-16.124v6.565h16.124v-6.565ZM232.042 462.296h-16.124v6.565h16.124v-6.565ZM211.429 473.436h-16.124v6.566h16.124v-6.566ZM232.042 473.436h-16.124v6.566h16.124v-6.566ZM211.429 484.593h-16.124v6.565h16.124v-6.565ZM232.042 484.593h-16.124v6.565h16.124v-6.565ZM211.429 495.749h-16.124v6.566h16.124v-6.566ZM232.042 495.749h-16.124v6.566h16.124v-6.566ZM211.429 506.906h-16.124v6.565h16.124v-6.565ZM232.042 506.906h-16.124v6.565h16.124v-6.565Z"/><path fill="#C7C7C7" d="M282.232 353.909h-41.533v185.856h41.533V353.909Z"/><path fill="#EBEBEB" d="M264.854 513.487h13.227v-6.565h-13.227v6.565ZM247.925 513.487h13.227v-6.565h-13.227v6.565ZM264.854 502.331h13.227v-6.566h-13.227v6.566ZM247.925 502.331h13.227v-6.566h-13.227v6.566ZM264.854 491.174h13.227v-6.565h-13.227v6.565ZM247.925 491.174h13.227v-6.565h-13.227v6.565ZM264.854 480.018h13.227v-6.566h-13.227v6.566ZM247.925 480.018h13.227v-6.566h-13.227v6.566ZM264.854 468.845h13.227v-6.565h-13.227v6.565ZM247.925 468.845h13.227v-6.565h-13.227v6.565ZM264.854 457.705h13.227v-6.566h-13.227v6.566ZM247.925 457.705h13.227v-6.566h-13.227v6.566ZM264.854 446.548h13.227v-6.565h-13.227v6.565ZM247.925 446.548h13.227v-6.565h-13.227v6.565ZM264.854 435.392h13.227v-6.566h-13.227v6.566ZM247.925 435.392h13.227v-6.566h-13.227v6.566ZM264.854 424.235h13.227v-6.565h-13.227v6.565ZM247.925 424.235h13.227v-6.565h-13.227v6.565ZM264.854 413.079h13.227v-6.566h-13.227v6.566ZM247.925 413.079h13.227v-6.566h-13.227v6.566ZM264.854 401.922h13.227v-6.565h-13.227v6.565ZM247.925 401.922h13.227v-6.565h-13.227v6.565ZM264.854 390.782h13.227v-6.566h-13.227v6.566ZM247.925 390.782h13.227v-6.566h-13.227v6.566ZM264.854 379.625h13.227v-6.565h-13.227v6.565ZM247.925 379.625h13.227v-6.565h-13.227v6.565ZM264.854 368.469h13.227v-6.566h-13.227v6.566ZM247.925 368.469h13.227v-6.566h-13.227v6.566Z"/><path fill="#37474F" d="M479.775 418.649h-60.457v121.1h60.457v-121.1Z"/><path fill="#455A64" d="M439.529 429.131h-10.701v7.417h10.701v-7.417ZM439.529 444.975h-10.701v7.416h10.701v-7.416ZM439.529 460.819h-10.701v7.416h10.701v-7.416ZM439.529 476.679h-10.701v7.416h10.701v-7.416ZM439.529 492.523h-10.701v7.416h10.701v-7.416ZM439.529 508.366h-10.701v7.417h10.701v-7.417ZM439.529 524.21h-10.701v7.416h10.701v-7.416ZM454.929 429.131h-10.701v7.417h10.701v-7.417ZM454.929 444.975h-10.701v7.416h10.701v-7.416ZM454.929 460.819h-10.701v7.416h10.701v-7.416ZM454.929 476.679h-10.701v7.416h10.701v-7.416ZM454.929 492.523h-10.701v7.416h10.701v-7.416ZM454.929 508.366h-10.701v7.417h10.701v-7.417ZM454.929 524.21h-10.701v7.416h10.701v-7.416ZM470.28 429.131h-10.701v7.417h10.701v-7.417ZM470.28 444.975h-10.701v7.416h10.701v-7.416ZM470.28 460.819h-10.701v7.416h10.701v-7.416ZM470.28 476.679h-10.701v7.416h10.701v-7.416ZM470.28 492.523h-10.701v7.416h10.701v-7.416ZM470.28 508.366h-10.701v7.417h10.701v-7.417ZM470.28 524.21h-10.701v7.416h10.701v-7.416ZM479.791 406.032h-40.262v12.617h40.262v-12.617Z"/><path fill="#37474F" d="M479.791 398.214H454.27v7.818h25.521v-7.818Z"/><path fill="#263238" d="M522.209 418.649h-42.418v121.1h42.418v-121.1Z"/><path fill="#37474F" d="M509.159 530.438h8.705v-7.416h-8.705v7.416ZM509.159 514.611h8.705v-7.417h-8.705v7.417ZM509.159 498.767h8.705v-7.416h-8.705v7.416ZM509.159 482.907h8.705v-7.416h-8.705v7.416ZM509.159 467.063h8.705v-7.416h-8.705v7.416ZM509.159 451.203h8.705v-7.416h-8.705v7.416ZM509.159 435.376h8.705v-7.417h-8.705v7.417ZM496.639 530.438h8.706v-7.416h-8.706v7.416ZM496.639 514.611h8.706v-7.417h-8.706v7.417ZM496.639 498.767h8.706v-7.416h-8.706v7.416ZM496.639 482.907h8.706v-7.416h-8.706v7.416ZM496.639 467.063h8.706v-7.416h-8.706v7.416ZM496.639 451.203h8.706v-7.416h-8.706v7.416ZM496.639 435.376h8.706v-7.417h-8.706v7.417ZM484.121 530.438h8.705v-7.416h-8.705v7.416ZM484.121 514.611h8.705v-7.417h-8.705v7.417ZM484.121 498.767h8.705v-7.416h-8.705v7.416ZM484.121 482.907h8.705v-7.416h-8.705v7.416ZM484.121 467.063h8.705v-7.416h-8.705v7.416ZM484.121 451.203h8.705v-7.416h-8.705v7.416ZM484.121 435.376h8.705v-7.417h-8.705v7.417ZM515.788 406.032h-35.997v12.617h35.997v-12.617Z"/><path fill="#263238" d="M499.294 398.214h-19.503v7.818h19.503v-7.818Z"/><path fill="#0052BF" d="M463.329 71.658h16.317c-35.772 0-64.753 29.36-64.753 65.575 0 36.214 28.981 65.59 64.753 65.59h-16.317c-35.772 0-64.753-29.36-64.753-65.59 0-36.231 28.981-65.575 64.753-65.575Z"/><path fill="#000" d="M463.329 71.658h16.317c-35.772 0-64.753 29.36-64.753 65.575 0 36.214 28.981 65.59 64.753 65.59h-16.317c-35.772 0-64.753-29.36-64.753-65.59 0-36.231 28.981-65.575 64.753-65.575Z" opacity=".1"/><path fill="#0052BF" d="M479.646 388.936h-16.317c65.735-76.41 127.302-160.14 118.258-252.602-5.873-59.892-46.634-119.543-118.258-119.543h16.317c71.608 0 112.369 59.651 118.242 119.543 9.06 92.462-52.507 176.208-118.242 252.602Z"/><path fill="#000" d="M479.646 388.936h-16.317c65.735-76.41 127.302-160.14 118.258-252.602-5.873-59.892-46.634-119.543-118.258-119.543h16.317c71.608 0 112.369 59.651 118.242 119.543 9.06 92.462-52.507 176.208-118.242 252.602Z" opacity=".1"/><path fill="#B1CDF2" d="M581.587 136.334c9.06 92.463-52.507 176.209-118.242 252.619-65.654-76.41-127.221-160.156-118.178-252.619 5.89-59.891 46.634-119.526 118.178-119.526s112.368 59.635 118.242 119.526ZM463.345 202.84c35.852 0 64.833-29.36 64.833-65.591 0-36.23-28.981-65.574-64.833-65.574s-64.753 29.36-64.753 65.574c0 36.215 28.981 65.591 64.753 65.591Z"/><path fill="#263238" d="m3.073 547.197 80.105-.385 80.104-.144 160.21-.257 160.209.257 80.104.144 80.105.385-80.105.402-80.104.144-160.209.257-160.21-.257-80.104-.144-80.105-.402Z"/><path fill="#C7C7C7" d="M644.2 539.749H2.784v7.448H644.2v-7.448Z"/><path fill="#263238" d="M21.337 539.749c.258 1.236.306 2.488.322 3.724 0 1.236-.064 2.488-.322 3.724-.257-1.236-.305-2.488-.321-3.724 0-1.236.064-2.488.322-3.724ZM42.917 539.749c.257 1.236.305 2.488.321 3.724 0 1.236-.064 2.488-.321 3.724-.258-1.236-.306-2.488-.322-3.724 0-1.236.064-2.488.322-3.724ZM64.496 539.749c.257 1.236.305 2.488.322 3.724 0 1.236-.065 2.488-.322 3.724-.258-1.236-.306-2.488-.322-3.724 0-1.236.064-2.488.322-3.724ZM86.09 539.749c.258 1.236.306 2.488.322 3.724 0 1.236-.064 2.488-.322 3.724-.257-1.236-.305-2.488-.321-3.724 0-1.236.064-2.488.321-3.724ZM107.669 539.749c.258 1.236.306 2.488.322 3.724 0 1.236-.064 2.488-.322 3.724-.257-1.236-.305-2.488-.321-3.724 0-1.236.064-2.488.321-3.724ZM129.249 539.749c.257 1.236.305 2.488.321 3.724 0 1.236-.064 2.488-.321 3.724-.258-1.236-.306-2.488-.322-3.724 0-1.236.064-2.488.322-3.724ZM150.828 539.749c.257 1.236.305 2.488.322 3.724 0 1.236-.065 2.488-.322 3.724-.258-1.236-.306-2.488-.322-3.724 0-1.236.064-2.488.322-3.724ZM172.422 539.749c.258 1.236.306 2.488.322 3.724 0 1.236-.064 2.488-.322 3.724-.257-1.236-.305-2.488-.321-3.724 0-1.236.064-2.488.321-3.724ZM194.002 539.749c.257 1.236.305 2.488.321 3.724 0 1.236-.064 2.488-.321 3.724-.258-1.236-.306-2.488-.322-3.724 0-1.236.064-2.488.322-3.724ZM215.581 539.749c.257 1.236.305 2.488.321 3.724 0 1.236-.064 2.488-.321 3.724-.258-1.236-.306-2.488-.322-3.724 0-1.236.064-2.488.322-3.724ZM237.16 539.749c.257 1.236.305 2.488.322 3.724 0 1.236-.065 2.488-.322 3.724-.258-1.236-.306-2.488-.322-3.724 0-1.236.064-2.488.322-3.724ZM258.754 539.749c.258 1.236.306 2.488.322 3.724 0 1.236-.064 2.488-.322 3.724-.257-1.236-.305-2.488-.321-3.724 0-1.236.064-2.488.321-3.724ZM280.334 539.749c.257 1.236.305 2.488.321 3.724 0 1.236-.064 2.488-.321 3.724-.258-1.236-.306-2.488-.322-3.724 0-1.236.064-2.488.322-3.724ZM301.913 539.749c.257 1.236.305 2.488.322 3.724 0 1.236-.065 2.488-.322 3.724-.258-1.236-.306-2.488-.322-3.724 0-1.236.064-2.488.322-3.724ZM323.492 539.749c.257 1.236.305 2.488.322 3.724 0 1.236-.065 2.488-.322 3.724-.258-1.236-.306-2.488-.322-3.724 0-1.236.064-2.488.322-3.724ZM345.086 539.749c.258 1.236.306 2.488.322 3.724 0 1.236-.064 2.488-.322 3.724-.257-1.236-.305-2.488-.321-3.724 0-1.236.064-2.488.321-3.724ZM366.666 539.749c.257 1.236.305 2.488.321 3.724 0 1.236-.064 2.488-.321 3.724-.258-1.236-.306-2.488-.322-3.724 0-1.236.064-2.488.322-3.724ZM388.245 539.749c.257 1.236.305 2.488.322 3.724 0 1.236-.065 2.488-.322 3.724-.258-1.236-.306-2.488-.322-3.724 0-1.236.064-2.488.322-3.724ZM409.824 539.749c.257 1.236.306 2.488.322 3.724 0 1.236-.065 2.488-.322 3.724-.258-1.236-.306-2.488-.322-3.724 0-1.236.064-2.488.322-3.724ZM431.419 539.749c.257 1.236.305 2.488.321 3.724 0 1.236-.064 2.488-.321 3.724-.258-1.236-.306-2.488-.322-3.724 0-1.236.064-2.488.322-3.724ZM452.998 539.749c.257 1.236.305 2.488.321 3.724 0 1.236-.064 2.488-.321 3.724-.258-1.236-.306-2.488-.322-3.724 0-1.236.064-2.488.322-3.724ZM474.577 539.749c.257 1.236.305 2.488.322 3.724 0 1.236-.065 2.488-.322 3.724-.258-1.236-.306-2.488-.322-3.724 0-1.236.064-2.488.322-3.724ZM496.156 539.749c.257 1.236.306 2.488.322 3.724 0 1.236-.065 2.488-.322 3.724-.258-1.236-.306-2.488-.322-3.724 0-1.236.064-2.488.322-3.724ZM517.752 539.749c.257 1.236.305 2.488.321 3.724 0 1.236-.064 2.488-.321 3.724-.258-1.236-.306-2.488-.322-3.724 0-1.236.064-2.488.322-3.724ZM539.33 539.749c.257 1.236.305 2.488.321 3.724 0 1.236-.064 2.488-.321 3.724-.258-1.236-.306-2.488-.322-3.724 0-1.236.064-2.488.322-3.724ZM560.909 539.749c.257 1.236.305 2.488.322 3.724 0 1.236-.065 2.488-.322 3.724-.258-1.236-.306-2.488-.322-3.724 0-1.236.064-2.488.322-3.724ZM582.488 539.749c.257 1.236.306 2.488.322 3.724 0 1.236-.065 2.488-.322 3.724-.258-1.236-.306-2.488-.322-3.724 0-1.236.064-2.488.322-3.724ZM604.084 539.749c.257 1.236.305 2.488.321 3.724 0 1.236-.064 2.488-.321 3.724-.258-1.236-.306-2.488-.322-3.724 0-1.236.064-2.488.322-3.724ZM625.662 539.749c.257 1.236.305 2.488.322 3.724 0 1.236-.065 2.488-.322 3.724-.258-1.236-.306-2.488-.322-3.724 0-1.236.064-2.488.322-3.724Z"/><path fill="#37474F" d="M69.983 539.749h-35.37s.08-5.249 3.557-6.646c3.475-1.396 5.551 1.333 5.551 1.333s1.416-9.664 7.901-9.664c6.485 0 9.575 8.331 9.575 8.331s1.448-2.52 5.053-2.054c3.604.465 3.733 8.7 3.733 8.7ZM638.68 539.749s-1.078-5.04-3.25-5.827c-2.173-.771-3.476 1.493-3.476 1.493s-.515-4.816-3.589-6.261c-3.073-1.444-5.374 1.509-5.374 1.509s-2.35-6.116-6.566-6.116c-4.216 0-6.34 8.958-6.34 8.958s-2.478-2.665-5.037-1.156c-2.542 1.509-2.542 7.416-2.542 7.416h36.174v-.016ZM308.35 539.749s-1.078-5.04-3.251-5.827c-2.172-.771-3.475 1.493-3.475 1.493s-.515-4.816-3.589-6.261c-3.073-1.444-5.374 1.509-5.374 1.509s-2.35-6.116-6.566-6.116c-4.216 0-6.34 8.958-6.34 8.958s-2.478-2.665-5.037-1.156c-2.542 1.509-2.542 7.416-2.542 7.416h36.174v-.016Z"/><path fill="#455A64" d="M40.937 539.749H8.32s1.078-4.591 3.235-4.912c2.156-.321 3.17 1.798 3.17 1.798s-.097-6.405 3.942-7.481c4.04-1.091 7.435 4.559 7.435 4.559s2.526-3.226 5.986-3.018c3.443.209 4.328 5.539 4.328 5.539s3.138-1.847 4.538 3.515h-.016ZM279.223 539.749h-32.618s1.079-4.591 3.235-4.912c2.156-.321 3.17 1.798 3.17 1.798s-.097-6.405 3.942-7.481c4.039-1.091 7.435 4.559 7.435 4.559s2.526-3.226 5.986-3.018c3.444.209 4.329 5.539 4.329 5.539s3.138-1.847 4.537 3.515h-.016ZM604.84 539.749h-20.034s.048-2.97 2.011-3.772c1.963-.787 3.138.754 3.138.754s.805-5.474 4.473-5.474c3.669 0 5.423 4.72 5.423 4.72s.821-1.429 2.865-1.156c2.043.273 2.124 4.928 2.124 4.928ZM359.65 539.749h-20.034s.048-2.97 2.012-3.772c1.963-.787 3.138.754 3.138.754s.804-5.474 4.473-5.474c3.669 0 5.423 4.72 5.423 4.72s.821-1.429 2.864-1.156c2.044.273 2.124 4.928 2.124 4.928Z"/></g><defs><clipPath id="a"><path fill="#fff" d="M0 0h647v548H0z"/></clipPath></defs></svg>