<svg xmlns="http://www.w3.org/2000/svg" width="670" height="460" fill="none"><g clip-path="url(#a)"><path fill="#EBEBEB" d="M670 399.367H0v.335h670v-.335Z"/><path fill="#fff" d="M317.594 379.764H58.84c-4.221 0-7.652-3.437-7.652-7.666V7.666C51.188 3.437 54.618 0 58.84 0h258.754c4.221 0 7.651 3.437 7.651 7.666v364.432c0 4.229-3.43 7.666-7.651 7.666ZM58.84.336c-4.034 0-7.317 3.29-7.317 7.33v364.432c0 4.041 3.283 7.331 7.317 7.331h258.754c4.033 0 7.316-3.29 7.316-7.331V7.666c0-4.04-3.283-7.33-7.316-7.33H58.84ZM607.436 379.764H348.682c-4.221 0-7.652-3.437-7.652-7.666V7.666c0-4.229 3.431-7.666 7.652-7.666h258.754c4.221 0 7.651 3.437 7.651 7.666v364.432c0 4.229-3.43 7.666-7.651 7.666ZM348.682.336c-4.034 0-7.317 3.29-7.317 7.33v364.432c0 4.041 3.283 7.331 7.317 7.331h258.754c4.033 0 7.316-3.29 7.316-7.331V7.666c0-4.04-3.283-7.33-7.316-7.33H348.682Z"/><path fill="#EBEBEB" d="M602.866 412.149h-42.304v.335h42.304v-.335ZM449.356 408.51h-44.769v.336h44.769v-.336ZM615.087 424.622h-83.656v.335h83.656v-.335ZM96.065 422.366H70.297v.336h25.768v-.336ZM148.593 422.366h-40.588v.336h40.588v-.336ZM327.148 416.687h-73.11v.335h73.11v-.335Z"/><path fill="#E6E6E6" d="M366.128 33.445H80.654V195.18h285.474V33.445Z"/><path fill="#F5F5F5" d="M375.053 33.445H82.169V195.18h292.884V33.445Z"/><path fill="#fff" d="M367.924 46.187V182.41a5.605 5.605 0 0 1-5.601 5.613H94.899a5.605 5.605 0 0 1-5.601-5.613V46.187a5.604 5.604 0 0 1 5.6-5.612h267.425a5.604 5.604 0 0 1 5.601 5.612Z"/><path fill="#F5F5F5" d="M335 460c143.491 0 259.813-6.805 259.813-15.199S478.491 429.603 335 429.603c-143.49 0-259.813 6.804-259.813 15.198S191.51 460 335 460Z"/><path fill="#0052BF" d="M538.559 345.661h-32.16v-1.342h32.16c7.464 0 14.687-4.404 18.399-11.225l1.179.645c-3.94 7.25-11.631 11.922-19.578 11.922ZM500.035 344.319h-13.173v1.342h13.173v-1.342Z"/><path fill="#0052BF" stroke="#fff" d="m148.113 324.894 20.341-233.618c.755-8.606 8.407-15.656 16.989-15.656h376.272c8.548 0 14.927 6.996 14.175 15.568l-20.341 233.619c-.755 8.606-8.407 15.655-16.989 15.655H162.288c-8.548 0-14.927-6.996-14.175-15.568Z"/><path fill="#fff" d="M530.721 336.075H163.829c-7.531 0-13.159-6.176-12.502-13.722l18.532-212.821c.187-2.175 2.104-3.934 4.274-3.934h386.403c2.171 0 3.779 1.759 3.591 3.934l-18.532 212.821c-.657 7.546-7.357 13.722-14.888 13.722h.014Z"/><path fill="#263238" d="M210.595 94.924c-10.894 0-18.988-8.888-18.037-19.804.952-10.915 10.586-19.804 21.494-19.804s18.988 8.889 18.036 19.804h-8.04c.563-6.485-4.234-11.748-10.706-11.748-6.472 0-12.181 5.263-12.744 11.748-.562 6.472 4.235 11.748 10.707 11.748l-.697 8.056h-.013ZM290.124 94.924c-10.894 0-18.988-8.888-18.036-19.804.951-10.915 10.586-19.804 21.493-19.804 10.908 0 18.988 8.889 18.037 19.804h-8.04c.563-6.485-4.235-11.748-10.707-11.748s-12.18 5.263-12.743 11.748c-.563 6.472 4.234 11.748 10.706 11.748l-.696 8.056h-.014ZM369.652 94.924c-10.894 0-18.987-8.888-18.036-19.804.951-10.915 10.586-19.804 21.494-19.804 10.907 0 18.987 8.889 18.036 19.804h-8.04c.563-6.485-4.234-11.748-10.707-11.748-6.472 0-12.18 5.263-12.743 11.748-.563 6.472 4.234 11.748 10.707 11.748l-.697 8.056h-.014ZM449.182 94.924c-10.894 0-18.988-8.888-18.037-19.804.952-10.915 10.586-19.804 21.494-19.804s18.988 8.889 18.036 19.804h-8.04c.563-6.485-4.234-11.748-10.706-11.748-6.472 0-12.181 5.263-12.744 11.748-.562 6.472 4.235 11.748 10.707 11.748l-.697 8.056h-.013ZM528.711 94.924c-10.894 0-18.988-8.888-18.036-19.804.951-10.915 10.586-19.804 21.493-19.804 10.908 0 18.988 8.889 18.037 19.804h-8.04c.562-6.485-4.235-11.748-10.707-11.748s-12.181 5.263-12.743 11.748c-.563 6.472 4.234 11.748 10.706 11.748l-.697 8.056h-.013Z"/><path fill="#E0E0E0" d="M529.757 326.421H167.059a.606.606 0 0 1-.617-.671l18.077-207.652a.74.74 0 0 1 .723-.671h362.685c.375 0 .643.295.616.671L530.467 325.75a.74.74 0 0 1-.724.671h.014Zm-361.894-1.342h361.344l17.956-206.31H185.819l-17.956 206.31Z"/><path fill="#E0E0E0" d="M533.375 284.894H170.677a.608.608 0 0 1-.617-.672.74.74 0 0 1 .724-.671h362.684c.376 0 .644.295.617.671a.74.74 0 0 1-.724.672h.014ZM536.979 243.352H174.295a.606.606 0 0 1-.616-.671.738.738 0 0 1 .723-.671h362.685c.375 0 .643.295.616.671a.74.74 0 0 1-.724.671ZM540.597 201.825H177.912a.606.606 0 0 1-.616-.672.74.74 0 0 1 .723-.671h362.685c.375 0 .643.296.616.671a.74.74 0 0 1-.723.672ZM544.215 160.297H181.53a.606.606 0 0 1-.616-.671.74.74 0 0 1 .724-.672h362.684c.375 0 .643.296.616.672a.738.738 0 0 1-.723.671Z"/><path fill="#E0E0E0" d="M484.411 326.421a.606.606 0 0 1-.616-.671l18.076-207.652a.74.74 0 0 1 .724-.671c.362 0 .643.295.616.671L485.135 325.75a.74.74 0 0 1-.724.671ZM439.078 326.421a.606.606 0 0 1-.616-.671l18.076-207.652a.74.74 0 0 1 .724-.671c.362 0 .643.295.616.671L439.802 325.75a.74.74 0 0 1-.724.671ZM393.746 326.421a.606.606 0 0 1-.616-.671l18.076-207.652a.74.74 0 0 1 .724-.671c.362 0 .643.295.616.671L394.47 325.75a.74.74 0 0 1-.724.671ZM348.414 326.421a.606.606 0 0 1-.616-.671l18.076-207.652a.74.74 0 0 1 .724-.671c.362 0 .643.295.616.671L349.138 325.75a.74.74 0 0 1-.724.671ZM303.068 326.421a.606.606 0 0 1-.616-.671l18.077-207.652a.738.738 0 0 1 .723-.671c.362 0 .643.295.617.671L303.792 325.75a.74.74 0 0 1-.724.671ZM257.736 326.421a.606.606 0 0 1-.616-.671l18.077-207.652a.738.738 0 0 1 .723-.671c.362 0 .643.295.617.671L258.46 325.75a.74.74 0 0 1-.724.671ZM212.404 326.421a.606.606 0 0 1-.616-.671l18.077-207.652a.738.738 0 0 1 .723-.671c.362 0 .643.295.617.671L213.128 325.75a.74.74 0 0 1-.724.671Z"/><path fill="#0052BF" d="M396.199 197.005h-27.698c-2.372 0-4.114-1.92-3.913-4.297l2.144-24.637c.201-2.377 2.291-4.296 4.663-4.296h27.698c2.372 0 4.114 1.919 3.913 4.296l-2.144 24.637c-.201 2.377-2.292 4.297-4.663 4.297Z"/><path fill="#fff" d="M396.199 197.005h-27.698c-2.372 0-4.114-1.92-3.913-4.297l2.144-24.637c.201-2.377 2.291-4.296 4.663-4.296h27.698c2.372 0 4.114 1.919 3.913 4.296l-2.144 24.637c-.201 2.377-2.292 4.297-4.663 4.297Z" opacity=".6"/><path fill="#fff" d="M589.453 197.005h-29.118l2.881-33.23h29.132L581.4 180.383l8.053 16.622Z"/><path fill="#0052BF" d="M590.538 197.676h-30.94l3.015-34.573h30.94l-11.376 17.28 8.375 17.28-.014.013Zm-29.493-1.343h27.296l-7.719-15.937 10.506-15.937h-27.296l-2.774 31.888-.013-.014ZM482.99 238.532h-27.698c-2.372 0-4.114-1.92-3.913-4.296l2.144-24.637c.201-2.377 2.291-4.297 4.663-4.297h27.698c2.372 0 4.114 1.92 3.913 4.297l-2.144 24.637c-.201 2.376-2.292 4.296-4.663 4.296Z"/><path fill="#fff" d="M482.99 238.532h-27.698c-2.372 0-4.114-1.92-3.913-4.296l2.144-24.637c.201-2.377 2.291-4.297 4.663-4.297h27.698c2.372 0 4.114 1.92 3.913 4.297l-2.144 24.637c-.201 2.376-2.292 4.296-4.663 4.296Z" opacity=".4"/><path fill="#0052BF" d="M536.067 155.464h-73.552c-2.372 0-4.114-1.92-3.913-4.297l2.144-24.637c.201-2.377 2.291-4.297 4.663-4.297h73.553c2.371 0 4.113 1.92 3.912 4.297l-2.144 24.637c-.201 2.377-2.291 4.297-4.663 4.297ZM242.701 191.379c-11.175 0-20.488-3.961-27.081-11.547-8.482-9.76-9.769-21.871-3.337-31.605 9.514-14.433 34.358-22.14 50.692-20.005a.61.61 0 0 1 .51.751.758.758 0 0 1-.804.578c-15.933-2.081-40.08 5.357-49.299 19.334-7.249 11.009-3.055 22.717 3.283 30.008 8.857 10.19 20.944 11.613 29.52 11.009 16.335-1.141 34.237-10.499 44.528-23.268 2.881-3.571 7.303-10.432 4.597-16.178-4.007-8.499-17.38-7.922-28.583-6.472a.604.604 0 0 1-.696-.577.75.75 0 0 1 .643-.752c7.477-.967 24.977-3.236 29.868 7.143 3.015 6.391-1.715 13.789-4.797 17.615-10.546 13.091-28.863 22.664-45.573 23.832-1.166.08-2.332.121-3.457.121l-.014.013Z"/><path fill="#fff" d="M466.293 231.121h-.12a1.207 1.207 0 0 1-.992-.671c-2.01-4.122-3.739-6.781-5.615-8.633-.509-.497-.468-1.343.068-1.893.549-.551 1.393-.591 1.902-.094 1.809 1.785 3.457 4.175 5.266 7.653 4.288-4.458 9.287-8.822 14.915-12.997.616-.47 1.46-.363 1.862.215.416.577.242 1.423-.375 1.879-6.07 4.512-11.403 9.238-15.839 14.058-.281.309-.67.483-1.072.483Z"/><path fill="#0052BF" d="M416.969 320.057c-8.295 0-14.459-6.767-13.735-15.078.723-8.311 8.066-15.077 16.361-15.077 8.294 0 14.458 6.766 13.735 15.077-.724 8.311-8.067 15.078-16.361 15.078Zm2.385-27.47c-6.821 0-12.851 5.558-13.44 12.392-.59 6.834 4.475 12.393 11.282 12.393s12.851-5.559 13.44-12.393c.59-6.834-4.475-12.392-11.282-12.392ZM288.128 236.841c-8.295 0-14.459-6.767-13.735-15.078.723-8.311 8.066-15.078 16.361-15.078s14.459 6.767 13.735 15.078c-.724 8.311-8.067 15.078-16.361 15.078Zm2.385-27.471c-6.821 0-12.851 5.559-13.44 12.393-.59 6.834 4.475 12.392 11.282 12.392 6.808 0 12.851-5.558 13.441-12.392.589-6.834-4.476-12.393-11.283-12.393Z"/><path fill="#000" d="M314.284 272.944H175.058c-5.521 0-9.661-4.538-9.179-10.07.482-5.531 5.4-10.069 10.921-10.069h139.226c5.521 0 9.661 4.538 9.179 10.069-.482 5.532-5.4 10.07-10.921 10.07Z" opacity=".1"/></g><defs><clipPath id="a"><path fill="#fff" d="M0 0h670v460H0z"/></clipPath></defs></svg>