<svg xmlns="http://www.w3.org/2000/svg" width="648" height="478" fill="none"><g clip-path="url(#a)"><path fill="#F5F5F5" d="M631.826 0H113.79c-8.933 0-16.174 7.232-16.174 16.154v334.145c0 8.922 7.241 16.154 16.174 16.154h518.036c8.932 0 16.174-7.232 16.174-16.154V16.154C648 7.232 640.758 0 631.826 0Z"/><path fill="#E0E0E0" d="M621.354 8.958H122.745c-8.933 0-16.174 7.232-16.174 16.154V340.35c0 8.921 7.241 16.153 16.174 16.153h498.609c8.933 0 16.174-7.232 16.174-16.153V25.111c0-8.92-7.241-16.153-16.174-16.153Z"/><path fill="#fff" d="M625.014 115.931H114.563v191.996h510.451V115.931Z"/><path fill="#F5F5F5" d="M534.21 111.547H16.174C7.242 111.547 0 118.779 0 127.701v334.145C0 470.768 7.242 478 16.174 478H534.21c8.933 0 16.174-7.232 16.174-16.154V127.701c0-8.922-7.241-16.154-16.174-16.154Z"/><path fill="#E0E0E0" d="M523.753 120.505H25.144c-8.933 0-16.174 7.232-16.174 16.154v315.239c0 8.921 7.241 16.153 16.174 16.153h498.609c8.933 0 16.174-7.232 16.174-16.153V136.659c0-8.922-7.241-16.154-16.174-16.154Z"/><path fill="#fff" d="M527.413 227.478H16.962v191.995h510.451V227.478Z"/><path fill="#F5F5F5" d="M590.595 52.452H72.559c-8.933 0-16.174 7.233-16.174 16.154v334.146c0 8.921 7.241 16.153 16.174 16.153h518.036c8.933 0 16.174-7.232 16.174-16.153V68.606c0-8.921-7.241-16.154-16.174-16.154Z"/><path fill="#0052BF" d="M580.123 61.396H81.514c-8.933 0-16.174 7.232-16.174 16.154v315.239c0 8.921 7.241 16.153 16.174 16.153h498.609c8.933 0 16.174-7.232 16.174-16.153V77.549c0-8.92-7.241-16.153-16.174-16.153Z"/><path fill="#fff" d="M583.783 168.384H73.332v191.995h510.451V168.384Zm-302.837-65.853v35.934h-8.328v-14.741h-16.349v14.741h-8.328v-35.934h8.328v14.172h16.349v-14.172h8.328Zm36.418 29.263v6.671h-27.857v-35.934h27.201v6.671h-18.917v7.807h16.715v6.468h-16.715v8.317h19.588-.015ZM324 102.531h8.328v29.161h18.042v6.773H324v-35.934Zm31.051 0h8.328v29.161h18.042v6.773h-26.37v-35.934Zm28.178 17.974c0-10.677 8.328-18.586 19.689-18.586 11.362 0 19.69 7.851 19.69 18.586s-8.386 18.586-19.69 18.586c-11.303 0-19.689-7.909-19.689-18.586Zm30.949 0c0-6.831-4.828-11.507-11.26-11.507-6.431 0-11.259 4.676-11.259 11.507 0 6.831 4.828 11.507 11.259 11.507 6.432 0 11.26-4.676 11.26-11.507Z"/><path fill="#263238" d="M221.2 318.196c-.7-.073-1.443 0-2.129.058.058-.393-.554-.656-.642-.452-.364.816-.991.423-1.458.306-1.094-.189-2.159-.51-3.136-1.471 1.429-.058 2.392 1.53 3.967.816-1.881-1.049-3.573-2.141-5.411-3.015-1.983-.976-2.64-2.185-2.275-4.428.656-4.195 2.552-7.764 5.615-10.75 2.582-2.506 5.163-5.026 7.963-7.327a289.92 289.92 0 0 1 26.953-19.489c3.734-2.389 7.555-4.618 11.303-6.89.861-.466 1.298-1.165 1.794-1.996 1.152-2.01 1.765-4.311 2.917-6.336 1.459-2.447 1.429-5.2 2.173-7.764a116.66 116.66 0 0 0 1.109-4.136c.248-.729.364-1.501.7-2.127.831-1.704 1.735-3.438 2.815-5.506.058.743.131 1.107.116 1.428.613-.102.861-1.209 1.721-.554a5.4 5.4 0 0 0 .438-1.078l-.729.131c.014-.247 0-.437.014-.626.117-.772.423-1.515 1.357-1.544.495-.029 1.093.131 1.618.277.205.087.263.451.365.684-.306.364-.642.67-1.108 1.195.612-.044.991-.102 1.473-.19.102.612 0 1.122-.394 1.705-.773 1.005-1.663 2.039-2.086 3.175-2.319 6.234-4.55 12.57-6.796 18.848-.059.073-.029.19.029.496.248-.044.642.072.875-.029 2.436-.802 4.798-1.646 7.161-2.491l6.33-2.214c-.219-.219-.511-.408-.802-.612 2.348-.976 4.477-.961 7.657 0-.175.845-.263 1.733-.438 2.578l-1.487.452c-.584-.088-1.255-.729-2.188 0 .35.189.612.276.889.407.219.219.453.423.73.627-1.561.073-3.048.145-4.536.277-2.115.116-4.098.961-6.097 1.806-2.814 1.165-5.644 2.607-8.415 3.962-.408.189-.656.553-1.035.874-.496.029-.773.262-.671.801-1.225 1.646-1.576 3.598-2.13 5.506-1.721 5.622-3.252 11.347-4.9 17.071-.204.656-.321 1.369-.598 1.981-.409.889-.7 1.005-1.998.787-.19-.787-.452-1.559-.744-2.506l-1.313 1.107c-.423-.99-.131-1.864.044-2.636l4.259-15.659c.204-.597.364-1.194.627-2.17-1.298.845-2.319 1.457-3.282 2.069-8.663 5.811-17.326 11.565-25.508 17.989-4.201 3.292-8.489 6.481-12.12 10.487-1.911 2.025-3.734 4.152-4.799 6.773-.16.525-.306 1.122-.481 1.588.408.932 1.211 1.165 1.954 1.486 2.699 1.107 5.586 1.107 8.445.932 5.644-.408 11.114-1.792 16.539-3.408 1.079-.306 2.188-.758 3.34-1.02.54-.16 1.108-.131 1.663-.16a.464.464 0 0 0 .32.073c-.277.233-.481.524-.962.976 1.385-.365 2.479-.554 3.529-.991 2.349-.961 4.682-1.937 7.147-2.607.846-.204 1.313-.729 1.313-1.486 2.566-1.136 5.09-2.127 7.511-3.365.583-.291 1.225-.524 1.794-.874a23.89 23.89 0 0 1 1.983-1.223c.686-.364 1.444-.685 2.202-1.064.7-.306 1.444-.684 2.217-1.005a27.96 27.96 0 0 1 2.203-1.063 27.766 27.766 0 0 1 2.202-1.063l2.129-1.122a27.96 27.96 0 0 0 2.203-1.063c5.586-2.899 11.201-5.681 16.612-8.813 8.736-5.01 17.224-10.356 25.45-16.168 5.834-4.006 11.143-8.565 16.262-13.445 2.917-2.753 5.455-5.826 7.336-9.467.788-1.574 1.444-3.263 1.575-5.099.204-2.112-.408-3.816-2.202-5.141-2.538-1.952-5.469-3.001-8.518-3.919-1.721-.524-3.558-.582-5.221-1.485-.35-.19-.992.043-1.619.087-.029-.175 0-.379 0-.816l-1.838-.058c-2.391-.029-4.783-.058-7.175-.146-4.171-.16-8.343-.378-12.47-.611-1.006 0-1.969-.161-2.99-.233-1.779-.132-3.573.058-5.353.233-4.244.48-8.532.772-12.863 1.092-6.753.539-13.462 1.631-20.171 2.782-8.357 1.442-16.583 3.234-24.736 5.448-6.111 1.675-12.105 3.656-17.968 6.103a32.01 32.01 0 0 0-3.748 1.894c-.744.437-1.444 1.121-1.984 1.602-.102 1.209 1.094 1.937.219 3.088-.306-.321-.598-.583-1.007-1.078-.306.743-.656 1.311-.845 1.966-.175.088-.351.117-.584.292-.875-1.034-1.969-1.923-2.45-3.278-.306-1.019-.263-1.893.335-2.811 1.138-1.762 2.669-3.088 4.434-4.151 3.967-2.506 8.226-4.297 12.718-5.579 1.444-.379 2.815-1.107 4.259-1.544 4.492-1.267 9.028-2.549 13.607-3.714 7.978-2.127 16.131-3.584 24.269-4.807 8.795-1.384 17.677-2.287 26.545-2.564 3.442-.087 6.854.073 10.311.102 1.254-.029 2.436.641 3.704.364.555-.087 1.138.059 1.634-.349.335-.248.919-.16 1.356-.117 5.061.262 10.093.641 15.081 1.544 1.546.233 3.077.729 4.594 1.151 1.707.451 3.428.976 5.046 1.631 1.474.554 2.859 1.268 4.23 1.967 3.107 1.66 4.813 4.253 5.28 7.734.277 1.588.714 3.074.569 4.734-.263 3.554-1.765 6.511-3.676 9.279-2.873 4.064-6.359 7.545-10.049 10.881-7.686 6.773-16.014 12.658-24.662 18.222-3.851 2.418-7.716 4.719-11.581 7.064-.233.102-.466.204-.714.19l.977-.918c-.379 0-.642-.073-.759 0-1.05.816-2.1 1.617-3.165 2.36-.889.655-1.691 1.486-2.596 2.01-11.624 6.511-23.51 12.512-35.791 17.698-3.748 1.587-7.496 3.102-11.347 4.457-1.764.685-3.66 1.005-5.454 1.5-.19-.408-.365-.626-.467-.859-1.546.83-3.034 1.719-4.609 2.418-5.061 2.316-10.442 3.117-15.912 3.423-.991.044-1.998-.277-2.946-.364h.029Zm22.753-6.672c-1.153-.116-1.853.19-2.246 1.195l2.246-1.195Zm33.982-13.24c5.105-2.447 10.136-4.938 15.227-7.443.583-.233 1.181-.452 1.75-.802a339.256 339.256 0 0 0 5.571-4.093c.058 0 .044-.131.073-.262l-1.211.204c.175-.408.38-.699.511-1.034-.175.029-.452-.044-.554.029-8.255 5.302-16.51 10.488-25.363 14.887 1.371-.423 2.727-.903 4.011-1.501l-.015.015Zm24.823-74.345c-3.733.204-7.409.335-11.113.655-1.605.146-3.165.539-5.061.874 1.692.335 15.08-.655 16.729-1.253-.278-.145-.423-.305-.555-.276Zm59.594 38.192c-.38.684-.555 1.529-.978 2.68 1.328-1.034 2.363-1.908 3.326-2.957 3.442-3.671 6.898-7.327 10.399-10.997l2.581-2.884c.321-.306.729-.496 1.109-.816l1.268 1.908c.759-.32 1.226-1.282 2.246-.83 1.357 1.34 1.08 2.957.788 4.559-.204 1.034-.525 2.039-.86 3.03l-3.34 11.172c-.117.393-.307.801-.467 1.267-.671-.583-.35-1.253-.248-1.835.175-.787.365-1.559.598-2.36.598-1.238 1.079-2.505 1.283-3.86-.671 1.18-1.604 2.345-1.283 3.86-.729.495-.831 1.34-1.079 2.127-.277.99-.54 1.966-.905 3.161l-1.166-.933c-.161.161-.38.321-.715.568-.292-.203-.569-.407-.919-.597.117-1.15.627-2.17.117-3.335-.117-.292.131-.714.248-1.107l1.896-6.089c.073-.32.131-.714.321-1.428l-4.595 4.618c-.189.029-.364.058-.539.16-.642-.073-.759 0-1.109.874.234-.102.584-.233.89-.277.525.102.788-.204.963-.597.51-.335 1.021-.612 1.823-1.063-2.275 2.84-4.711 5.069-7.161 7.254-1.298 1.165-2.699 2.156-4.084 3.204-1.721 1.297-3.661 1.326-5.615.903-.977-.204-1.473-.874-1.59-1.922-.306-2.142.029-4.21.831-6.104 1.007-2.17 2.028-4.297 3.238-6.321 2.596-4.268 5.601-8.23 9.203-11.74 1.298-1.224 2.83-2.185 4.463-2.899.7-.306 1.225-.903 1.896-1.398.671-.496 1.327-1.049 2.086-1.355 1.21-.583 2.217.116 3.165.888-.248-.014-.525-.102-.905-.16 0 .321-.073.641-.058 1.078.554-.029 1.123 0 1.634-.029 1.429 1.005 2.027 2.287 1.575 4.049-1.24.845-1.371.801-2.363-.218-.219.16-.511.335-.788.568-.218-.146-.481-.233-.7-.379-.146-.16-.248-.335-.496-.67-.729.495-1.473.889-2.071 1.428a287.093 287.093 0 0 0-6.169 5.695c-1.138 1.005-2.129 2.185-3.209 3.248-1.983 1.967-3.121 4.487-4.521 6.861h-.014Zm-1.313 5.87c-.35.189-.7.306-1.05.437 1.035.204 1.327.029 1.05-.437Zm.992-1.18c.379.058.656.131.904.16.073-.262.16-.524.379-1.063l-1.283.918v-.015Zm7.657-4.326s.145.102.16.218l.292-.495-.452.262v.015Zm39.962-14.333a948.858 948.858 0 0 0-1.035 12.906l-.234 2.986c-.029.568-.044 1.194.219 1.66.51 1.165.365 2.127-.438 3.278-.67.495-1.546.83-2.435.102-.219-.219-.54-.219-.802-.306-1.255-.35-1.648-.845-1.619-2.098l.466-6.788c.117-1.893.292-3.743.525-5.666.059-1.078 0-2.258.701-3.248.16-.16.218-.539.175-.787.131-.713.175-1.529.175-2.287-.059-.684-.278-1.267-.453-1.922-1.123 0-1.866.451-2.596.947-4.652 3.189-8.415 7.21-11.347 12.046-.233.422-.583.976-1.035 1.238-.846.524-1.415.175-1.517-.801-.029-1.253.073-2.52.161-3.788.102-2.651 1.05-5.2 1.808-7.705l1.108-3.394c-.116.015-.35.131-.656.175.744-2.258 1.415-4.501 2.815-6.569.423.247.627.393 1.065.757-.467.583-.875 1.092-1.284 1.661.861.976.832 2.243.788 3.495.685-1.5 1.473-2.753 2.144-4.311.102.233.219.524.262.772.044.248-.204.597-.146.655 1.007 1.078.219 1.967-.32 2.87-.321.684-.555 1.471-.613 2.243l3.004-2.214c-.131.714-.204.976-.291 1.559a49.48 49.48 0 0 0 2.508-1.442 4.62 4.62 0 0 0-.816-.365c1.764-3.627 5.731-3.117 7.569-1.238 1.459 1.501 2.334 3.35 2.159 5.579h-.015Zm-17.779-4.836c-.073.262-.248.423-.379.685-.044.131.044.247.073.422.394-.262.788-.568.306-1.121v.014Z"/><path fill="#263238" d="M415.877 252.925c-.379.685-.554 1.53-.977 2.68 1.327-1.048 2.363-1.908 3.326-2.957a1809.97 1809.97 0 0 1 10.398-10.997l2.582-2.884c.321-.306.729-.495 1.108-.816l1.269 1.908c.759-.32 1.225-1.281 2.246-.83 1.357 1.34 1.08 2.957.788 4.559-.19 1.035-.525 2.04-.861 3.03l-3.34 11.172c-.116.394-.306.801-.466 1.267-.671-.582-.336-1.252-.248-1.835.175-.786.364-1.573.598-2.36.598-1.238 1.079-2.505 1.283-3.86-.671 1.18-1.604 2.346-1.283 3.86-.729.496-.832 1.341-1.079 2.127-.263.991-.54 1.981-.905 3.161l-1.166-.932c-.161.16-.38.32-.715.568-.292-.204-.569-.408-.919-.597.117-1.151.627-2.171.117-3.336-.117-.291.131-.714.248-1.107l1.896-6.089c.073-.32.131-.713.321-1.427l-4.595 4.617c-.189.029-.364.059-.539.161-.642-.073-.759 0-1.109.873.234-.101.584-.233.89-.276.525.102.787-.204.962-.612.511-.335 1.021-.612 1.824-1.063-2.276 2.84-4.711 5.069-7.162 7.254-1.298 1.165-2.698 2.155-4.083 3.204-1.721 1.296-3.661 1.326-5.615.903-.978-.204-1.473-.874-1.59-1.923-.306-2.141.029-4.209.831-6.103 1.007-2.17 2.028-4.297 3.238-6.321 2.596-4.268 5.601-8.23 9.203-11.741 1.298-1.223 2.829-2.185 4.463-2.898.7-.306 1.225-.903 1.896-1.399.671-.495 1.327-1.034 2.086-1.354 1.21-.583 2.216.116 3.164.888-.247-.014-.525-.102-.904-.16 0 .32-.073.641-.058 1.078.554-.029 1.123 0 1.633-.029 1.43 1.005 2.028 2.287 1.576 4.049-1.24.845-1.371.801-2.363-.218-.219.16-.511.335-.788.568-.219-.146-.481-.233-.685-.379-.161-.16-.248-.335-.496-.67-.729.495-1.473.888-2.071 1.427-2.057 1.865-4.186 3.788-6.17 5.696-1.137 1.005-2.129 2.185-3.208 3.248-1.984 1.966-3.121 4.486-4.521 6.861l-.03.014Zm-1.312 5.87c-.35.19-.7.306-1.05.437 1.035.204 1.327.029 1.05-.437Zm.992-1.18c.379.059.656.132.904.161.087-.263.16-.525.379-1.064l-1.283.918v-.015Zm7.657-4.326s.145.102.16.219l.292-.495-.452.262v.014Z"/></g><defs><clipPath id="a"><path fill="#fff" d="M0 0h648v478H0z"/></clipPath></defs></svg>