<svg xmlns="http://www.w3.org/2000/svg" width="648" height="590" fill="none"><path fill="#0052BF" d="M632.88 349.328c-18.49 56.069-58.335 117.511-116.986 137.525-88.599 30.228-96.521 102.912-257.327 102.418-25.069-.069-48.343-2.701-69.821-7.499-11.541-2.577-22.575-5.798-33.061-9.596C60.452 537.795 8.285 456.064.842 368.726c-9.814-114.865 68.355-172.825 119.289-206.96C171.064 127.631 229.139.758 387.231.004c24.096-.11 48.247 2.262 71.767 7.663C512.673 19.99 567.911 49.71 601.081 94.99c2.495 3.4 4.879 6.895 7.168 10.446 44.752 69.64 49.851 167.438 24.631 243.877v.014Z"/><path fill="#fff" d="M632.88 349.328c-18.49 56.069-58.335 117.511-116.986 137.525-88.599 30.228-96.521 102.912-257.327 102.418-25.069-.069-48.343-2.701-69.821-7.499-11.541-2.577-22.575-5.798-33.061-9.596C60.452 537.795 8.285 456.064.842 368.726c-9.814-114.865 68.355-172.825 119.289-206.96C171.064 127.631 229.139.758 387.231.004c24.096-.11 48.247 2.262 71.767 7.663C512.673 19.99 567.911 49.71 601.081 94.99c2.495 3.4 4.879 6.895 7.168 10.446 44.752 69.64 49.851 167.438 24.631 243.877v.014Z" opacity=".7"/><path fill="#fff" stroke="#EFEFEF" d="M565.474 487.642H82.062c-27.055 0-48.984-21.929-48.984-48.984V149.383c0-27.055 21.929-48.984 48.984-48.984h483.412c27.055 0 48.984 21.929 48.984 48.984v289.29c0 27.04-21.929 48.969-48.984 48.969Z"/><path fill="#0052BF" d="M615.307 145.821c-3.167-22.961-18.806-45.922-49.089-45.922H84.303c-30.284 0-48.558 19.002-52.517 45.922h583.521Z"/><path fill="#9E9D97" d="M277.07 356.431h1.26l2.349 6.39h-1.278l-.594-1.593h-2.232l-.585 1.593h-1.278l2.358-6.39Zm1.512 3.924-.882-2.637-.918 2.637h1.8Zm4.348 2.556a3.37 3.37 0 0 1-1.152-.198 2.59 2.59 0 0 1-.945-.585l.432-.783c.282.228.558.396.828.504.276.108.54.162.792.162.234 0 .42-.042.558-.126a.41.41 0 0 0 .216-.378.31.31 0 0 0-.117-.261 1.006 1.006 0 0 0-.342-.171 13.097 13.097 0 0 0-.531-.162 8.252 8.252 0 0 1-.873-.333 1.342 1.342 0 0 1-.531-.405c-.114-.168-.171-.381-.171-.639 0-.312.078-.579.234-.801.162-.228.384-.405.666-.531a2.497 2.497 0 0 1 1.008-.189c.336 0 .654.054.954.162.3.102.573.27.819.504l-.486.765a2.79 2.79 0 0 0-.684-.405 1.694 1.694 0 0 0-.657-.135 1.41 1.41 0 0 0-.36.045.601.601 0 0 0-.27.153c-.066.066-.099.162-.099.288 0 .114.03.204.09.27a.91.91 0 0 0 .288.162c.132.048.291.102.477.162.378.108.696.219.954.333.264.114.462.255.594.423.132.162.198.387.198.675 0 .468-.171.834-.513 1.098-.342.264-.801.396-1.377.396Zm4.447 0a3.37 3.37 0 0 1-1.152-.198 2.59 2.59 0 0 1-.945-.585l.432-.783c.282.228.558.396.828.504.276.108.54.162.792.162.234 0 .42-.042.558-.126a.41.41 0 0 0 .216-.378.31.31 0 0 0-.117-.261 1.006 1.006 0 0 0-.342-.171 13.097 13.097 0 0 0-.531-.162 8.252 8.252 0 0 1-.873-.333 1.342 1.342 0 0 1-.531-.405c-.114-.168-.171-.381-.171-.639 0-.312.078-.579.234-.801.162-.228.384-.405.666-.531a2.497 2.497 0 0 1 1.008-.189c.336 0 .654.054.954.162.3.102.573.27.819.504l-.486.765a2.79 2.79 0 0 0-.684-.405 1.694 1.694 0 0 0-.657-.135 1.41 1.41 0 0 0-.36.045.601.601 0 0 0-.27.153c-.066.066-.099.162-.099.288 0 .114.03.204.09.27a.91.91 0 0 0 .288.162c.132.048.291.102.477.162.378.108.696.219.954.333.264.114.462.255.594.423.132.162.198.387.198.675 0 .468-.171.834-.513 1.098-.342.264-.801.396-1.377.396Zm2.711-.09v-4.716h1.206v4.716h-1.206Zm0-5.373v-1.197h1.206v1.197h-1.206Zm6.677 5.373h-1.206v-2.646c0-.378-.066-.654-.198-.828a.65.65 0 0 0-.549-.261c-.162 0-.327.042-.495.126a1.518 1.518 0 0 0-.441.351 1.317 1.317 0 0 0-.288.504v2.754h-1.206v-4.716h1.089v.873c.12-.204.273-.375.459-.513.186-.144.399-.252.639-.324.246-.078.504-.117.774-.117.294 0 .534.054.72.162.192.102.336.243.432.423.102.174.171.372.207.594.042.222.063.447.063.675v2.943Zm.724-1.395c0-.306.084-.573.252-.801a1.66 1.66 0 0 1 .72-.54 2.747 2.747 0 0 1 1.053-.189c.198 0 .399.015.603.045.204.03.381.078.531.144v-.252c0-.3-.09-.531-.27-.693-.174-.162-.435-.243-.783-.243-.258 0-.504.045-.738.135-.234.09-.48.222-.738.396l-.387-.792c.312-.204.63-.357.954-.459.33-.102.675-.153 1.035-.153.672 0 1.194.168 1.566.504.378.336.567.816.567 1.44v1.503c0 .126.021.216.063.27.048.054.123.087.225.099v.981a9.276 9.276 0 0 1-.297.045 1.562 1.562 0 0 1-.216.018c-.24 0-.423-.054-.549-.162a.697.697 0 0 1-.225-.396l-.027-.243a2.062 2.062 0 0 1-.765.612 2.177 2.177 0 0 1-.936.216c-.312 0-.594-.063-.846-.189a1.564 1.564 0 0 1-.585-.531 1.448 1.448 0 0 1-.207-.765Zm2.934.243c.066-.072.12-.144.162-.216a.4.4 0 0 0 .063-.198v-.477c-.144-.06-.3-.105-.468-.135a2.28 2.28 0 0 0-.477-.054c-.312 0-.57.069-.774.207a.61.61 0 0 0-.297.531c0 .12.033.234.099.342a.718.718 0 0 0 .288.261.958.958 0 0 0 .45.099c.18 0 .357-.033.531-.099.174-.072.315-.159.423-.261Zm5.34.909c-.102.042-.225.09-.369.144-.144.054-.3.096-.468.126a2.275 2.275 0 0 1-.495.054c-.222 0-.426-.039-.612-.117a1.001 1.001 0 0 1-.45-.369c-.108-.174-.162-.399-.162-.675v-2.709h-.621v-.927h.621v-1.53h1.206v1.53h.99v.927h-.99v2.304c.006.162.051.279.135.351a.467.467 0 0 0 .315.108c.126 0 .249-.021.369-.063.12-.042.216-.078.288-.108l.243.954Zm.583-1.521v-2.952h1.206v2.691c0 .36.066.633.198.819.132.18.327.27.585.27.156 0 .309-.03.459-.09.156-.066.297-.162.423-.288.132-.126.243-.285.333-.477v-2.925h1.206v3.366c0 .126.021.216.063.27.048.054.123.087.225.099v.981c-.12.018-.222.03-.306.036-.078.012-.15.018-.216.018a.91.91 0 0 1-.531-.144.606.606 0 0 1-.234-.414l-.027-.378a2.1 2.1 0 0 1-.81.729c-.33.162-.693.243-1.089.243-.486 0-.855-.156-1.107-.468-.252-.318-.378-.78-.378-1.386Zm8.417-1.908c-.366 0-.693.072-.981.216a1.266 1.266 0 0 0-.621.603v2.853h-1.206v-4.716h1.107v1.008c.168-.324.381-.579.639-.765.258-.186.531-.288.819-.306h.153c.036 0 .066.003.09.009v1.098Zm.322 2.277c0-.306.084-.573.252-.801a1.66 1.66 0 0 1 .72-.54 2.747 2.747 0 0 1 1.053-.189c.198 0 .399.015.603.045.204.03.381.078.531.144v-.252c0-.3-.09-.531-.27-.693-.174-.162-.435-.243-.783-.243-.258 0-.504.045-.738.135-.234.09-.48.222-.738.396l-.387-.792c.312-.204.63-.357.954-.459.33-.102.675-.153 1.035-.153.672 0 1.194.168 1.566.504.378.336.567.816.567 1.44v1.503c0 .126.021.216.063.27.048.054.123.087.225.099v.981a9.276 9.276 0 0 1-.297.045 1.562 1.562 0 0 1-.216.018c-.24 0-.423-.054-.549-.162a.697.697 0 0 1-.225-.396l-.027-.243a2.062 2.062 0 0 1-.765.612 2.177 2.177 0 0 1-.936.216c-.312 0-.594-.063-.846-.189a1.564 1.564 0 0 1-.585-.531 1.448 1.448 0 0 1-.207-.765Zm2.934.243c.066-.072.12-.144.162-.216a.4.4 0 0 0 .063-.198v-.477c-.144-.06-.3-.105-.468-.135a2.28 2.28 0 0 0-.477-.054c-.312 0-.57.069-.774.207a.61.61 0 0 0-.297.531c0 .12.033.234.099.342a.718.718 0 0 0 .288.261.958.958 0 0 0 .45.099c.18 0 .357-.033.531-.099.174-.072.315-.159.423-.261Z"/><path fill="#F5D028" fill-opacity=".4" d="M566.835 388.096H275.202v62.643h291.633v-62.643Z"/><path stroke="#BEBEBA" stroke-miterlimit="10" d="M275.202 344.249h32.366"/><path fill="#9E9D97" d="M93.772 350.445a2.899 2.899 0 0 1 .736-1.928c.24-.277.534-.496.88-.656a2.723 2.723 0 0 1 1.184-.248c.523 0 .974.115 1.352.344.384.229.67.528.856.896l-.848.584a1.323 1.323 0 0 0-.376-.504 1.32 1.32 0 0 0-.496-.264 1.798 1.798 0 0 0-.52-.08c-.277 0-.52.056-.728.168a1.633 1.633 0 0 0-.512.44 1.928 1.928 0 0 0-.312.608 2.436 2.436 0 0 0-.096.672c0 .251.04.493.12.728.08.229.192.435.336.616.15.176.326.317.528.424.208.101.435.152.68.152.176 0 .355-.029.536-.088.182-.059.35-.152.504-.28.155-.128.275-.293.36-.496l.904.52a1.678 1.678 0 0 1-.552.72c-.25.197-.533.347-.848.448a3.05 3.05 0 0 1-.936.152 2.49 2.49 0 0 1-1.112-.248 2.926 2.926 0 0 1-.872-.672 3.4 3.4 0 0 1-.568-.944 2.986 2.986 0 0 1-.2-1.064Zm5.829 2.88v-5.68h2.408c.261 0 .501.053.72.16.218.107.408.251.568.432.165.181.293.384.384.608.09.224.136.453.136.688 0 .32-.075.624-.224.912-.15.288-.355.523-.616.704a1.592 1.592 0 0 1-.928.272h-1.344v1.904h-1.104Zm1.104-2.872h1.28a.612.612 0 0 0 .36-.112.781.781 0 0 0 .256-.32 1.19 1.19 0 0 0 .096-.488 1.06 1.06 0 0 0-.112-.504.731.731 0 0 0-.28-.312.69.69 0 0 0-.368-.104h-1.232v1.84Zm3.88 2.872v-5.68h3.816v.968h-2.712v1.464h2.256v.896h-2.256v2.352h-1.104Zm4.515-2.992v-1.152h.872v1.152h-.872Zm0 2.992v-1.152h.872v1.152h-.872Zm5.944-2.344c0 .469-.09.888-.272 1.256a2.096 2.096 0 0 1-.736.856 1.847 1.847 0 0 1-1.056.312c-.394 0-.749-.104-1.064-.312a2.188 2.188 0 0 1-.736-.856 2.877 2.877 0 0 1-.264-1.256c0-.469.088-.885.264-1.248.182-.368.427-.656.736-.864.315-.213.67-.32 1.064-.32.395 0 .747.107 1.056.32.315.208.56.496.736.864.182.363.272.779.272 1.248Zm-1.08 0c0-.288-.042-.539-.128-.752a1.154 1.154 0 0 0-.344-.512.782.782 0 0 0-.512-.184.795.795 0 0 0-.52.184 1.227 1.227 0 0 0-.352.512c-.08.213-.12.464-.12.752s.04.539.12.752c.086.213.203.381.352.504.15.123.323.184.52.184.192 0 .36-.061.504-.184a1.22 1.22 0 0 0 .352-.504c.086-.219.128-.469.128-.752Zm5.994 0c0 .469-.09.888-.272 1.256a2.096 2.096 0 0 1-.736.856 1.847 1.847 0 0 1-1.056.312c-.394 0-.749-.104-1.064-.312a2.188 2.188 0 0 1-.736-.856 2.877 2.877 0 0 1-.264-1.256c0-.469.088-.885.264-1.248.182-.368.427-.656.736-.864.315-.213.67-.32 1.064-.32.395 0 .747.107 1.056.32.315.208.56.496.736.864.182.363.272.779.272 1.248Zm-1.08 0c0-.288-.042-.539-.128-.752a1.154 1.154 0 0 0-.344-.512.782.782 0 0 0-.512-.184.795.795 0 0 0-.52.184 1.227 1.227 0 0 0-.352.512c-.08.213-.12.464-.12.752s.04.539.12.752c.086.213.203.381.352.504.15.123.323.184.52.184.192 0 .36-.061.504-.184a1.22 1.22 0 0 0 .352-.504c.086-.219.128-.469.128-.752Zm5.995 0c0 .469-.091.888-.272 1.256a2.103 2.103 0 0 1-.736.856c-.31.208-.662.312-1.056.312-.395 0-.75-.104-1.064-.312a2.172 2.172 0 0 1-.736-.856 2.877 2.877 0 0 1-.264-1.256c0-.469.088-.885.264-1.248.181-.368.426-.656.736-.864.314-.213.669-.32 1.064-.32.394 0 .746.107 1.056.32.314.208.56.496.736.864.181.363.272.779.272 1.248Zm-1.08 0c0-.288-.043-.539-.128-.752a1.163 1.163 0 0 0-.344-.512.784.784 0 0 0-.512-.184.791.791 0 0 0-.52.184 1.21 1.21 0 0 0-.352.512c-.08.213-.12.464-.12.752s.04.539.12.752c.085.213.202.381.352.504a.791.791 0 0 0 .52.184c.192 0 .36-.061.504-.184.149-.123.266-.291.352-.504.085-.219.128-.469.128-.752Zm5.994 0c0 .469-.091.888-.272 1.256a2.103 2.103 0 0 1-.736.856c-.31.208-.662.312-1.056.312-.395 0-.75-.104-1.064-.312a2.172 2.172 0 0 1-.736-.856 2.877 2.877 0 0 1-.264-1.256c0-.469.088-.885.264-1.248.181-.368.426-.656.736-.864.314-.213.669-.32 1.064-.32.394 0 .746.107 1.056.32.314.208.56.496.736.864.181.363.272.779.272 1.248Zm-1.08 0c0-.288-.043-.539-.128-.752a1.163 1.163 0 0 0-.344-.512.784.784 0 0 0-.512-.184.791.791 0 0 0-.52.184 1.21 1.21 0 0 0-.352.512c-.08.213-.12.464-.12.752s.04.539.12.752c.085.213.202.381.352.504a.791.791 0 0 0 .52.184c.192 0 .36-.061.504-.184.149-.123.266-.291.352-.504.085-.219.128-.469.128-.752Zm5.994 0c0 .469-.091.888-.272 1.256a2.103 2.103 0 0 1-.736.856c-.31.208-.662.312-1.056.312-.395 0-.75-.104-1.064-.312a2.172 2.172 0 0 1-.736-.856 2.877 2.877 0 0 1-.264-1.256c0-.469.088-.885.264-1.248.181-.368.426-.656.736-.864.314-.213.669-.32 1.064-.32.394 0 .746.107 1.056.32.314.208.56.496.736.864.181.363.272.779.272 1.248Zm-1.08 0c0-.288-.043-.539-.128-.752a1.163 1.163 0 0 0-.344-.512.784.784 0 0 0-.512-.184.791.791 0 0 0-.52.184 1.21 1.21 0 0 0-.352.512c-.08.213-.12.464-.12.752s.04.539.12.752c.085.213.202.381.352.504a.791.791 0 0 0 .52.184c.192 0 .36-.061.504-.184.149-.123.266-.291.352-.504.085-.219.128-.469.128-.752Zm5.994 0c0 .469-.091.888-.272 1.256a2.103 2.103 0 0 1-.736.856c-.31.208-.662.312-1.056.312-.395 0-.75-.104-1.064-.312a2.172 2.172 0 0 1-.736-.856 2.877 2.877 0 0 1-.264-1.256c0-.469.088-.885.264-1.248.181-.368.426-.656.736-.864.314-.213.669-.32 1.064-.32.394 0 .746.107 1.056.32.314.208.56.496.736.864.181.363.272.779.272 1.248Zm-1.08 0c0-.288-.043-.539-.128-.752a1.163 1.163 0 0 0-.344-.512.784.784 0 0 0-.512-.184.791.791 0 0 0-.52.184 1.21 1.21 0 0 0-.352.512c-.08.213-.12.464-.12.752s.04.539.12.752c.085.213.202.381.352.504a.791.791 0 0 0 .52.184c.192 0 .36-.061.504-.184.149-.123.266-.291.352-.504.085-.219.128-.469.128-.752Zm5.994 0c0 .469-.091.888-.272 1.256a2.103 2.103 0 0 1-.736.856c-.31.208-.662.312-1.056.312-.395 0-.75-.104-1.064-.312a2.172 2.172 0 0 1-.736-.856 2.877 2.877 0 0 1-.264-1.256c0-.469.088-.885.264-1.248.181-.368.426-.656.736-.864.314-.213.669-.32 1.064-.32.394 0 .746.107 1.056.32.314.208.56.496.736.864.181.363.272.779.272 1.248Zm-1.08 0c0-.288-.043-.539-.128-.752a1.163 1.163 0 0 0-.344-.512.784.784 0 0 0-.512-.184.791.791 0 0 0-.52.184 1.21 1.21 0 0 0-.352.512c-.08.213-.12.464-.12.752s.04.539.12.752c.085.213.202.381.352.504a.791.791 0 0 0 .52.184c.192 0 .36-.061.504-.184.149-.123.266-.291.352-.504.085-.219.128-.469.128-.752Zm5.994 0c0 .469-.091.888-.272 1.256a2.096 2.096 0 0 1-.736.856 1.847 1.847 0 0 1-1.056.312c-.395 0-.749-.104-1.064-.312a2.18 2.18 0 0 1-.736-.856 2.877 2.877 0 0 1-.264-1.256c0-.469.088-.885.264-1.248a2.17 2.17 0 0 1 .736-.864c.315-.213.669-.32 1.064-.32s.747.107 1.056.32c.315.208.56.496.736.864.181.363.272.779.272 1.248Zm-1.08 0c0-.288-.043-.539-.128-.752a1.163 1.163 0 0 0-.344-.512.782.782 0 0 0-.512-.184.793.793 0 0 0-.52.184 1.218 1.218 0 0 0-.352.512c-.08.213-.12.464-.12.752s.04.539.12.752c.085.213.203.381.352.504a.793.793 0 0 0 .52.184c.192 0 .36-.061.504-.184.149-.123.267-.291.352-.504.085-.219.128-.469.128-.752Zm-50.355 60.853a3 3 0 0 1-.152.976 2.42 2.42 0 0 1-.424.768 1.971 1.971 0 0 1-.648.504 1.82 1.82 0 0 1-.8.176 1.89 1.89 0 0 1-.816-.176 2 2 0 0 1-.64-.504 2.515 2.515 0 0 1-.416-.768 3.018 3.018 0 0 1-.152-.976c0-.352.05-.674.152-.968.101-.298.24-.554.416-.768.181-.218.394-.389.64-.512a1.84 1.84 0 0 1 .816-.184c.288 0 .555.062.8.184.25.123.466.294.648.512.181.214.322.47.424.768.101.294.152.616.152.968Zm-.712 0a2.56 2.56 0 0 0-.096-.72 1.721 1.721 0 0 0-.272-.56 1.243 1.243 0 0 0-.416-.368 1.108 1.108 0 0 0-.528-.128c-.197 0-.379.043-.544.128a1.24 1.24 0 0 0-.416.368c-.112.155-.2.342-.264.56a2.56 2.56 0 0 0-.096.72c0 .267.032.51.096.728.064.214.152.398.264.552.117.155.256.275.416.36.165.086.347.128.544.128.192 0 .368-.042.528-.128a1.26 1.26 0 0 0 .416-.36c.117-.154.208-.338.272-.552.064-.218.096-.461.096-.728Zm3.906 3.36v-1.352h-2.568v-.624l2.792-3.608h.48v3.592h.704v.64h-.704v1.352h-.704Zm-1.84-1.992h1.912v-2.504l-1.912 2.504Zm8.381-4.704-3.84 5.68h-.784l3.832-5.68h.792Zm4.359 3.336c0 .352-.051.678-.152.976-.102.294-.243.55-.424.768a1.986 1.986 0 0 1-.648.504 1.823 1.823 0 0 1-.8.176c-.294 0-.566-.058-.816-.176a1.987 1.987 0 0 1-.64-.504 2.507 2.507 0 0 1-.416-.768 3 3 0 0 1-.152-.976c0-.352.05-.674.152-.968.101-.298.24-.554.416-.768a1.836 1.836 0 0 1 1.456-.696c.288 0 .554.062.8.184.25.123.466.294.648.512.181.214.322.47.424.768.101.294.152.616.152.968Zm-.712 0a2.56 2.56 0 0 0-.096-.72 1.73 1.73 0 0 0-.272-.56 1.25 1.25 0 0 0-.416-.368 1.108 1.108 0 0 0-.528-.128 1.17 1.17 0 0 0-.544.128 1.24 1.24 0 0 0-.416.368c-.112.155-.2.342-.264.56a2.56 2.56 0 0 0-.096.72c0 .267.032.51.096.728.064.214.152.398.264.552a1.157 1.157 0 0 0 .96.488c.192 0 .368-.042.528-.128a1.27 1.27 0 0 0 .416-.36c.117-.154.208-.338.272-.552.064-.218.096-.461.096-.728Zm3.394-.168c.261 0 .504.046.728.136.229.086.426.208.592.368.165.16.296.352.392.576.096.224.144.47.144.736 0 .283-.054.539-.16.768a1.734 1.734 0 0 1-.424.6 1.92 1.92 0 0 1-.64.384 2.24 2.24 0 0 1-.784.136c-.406 0-.771-.096-1.096-.288a1.88 1.88 0 0 1-.736-.768l.44-.384c.149.246.346.443.592.592.25.15.52.224.808.224.181 0 .349-.032.504-.096.16-.058.296-.144.408-.256.117-.106.208-.237.272-.392.064-.154.096-.325.096-.512 0-.176-.032-.338-.096-.488a1.154 1.154 0 0 0-.264-.384 1.13 1.13 0 0 0-.384-.248 1.32 1.32 0 0 0-.48-.088c-.23 0-.446.051-.648.152-.198.102-.36.246-.488.432h-.632l.04-.2c.021-.112.048-.245.08-.4l.104-.528.112-.584.304-1.544h2.76v.648h-2.24l-.344 1.808c.117-.122.264-.218.44-.288.176-.074.376-.112.6-.112Zm6.974-3.168-3.84 5.68h-.784l3.832-5.68h.792Zm.364 5.68c0-.213.016-.413.048-.6.037-.186.104-.365.2-.536a2.05 2.05 0 0 1 .392-.488c.17-.154.392-.309.664-.464.16-.085.322-.168.488-.248a4.31 4.31 0 0 0 .448-.264c.138-.096.25-.197.336-.304a.564.564 0 0 0 .136-.376.647.647 0 0 0-.064-.272.742.742 0 0 0-.184-.24.94.94 0 0 0-.304-.168 1.213 1.213 0 0 0-.408-.064c-.16 0-.307.024-.44.072a1.393 1.393 0 0 0-.344.168c-.102.064-.19.134-.264.208a2.925 2.925 0 0 0-.184.2l-.456-.512c.042-.048.114-.112.216-.192a2.43 2.43 0 0 1 .384-.256c.154-.085.333-.157.536-.216.202-.064.429-.096.68-.096.245 0 .466.035.664.104.197.064.362.155.496.272.138.118.245.256.32.416.074.155.112.32.112.496 0 .208-.046.39-.136.544a1.656 1.656 0 0 1-.336.408 2.274 2.274 0 0 1-.416.304c-.15.08-.283.15-.4.208a8.42 8.42 0 0 0-.4.216 3.03 3.03 0 0 0-.416.28 1.946 1.946 0 0 0-.352.344.965.965 0 0 0-.184.416h2.728v.64h-3.56Zm8.417-2.344c0 .352-.051.678-.152.976-.101.294-.243.55-.424.768a1.965 1.965 0 0 1-.648.504 1.82 1.82 0 0 1-.8.176c-.293 0-.565-.058-.816-.176a1.998 1.998 0 0 1-.64-.504 2.507 2.507 0 0 1-.416-.768 3.026 3.026 0 0 1-.152-.976c0-.352.051-.674.152-.968.101-.298.24-.554.416-.768.181-.218.395-.389.64-.512.251-.122.523-.184.816-.184.288 0 .555.062.8.184.251.123.467.294.648.512.181.214.323.47.424.768.101.294.152.616.152.968Zm-.712 0a2.56 2.56 0 0 0-.096-.72 1.73 1.73 0 0 0-.272-.56 1.24 1.24 0 0 0-.416-.368 1.108 1.108 0 0 0-.528-.128c-.197 0-.379.043-.544.128a1.24 1.24 0 0 0-.416.368c-.112.155-.2.342-.264.56a2.56 2.56 0 0 0-.096.72c0 .267.032.51.096.728.064.214.152.398.264.552.117.155.256.275.416.36.165.086.347.128.544.128.192 0 .368-.042.528-.128a1.26 1.26 0 0 0 .416-.36c.117-.154.208-.338.272-.552.064-.218.096-.461.096-.728Zm4.554 1.704v.64h-2.872v-.64h1.136v-3.12a1.076 1.076 0 0 1-.224.208 2.813 2.813 0 0 1-.728.352 1.165 1.165 0 0 1-.352.064v-.672a.979.979 0 0 0 .392-.096 3.24 3.24 0 0 0 .744-.488.855.855 0 0 0 .168-.176h.72v3.928h1.016Zm.482-1.968a1.886 1.886 0 0 1 .584-1.384 2.038 2.038 0 0 1 1.448-.576c.304 0 .581.056.832.168.256.112.474.275.656.488.181.208.32.464.416.768.101.299.152.64.152 1.024 0 .56-.051 1.051-.152 1.472a3.241 3.241 0 0 1-.432 1.04 1.842 1.842 0 0 1-.672.632 1.83 1.83 0 0 1-.872.208c-.368 0-.704-.088-1.008-.264a1.851 1.851 0 0 1-.704-.744l.432-.424c.117.251.29.448.52.592.229.15.485.224.768.224.437 0 .786-.194 1.048-.584.261-.389.397-.936.408-1.64a1.432 1.432 0 0 1-.568.664c-.262.166-.56.248-.896.248-.272 0-.528-.048-.768-.144a1.996 1.996 0 0 1-.624-.408 1.853 1.853 0 0 1-.416-.608 1.862 1.862 0 0 1-.152-.752Zm2.024-1.352a1.373 1.373 0 0 0-.952.4 1.437 1.437 0 0 0-.296.432c-.07.16-.104.334-.104.52 0 .187.034.363.104.528.074.16.173.302.296.424.122.118.264.214.424.288.165.07.341.104.528.104.186 0 .36-.034.52-.104a1.51 1.51 0 0 0 .432-.288 1.373 1.373 0 0 0 .4-.952c0-.181-.038-.354-.112-.52a1.362 1.362 0 0 0-.288-.432 1.362 1.362 0 0 0-.432-.288 1.263 1.263 0 0 0-.52-.112ZM94.12 394.416v-5.68h2.064c.618 0 1.136.128 1.552.384.416.251.728.592.936 1.024.208.427.312.901.312 1.424 0 .576-.115 1.077-.344 1.504-.23.427-.555.757-.976.992-.416.235-.91.352-1.48.352H94.12Zm3.752-2.848c0-.368-.067-.691-.2-.968a1.503 1.503 0 0 0-.576-.656c-.25-.16-.555-.24-.912-.24h-.96v3.744h.96c.362 0 .67-.08.92-.24.25-.165.44-.389.568-.672.133-.288.2-.611.2-.968Zm3.3-2.832h1.12l2.088 5.68h-1.136l-.528-1.416h-1.984l-.52 1.416h-1.136l2.096-5.68Zm1.344 3.488-.784-2.344-.816 2.344h1.6Zm6.203-2.52h-1.816v4.712h-1.096v-4.712h-1.816v-.968h4.728v.968Zm1.718-.968h1.12l2.088 5.68h-1.136l-.528-1.416h-1.984l-.52 1.416h-1.136l2.096-5.68Zm1.344 3.488-.784-2.344-.816 2.344h1.6Zm2.447-.8v-1.152h.872v1.152h-.872Zm0 2.992v-1.152h.872v1.152h-.872Z"/><path stroke="#BEBEBA" stroke-miterlimit="10" d="M95.079 435.601h27.996m-27.996-59.587h27.996"/><path fill="#BEBEBA" d="M191.119 321.114h-69.231c-18.29 0-33.254-14.964-33.254-33.253v-81.709c0-18.289 14.964-33.254 33.254-33.254h69.231c18.289 0 33.253 14.965 33.253 33.254v81.709c0 18.289-14.964 33.253-33.253 33.253ZM566.835 179.28H274.489v18.796h292.346V179.28Zm0 52.208H274.489v18.797h292.346v-18.797Zm0 52.209H274.489v18.796h292.346v-18.796Z"/></svg>