<svg xmlns="http://www.w3.org/2000/svg" width="648" height="597" fill="none"><g clip-path="url(#a)"><path fill="#EBEBEB" d="M229.446 20.26 26.821 283.4l544.953-135.433L268.23 10.492c-13.623-6.172-29.716-2.129-38.784 9.768Z"/><path fill="#E0E0E0" d="M23.947 285.274 228.552 19.557C238.003 7.193 254.5 3.043 268.698 9.47l306.46 138.817-551.21 136.987ZM254.904 8.725c-9.408 0-18.54 4.3-24.564 12.216L29.673 281.55l538.695-133.88L267.783 11.513a30.992 30.992 0 0 0-12.857-2.788h-.022Z"/><path fill="#F0F0F0" d="m26.8 283.413 546.85-135.906 73.675 296.303c3.035 12.206-4.416 24.583-16.625 27.617L128.099 596.336c-12.209 3.035-24.589-4.414-27.624-16.62L26.8 283.413Z"/><path fill="#fff" d="m539.993 163.737-189.449 193.51-286.429-64.44-32.76-151.841c-3.768-16.301 6.216-32.602 22.457-36.646L468.045 1.383c16.433-4.086 33.037 5.916 37.124 22.346l34.803 140.008h.021Z"/><path fill="#E0E0E0" d="M324.533 342.031 99.578 577.081c3.342 13.428 16.944 21.622 30.376 18.28l498.74-124.005c13.431-3.341 21.627-16.94 18.285-30.368l-.469-1.873-294.177-103.703a26.367 26.367 0 0 0-27.822 6.64l.022-.021Zm-71.875-215.272L90.606 167.063l4.116 16.542 162.052-40.304-4.116-16.542Zm207.931-7.181-359.552 89.425 4.651 18.689 359.552-89.424-4.651-18.69Zm11.373 45.661L112.41 254.664l4.651 18.689 359.552-89.424-4.651-18.69Zm7.556 60.49-11.239 11.258-301.862 78.889-39.444-9.215-1.49-4.277 358.399-89.126 1.554 6.193-5.918 6.278Zm-77.206 78.634-135.977 33.794-41.572-9.491 203.221-50.543-25.672 26.24Z"/><path fill="#FAFAFA" d="M316.316 350.586s-.171.234-.511.638c-.405.447-.937 1.022-1.618 1.766-1.49 1.575-3.576 3.831-6.258 6.704-5.535 5.852-13.432 14.216-23.181 24.537-19.626 20.664-46.745 49.223-76.929 80.528-30.184 31.326-57.814 59.396-77.993 79.528-10.09 10.066-18.285 18.174-23.99 23.749-2.831 2.746-5.024 4.874-6.599 6.385-.724.681-1.298 1.234-1.724 1.638-.405.362-.596.554-.618.532 0 0 .17-.212.533-.617.404-.425.958-1 1.66-1.724 1.511-1.553 3.683-3.745 6.428-6.554 5.663-5.725 13.751-13.897 23.735-24.005 20.03-20.281 47.554-48.436 77.738-79.762 30.12-31.326 57.388-59.694 77.184-80.294a21425.687 21425.687 0 0 0 23.458-24.282c2.746-2.809 4.896-5.001 6.428-6.554.703-.702 1.277-1.256 1.682-1.681.383-.383.596-.554.596-.554l-.021.022Zm330.194 88.508c-.107.298-62.838-21.473-140.107-48.606-77.291-27.155-139.831-49.415-139.724-49.713.106-.298 62.816 21.451 140.107 48.627 77.248 27.155 139.809 49.415 139.702 49.713l.022-.021Zm-97.513-284.678s-.128.191-.405.532c-.34.383-.766.873-1.298 1.468-1.213 1.341-2.895 3.214-5.045 5.597-4.491 4.874-10.899 11.833-18.796 20.409-15.943 17.174-38.124 40.711-62.986 66.397a4348.28 4348.28 0 0 1-64.349 65.078c-8.323 8.151-15.071 14.769-19.818 19.408-2.32 2.214-4.129 3.959-5.449 5.214-.596.553-1.064 1-1.426 1.341-.319.298-.511.447-.511.425 0 0 .128-.191.426-.51.34-.362.787-.83 1.362-1.426 1.277-1.298 3.044-3.086 5.279-5.384 4.683-4.703 11.346-11.407 19.541-19.664 16.497-16.621 39.231-39.625 64.093-65.312 24.842-25.665 47.128-49.117 63.221-66.142 8.004-8.47 14.496-15.322 19.051-20.153 2.214-2.32 3.959-4.15 5.215-5.448.575-.574 1.022-1.043 1.384-1.404.319-.32.49-.469.49-.447l.021.021Z"/><path fill="#FAFAFA" d="M316.316 350.586s-.256-.022-.766-.128c-.554-.128-1.278-.298-2.193-.511-2.001-.489-4.811-1.17-8.408-2.064-7.301-1.83-17.881-4.384-30.95-7.47-26.161-6.193-62.455-14.173-102.558-22.856-40.125-8.682-76.376-16.791-102.515-23.196-13.07-3.192-23.607-5.874-30.866-7.832-3.576-.979-6.364-1.723-8.365-2.277-.894-.255-1.618-.468-2.172-.617-.489-.149-.723-.234-.723-.255 0 0 .255.021.766.127.554.128 1.277.298 2.193.511 2 .49 4.81 1.171 8.408 2.064 7.301 1.831 17.859 4.384 30.95 7.47 26.161 6.193 62.454 14.173 102.558 22.856 40.103 8.683 76.375 16.791 102.494 23.197 13.07 3.192 23.606 5.873 30.886 7.831 3.576.979 6.386 1.724 8.366 2.277.894.255 1.618.468 2.171.617.49.149.724.234.724.256Z"/><path fill="#E0E0E0" d="M539.993 163.737s-.213-.681-.575-2.043c-.362-1.383-.873-3.405-1.554-6.022-1.362-5.342-3.342-13.152-5.896-23.218-5.066-20.196-12.389-49.394-21.436-85.444-1.128-4.512-2.277-9.13-3.469-13.854-.596-2.362-1.192-4.746-1.788-7.15-.298-1.213-.596-2.427-.98-3.597-.319-1.192-.787-2.34-1.298-3.49-1.958-4.618-5.3-8.683-9.409-11.854-4.172-3.064-9.195-5.277-14.559-5.83-2.661-.405-5.407-.214-8.111.106-2.682.468-5.406 1.213-8.152 1.894-5.492 1.362-11.048 2.766-16.71 4.17-11.303 2.81-22.947 5.725-34.867 8.684-47.724 11.874-100.195 24.941-155.284 38.646-55.111 13.684-107.603 26.708-155.327 38.561-11.942 2.959-23.585 5.853-34.888 8.641-2.831.702-5.641 1.404-8.43 2.085-2.788.724-5.556 1.277-8.089 2.448-2.554 1.085-4.938 2.511-7.045 4.277-2.15 1.681-3.981 3.724-5.556 5.916-1.618 2.15-2.746 4.597-3.747 7.044-.872 2.49-1.51 5.065-1.724 7.64-.617 5.214.81 10.215 1.83 15.195 2.13 9.917 4.173 19.451 6.131 28.538 7.77 36.348 14.05 65.78 18.392 86.146 2.15 10.151 3.81 18.046 4.938 23.431.554 2.66.958 4.703 1.256 6.107.277 1.384.383 2.086.383 2.086s-.191-.702-.51-2.064c-.32-1.405-.767-3.427-1.363-6.066-1.192-5.384-2.916-13.258-5.151-23.388-4.428-20.344-10.835-49.734-18.754-86.061-1.98-9.087-4.044-18.599-6.194-28.516-1.022-4.916-2.512-10.088-1.894-15.472.212-2.681.872-5.32 1.766-7.895 1.022-2.532 2.172-5.044 3.853-7.278 1.618-2.256 3.491-4.363 5.726-6.108 2.171-1.809 4.64-3.298 7.28-4.426 2.618-1.213 5.492-1.809 8.238-2.511 2.789-.703 5.598-1.384 8.408-2.107 11.303-2.81 22.947-5.725 34.867-8.683C148.047 80.4 200.518 67.333 255.607 53.628c55.089-13.662 107.56-26.707 155.305-38.54 11.942-2.958 23.564-5.83 34.888-8.64 5.663-1.404 11.218-2.788 16.71-4.128 2.746-.66 5.428-1.405 8.238-1.894 2.789-.34 5.62-.511 8.366-.107 5.534.596 10.707 2.894 15.007 6.065 4.214 3.278 7.663 7.47 9.664 12.237.51 1.192 1 2.362 1.319 3.597.405 1.212.682 2.425.98 3.639.596 2.404 1.192 4.81 1.766 7.171 1.171 4.725 2.321 9.343 3.427 13.854 8.898 36.093 16.093 65.312 21.074 85.529 2.469 10.088 4.364 17.919 5.683 23.261.639 2.638 1.107 4.66 1.448 6.065.319 1.362.447 2.064.447 2.064l.064-.064Z"/><path fill="#0052BF" d="M301.989 51.415 280.937 67.44l1.022 30.602-19.264-15.3-10.643 9.107-40.445-49.925 90.382 9.491Z"/><path fill="#0052BF" d="M273.041 73.952c.021.936 8.94 24.09 8.94 24.09l-19.264-15.301 10.345-8.79h-.021Z"/><path fill="#000" d="M273.041 73.952c.021.936 8.94 24.09 8.94 24.09l-19.264-15.301 10.345-8.79h-.021Z" opacity=".3"/><path fill="#0052BF" d="m211.607 41.924 61.433 32.028 8.919 24.09-1.022-30.602-69.33-25.516Z"/><path fill="#000" d="m211.607 41.924 61.433 32.028 8.919 24.09-1.022-30.602-69.33-25.516Z" opacity=".1"/><path fill="#263238" d="M381.899 454.821c-.085.319-2.576-.022-5.599-.766-3.022-.745-5.385-1.597-5.321-1.894.085-.32 2.575.021 5.598.766 3.002.744 5.386 1.596 5.322 1.894Zm17.412 4.256c-.085.319-1.596.213-3.384-.234-1.788-.447-3.193-1.043-3.108-1.362.085-.319 1.597-.213 3.385.234 1.788.447 3.193 1.043 3.107 1.362ZM327.448 94.041c-.085.32-2.554-.17-5.555-.85-3.002-.703-5.428-1.363-5.364-1.682.042-.32 2.597-.17 5.64.532 3.044.702 5.386 1.702 5.301 2h-.022Zm20.605 8.832c-.17.277-2.448-.766-5.215-2.149-2.746-1.384-4.959-2.575-4.832-2.895.128-.297 2.555.447 5.364 1.852 2.789 1.404 4.854 2.915 4.683 3.192Zm17.859 13.535c-.234.234-2.171-1.362-4.512-3.363-2.342-2.021-4.194-3.702-3.981-3.979.192-.255 2.384 1.043 4.747 3.086s3.98 4.022 3.746 4.256Zm13.624 17.77c-.298.149-1.702-1.916-3.405-4.469-1.682-2.575-3.023-4.682-2.768-4.895.256-.192 2.023 1.639 3.747 4.256 1.724 2.618 2.703 4.959 2.426 5.129v-.021Zm7.727 21.004c-.32.064-1.043-2.341-1.895-5.299-.83-2.958-1.469-5.384-1.171-5.491.299-.106 1.448 2.171 2.299 5.172.852 3.022 1.065 5.554.767 5.618Zm1.149 22.345c-.319-.042-.298-2.553-.234-5.618.085-3.064.171-5.576.511-5.597.319-.021.745 2.49.66 5.618-.064 3.129-.617 5.619-.937 5.597Zm-5.811 21.579c-.298-.149.554-2.511 1.575-5.384 1.043-2.894 1.916-5.235 2.236-5.15.298.085-.064 2.596-1.129 5.555-1.064 2.958-2.405 5.128-2.682 5.001v-.022Zm-13.006 18.174c-.234-.234 1.448-2.106 3.448-4.426 2.023-2.298 3.64-4.214 3.917-4.022.256.17-.958 2.426-3.044 4.788-2.065 2.362-4.129 3.895-4.342 3.66h.021Zm-18.774 12.088c-.128-.298 2.107-1.468 4.81-2.894 2.725-1.426 4.939-2.575 5.13-2.298.171.255-1.809 1.894-4.576 3.341-2.789 1.447-5.237 2.149-5.364 1.851Zm-21.841 4.703c0-.319 2.491-.617 5.535-.979 3.044-.361 5.534-.681 5.598-.361.064.297-2.341 1.149-5.47 1.511-3.108.383-5.663.148-5.663-.171Zm-21.924-4.15c.128-.298 2.512.49 5.449 1.362 2.938.894 5.343 1.554 5.279 1.894-.042.32-2.618.149-5.619-.766-3.023-.915-5.237-2.192-5.109-2.49Zm-15.539-15.407c.319-.106 1.299 2.171 3.044 4.639 1.724 2.49 3.427 4.32 3.193 4.576-.192.234-2.32-1.277-4.151-3.916-1.852-2.618-2.384-5.235-2.086-5.32v.021Zm9.451-17.429c.085.34-2.32 1.085-4.726 2.809-2.448 1.724-3.725 3.852-4.023 3.703-.298-.085.639-2.724 3.342-4.64 2.682-1.915 5.385-2.149 5.407-1.872Zm19.243 7.98c-.298.17-1.66-1.937-3.874-3.958-2.171-2.043-4.47-3.065-4.343-3.384.064-.298 2.725.298 5.152 2.533 2.384 2.213 3.342 4.703 3.065 4.83v-.021Zm.723 21.728c-.298-.128.49-2.49 1.043-5.49.575-2.98.724-5.47 1.043-5.491.32-.021.703 2.575.107 5.703-.596 3.129-1.916 5.406-2.193 5.257v.021Zm-14.58 16.706c-.192-.277 1.745-1.873 4.066-3.873 2.32-1.98 4.15-3.682 4.406-3.469.234.213-1.256 2.319-3.64 4.362-2.384 2.043-4.662 3.235-4.832 2.98Zm-19.903 10.343c-.128-.298 2.043-1.575 4.853-2.873 2.81-1.299 5.215-2.107 5.364-1.809.149.298-2.022 1.574-4.853 2.873-2.831 1.298-5.215 2.106-5.343 1.809h-.021Zm-20.009 10.172c-.171-.277 1.852-1.788 4.534-3.405 2.703-1.575 5.13-2.384 5.236-2.128.149.319-2.001 1.596-4.662 3.149-2.639 1.575-4.917 2.639-5.108 2.384Zm-16.965 14.641c-.235-.212 1.234-2.277 3.469-4.469s4.343-3.639 4.534-3.383c.213.255-1.532 2.064-3.725 4.213-2.192 2.15-4.044 3.852-4.3 3.639h.022ZM236.619 297c-.276-.149.66-2.511 2.299-5.172 1.639-2.66 3.321-4.575 3.576-4.384.277.192-.979 2.384-2.575 5.002-1.618 2.617-3.002 4.703-3.3 4.554Zm-8.174 20.855c-.319-.085.043-2.596 1.022-5.576.958-2.979 2.15-5.213 2.448-5.107.298.128-.383 2.532-1.341 5.469-.958 2.937-1.81 5.278-2.129 5.214Zm-2.937 22.218c-.319 0-.596-2.533-.383-5.64.213-3.107.83-5.597 1.149-5.533.319.043.234 2.554.021 5.618-.212 3.065-.468 5.555-.787 5.576v-.021Zm2.938 22.196c-.32.085-1.107-2.32-1.767-5.363-.745-3.043-.767-5.597-.469-5.639.32-.043.873 2.404 1.597 5.405.66 3.001.937 5.512.617 5.597h.022Zm8.663 20.643c-.277.17-1.788-1.894-3.172-4.682-1.404-2.788-2.107-5.235-1.809-5.363.298-.128 1.49 2.086 2.874 4.852 1.362 2.767 2.405 5.044 2.128 5.214l-.021-.021Zm13.453 17.94c-.234.212-2.192-1.405-4.193-3.788-2.023-2.384-3.321-4.576-3.066-4.767.256-.192 1.959 1.66 3.96 4 1.979 2.341 3.555 4.321 3.32 4.555h-.021Zm17.284 14.258c-.17.277-2.448-.851-4.981-2.703-2.533-1.851-4.3-3.681-4.087-3.915.213-.256 2.299 1.149 4.768 2.979 2.491 1.809 4.47 3.362 4.279 3.639h.021Zm20.223 9.662c-.086.298-2.597-.213-5.492-1.384-2.895-1.17-5.066-2.532-4.917-2.809.149-.298 2.49.575 5.364 1.724 2.852 1.149 5.151 2.149 5.045 2.469Zm11.26 2.873c-.064.319-.191.553-.298.532-.106 0-.149-.298-.085-.618.064-.319.192-.553.298-.532.106 0 .149.298.085.618Z"/><path fill="#0052BF" d="m283.045 371.922-23.277-7.643-4.756 14.477 23.278 7.642 4.755-14.476Z"/><path fill="#000" d="m283.045 371.922-23.277-7.643-4.756 14.477 23.278 7.642 4.755-14.476Z" opacity=".3"/><path fill="#0052BF" d="M283.002 371.952c.107.298-5.875 2.745-13.495 5.554l-.405.149-.255-.34-.383-.511c-5.066-6.704-8.983-12.279-8.728-12.471.256-.191 4.577 5.065 9.664 11.769l.384.51-.66-.191c7.62-2.767 13.793-4.746 13.9-4.448l-.022-.021Z"/><path fill="#000" d="M283.002 371.952c.107.298-5.875 2.745-13.495 5.554l-.405.149-.255-.34-.383-.511c-5.066-6.704-8.983-12.279-8.728-12.471.256-.191 4.577 5.065 9.664 11.769l.384.51-.66-.191c7.62-2.767 13.793-4.746 13.9-4.448l-.022-.021Z" opacity=".1"/><path fill="#0052BF" d="M266.441 373.165c.149.298-2.32 1.788-5.491 3.32-3.172 1.553-5.854 2.575-6.003 2.277-.149-.298 2.32-1.788 5.492-3.32 3.171-1.554 5.853-2.575 6.002-2.277Z"/><path fill="#000" d="M266.441 373.165c.149.298-2.32 1.788-5.491 3.32-3.172 1.553-5.854 2.575-6.003 2.277-.149-.298 2.32-1.788 5.492-3.32 3.171-1.554 5.853-2.575 6.002-2.277Z" opacity=".1"/><path fill="#0052BF" d="M278.66 386.551c-.298.127-1.597-2.299-2.981-5.384-1.404-3.171-2.341-5.874-1.915-5.853.319 0 1.639 2.277 2.98 5.384s2.214 5.725 1.916 5.853Z"/><path fill="#000" d="M278.66 386.551c-.298.127-1.597-2.299-2.981-5.384-1.404-3.171-2.341-5.874-1.915-5.853.319 0 1.639 2.277 2.98 5.384s2.214 5.725 1.916 5.853Z" opacity=".1"/><path fill="#0052BF" d="m377.944 428.653-59.862-19.654-12.233 37.243 59.862 19.654 12.233-37.243Z"/><path fill="#0052BF" d="M377.919 428.666s-.916.511-2.661 1.213c-1.959.766-4.47 1.745-7.45 2.916-6.323 2.426-15.092 5.703-24.906 9.278l-.404.149-.255-.34c-.32-.426-.66-.873-1.001-1.32-6.535-8.619-12.389-16.45-16.582-22.175-1.98-2.724-3.619-5.001-4.917-6.788-1.15-1.618-1.746-2.533-1.682-2.597.064-.042.788.788 2.044 2.32 1.362 1.724 3.129 3.937 5.215 6.576 4.364 5.576 10.324 13.343 16.859 21.962.34.447.681.894 1 1.319l-.66-.191c9.813-3.575 18.626-6.725 25.033-8.938 3.044-1.022 5.577-1.894 7.578-2.575 1.788-.575 2.789-.873 2.831-.788l-.042-.021Z"/><path fill="#000" d="M377.919 428.666s-.916.511-2.661 1.213c-1.959.766-4.47 1.745-7.45 2.916-6.323 2.426-15.092 5.703-24.906 9.278l-.404.149-.255-.34c-.32-.426-.66-.873-1.001-1.32-6.535-8.619-12.389-16.45-16.582-22.175-1.98-2.724-3.619-5.001-4.917-6.788-1.15-1.618-1.746-2.533-1.682-2.597.064-.042.788.788 2.044 2.32 1.362 1.724 3.129 3.937 5.215 6.576 4.364 5.576 10.324 13.343 16.859 21.962.34.447.681.894 1 1.319l-.66-.191c9.813-3.575 18.626-6.725 25.033-8.938 3.044-1.022 5.577-1.894 7.578-2.575 1.788-.575 2.789-.873 2.831-.788l-.042-.021Z" opacity=".2"/><path fill="#0052BF" d="M335.346 431.837c.149.298-6.365 3.746-14.517 7.725-8.153 3.98-14.88 6.98-15.029 6.682-.149-.298 6.344-3.745 14.518-7.725 8.152-3.979 14.879-6.98 15.028-6.682Z"/><path fill="#000" d="M335.346 431.837c.149.298-6.365 3.746-14.517 7.725-8.153 3.98-14.88 6.98-15.029 6.682-.149-.298 6.344-3.745 14.518-7.725 8.152-3.979 14.879-6.98 15.028-6.682Z" opacity=".2"/><path fill="#0052BF" d="M366.764 466.249c-.298.127-3.363-6.236-6.832-14.237-3.47-8.002-6.046-14.578-5.769-14.706.298-.127 3.363 6.236 6.833 14.237 3.47 7.981 6.045 14.578 5.768 14.706Z"/><path fill="#000" d="M366.764 466.249c-.298.127-3.363-6.236-6.832-14.237-3.47-8.002-6.046-14.578-5.769-14.706.298-.127 3.363 6.236 6.833 14.237 3.47 7.981 6.045 14.578 5.768 14.706Z" opacity=".2"/><path fill="#263238" d="M321.339 418.153c-4.173 3.065-10.026 2.171-13.07-2-3.066-4.171-2.172-10.024 2.001-13.067 4.172-3.064 10.025-2.171 13.069 2.001 3.066 4.171 2.172 10.023-2 13.066Z"/><path fill="#fff" d="M321.701 408.917c.085.149-2.725 1.894-6.28 3.895a93.56 93.56 0 0 0-1.511.829l-.277.149-.149-.255c-1.596-2.83-2.703-4.98-2.576-5.044.128-.085 1.448 1.958 3.108 4.746l-.425-.106c.489-.277.979-.554 1.49-.852 3.554-2 6.492-3.49 6.577-3.341l.043-.021Z"/><path fill="#0052BF" d="m339.514 378.451-31.368-10.298-6.408 19.511 31.367 10.298 6.409-19.511Z"/><path fill="#000" d="m339.514 378.451-31.368-10.298-6.408 19.511 31.367 10.298 6.409-19.511Z" opacity=".2"/><path fill="#0052BF" d="M339.475 378.464s-.49.255-1.405.638c-1.022.405-2.342.915-3.895 1.533-3.321 1.276-7.919 2.979-13.049 4.852l-.213.085-.128-.17c-.17-.213-.34-.447-.532-.681a828.4 828.4 0 0 1-8.685-11.62c-1.043-1.426-1.894-2.618-2.575-3.554-.596-.851-.916-1.341-.873-1.362.043-.021.404.404 1.064 1.213.724.915 1.639 2.064 2.725 3.448a946.482 946.482 0 0 1 8.834 11.513c.17.234.362.468.511.681l-.341-.107c5.13-1.872 9.771-3.511 13.113-4.682 1.596-.532 2.916-1 3.959-1.34.936-.298 1.469-.447 1.469-.426l.021-.021Z"/><path fill="#0052BF" d="M339.475 378.464s-.49.255-1.405.638c-1.022.405-2.342.915-3.895 1.533-3.321 1.276-7.919 2.979-13.049 4.852l-.213.085-.128-.17c-.17-.213-.34-.447-.532-.681a828.4 828.4 0 0 1-8.685-11.62c-1.043-1.426-1.894-2.618-2.575-3.554-.596-.851-.916-1.341-.873-1.362.043-.021.404.404 1.064 1.213.724.915 1.639 2.064 2.725 3.448a946.482 946.482 0 0 1 8.834 11.513c.17.234.362.468.511.681l-.341-.107c5.13-1.872 9.771-3.511 13.113-4.682 1.596-.532 2.916-1 3.959-1.34.936-.298 1.469-.447 1.469-.426l.021-.021Z" opacity=".2"/><path fill="#0052BF" d="M317.167 380.124c.063.149-3.321 1.958-7.6 4.043-4.278 2.086-7.791 3.66-7.876 3.49-.064-.149 3.321-1.958 7.6-4.043 4.278-2.086 7.79-3.661 7.876-3.49Z"/><path fill="#0052BF" d="M317.167 380.124c.063.149-3.321 1.958-7.6 4.043-4.278 2.086-7.791 3.66-7.876 3.49-.064-.149 3.321-1.958 7.6-4.043 4.278-2.086 7.79-3.661 7.876-3.49Z" opacity=".2"/><path fill="#0052BF" d="M333.621 398.149c-.149.064-1.767-3.277-3.576-7.448-1.831-4.193-3.172-7.64-3.023-7.704.149-.064 1.767 3.277 3.576 7.448 1.831 4.193 3.172 7.64 3.023 7.704Z"/><path fill="#0052BF" d="M333.621 398.149c-.149.064-1.767-3.277-3.576-7.448-1.831-4.193-3.172-7.64-3.023-7.704.149-.064 1.767 3.277 3.576 7.448 1.831 4.193 3.172 7.64 3.023 7.704Z" opacity=".2"/><path fill="#263238" d="M87.55 134.22c-6.045 23.792-30.226 38.179-54.024 32.156-23.798-6.044-38.188-30.219-32.164-54.012C7.407 88.572 31.59 74.186 55.387 80.209c23.798 6.043 38.188 30.219 32.164 54.011Z"/><path fill="#fff" d="M60.943 99.191c.766.298-4.279 15.174-11.303 33.22a973.877 973.877 0 0 1-3.002 7.598l-.532 1.362-1.34-.511c-14.412-5.554-24.948-10.13-24.693-10.79.255-.659 11.197 2.788 25.714 8.066l-1.873.851c.936-2.468 1.915-5.001 2.916-7.619 7.003-18.046 13.325-32.432 14.092-32.134l.02-.043Z"/></g><defs><clipPath id="a"><path fill="#fff" d="M0 0h648v597H0z"/></clipPath></defs></svg>