<svg xmlns="http://www.w3.org/2000/svg" width="719" height="623" fill="none"><g clip-path="url(#a)"><path fill="#F5F5F5" d="M103.106 570.262c137.474 70.328 360.352 70.328 497.826 0 137.475-70.328 137.475-184.343 0-254.671-137.474-70.327-360.352-70.327-497.826 0-137.475 70.328-137.475 184.343 0 254.671Z"/><path fill="#EBEBEB" d="M552.702 457.905c7.527 4.355 22.334 2.852 33.067-3.347l61.861-35.939c10.733-6.199 13.304-14.754 5.761-19.124-7.542-4.355-22.365-2.867-33.098 3.332l-61.799 35.954c-10.733 6.199-13.32 14.769-5.777 19.109l-.015.015ZM180.331 491.054l-62.929-36.341 62.913-36.358.016 72.699ZM358.137 512.797l-101.402-58.611 101.433-58.503-.031 117.114Z"/><path fill="#FAFAFA" d="M89.677 469.296c-1.75 0-2.803-1.457-2.803-3.89V204.722L405.92 20.426v259.63c0 3.982-2.804 8.849-6.258 10.832L92.218 468.505c-.899.527-1.782.791-2.54.791Z"/><path fill="#E0E0E0" d="M405.005 21.991v258.065c0 3.626-2.649 8.229-5.793 10.057L91.769 467.73c-.76.434-1.487.667-2.092.667-1.719 0-1.905-2.077-1.905-2.976V205.265L405.005 21.991Zm1.812-3.146L85.96 204.211v261.21c0 3.038 1.518 4.789 3.718 4.789.898 0 1.92-.294 2.989-.914L400.11 291.679c3.702-2.139 6.707-7.346 6.707-11.623V18.845Z"/><path fill="#0052BF" d="M85.96 204.211v43.61l320.857-185.35V18.844L85.96 204.211Z"/><path fill="#FAFAFA" d="M111.129 206.536v6.26c0 1.271.914 1.798 2.013 1.163l98.646-56.985v-10.91l-98.646 56.985c-1.099.635-2.013 2.216-2.013 3.487Z"/><path fill="#455A64" d="M222.351 139.958c1.115-.635 2.013-.124 2.013 1.162v6.261c0 1.287-.898 2.852-2.013 3.487l-10.579 6.106v-10.91l10.579-6.106ZM85.96 190.155c0-4.278 3.005-9.485 6.707-11.624L400.11.914c3.702-2.138 6.707-.403 6.707 3.875v14.056L85.96 204.211v-14.056Z"/><path fill="#0052BF" d="M371.163 24.935c-1.735 1.008-3.144 3.44-3.144 5.456 0 2.014 1.409 2.82 3.144 1.813 1.734-1.008 3.144-3.44 3.144-5.455s-1.41-2.821-3.144-1.814ZM381.122 19.17c-1.735 1.008-3.144 3.44-3.144 5.456 0 2.014 1.409 2.82 3.144 1.813 1.734-1.008 3.144-3.44 3.144-5.455s-1.41-2.82-3.144-1.814ZM391.096 13.405c-1.734 1.008-3.144 3.44-3.144 5.455s1.41 2.821 3.144 1.814c1.735-1.008 3.144-3.44 3.144-5.455s-1.409-2.821-3.144-1.814Z"/><g fill="#000" opacity=".1"><path d="M306.158 90.862c-3.795 2.2-6.877 7.532-6.877 11.917 0 4.386 3.082 6.168 6.877 3.968 3.795-2.201 6.877-7.532 6.877-11.918 0-4.386-3.082-6.168-6.877-3.967ZM274.701 109.041c-3.794 2.2-6.877 7.531-6.877 11.917s3.083 6.168 6.877 3.967c3.795-2.2 6.877-7.531 6.877-11.917s-3.082-6.168-6.877-3.967ZM337.615 72.699c-3.795 2.2-6.877 7.532-6.877 11.917 0 4.386 3.082 6.168 6.877 3.968 3.795-2.201 6.877-7.532 6.877-11.918 0-4.386-3.082-6.168-6.877-3.967ZM369.072 54.49c-3.795 2.2-6.877 7.531-6.877 11.917s3.082 6.168 6.877 3.967c3.794-2.2 6.877-7.532 6.877-11.917 0-4.386-3.083-6.168-6.877-3.968Z"/></g><path fill="#E0E0E0" d="m117.835 251.215 74.67-43.13c3.701-2.139 6.706-.403 6.706 3.874v71.738c0 4.278-3.005 9.485-6.706 11.624l-74.67 43.129c-3.701 2.139-6.706.403-6.706-3.874v-71.738c0-4.278 3.005-9.485 6.706-11.623ZM224.782 189.442 381.23 99.06c3.702-2.139 6.707-.403 6.707 3.875v71.738c0 4.277-3.005 9.484-6.707 11.623l-156.448 90.381c-3.701 2.139-6.706.403-6.706-3.874v-71.738c0-4.278 3.005-9.485 6.706-11.623ZM117.835 360.255l118.703-68.576c3.702-2.139 6.707-.62 6.707 3.394 0 4.013-3.005 9.004-6.707 11.142l-118.703 68.577c-3.701 2.138-6.706.62-6.706-3.394s3.005-9.004 6.706-11.143ZM117.835 385.702l118.703-68.576c3.702-2.139 6.707-.62 6.707 3.394s-3.005 9.004-6.707 11.142l-118.703 68.577c-3.701 2.139-6.706.62-6.706-3.394s3.005-9.004 6.706-11.143ZM117.835 411.134l118.703-68.577c3.702-2.139 6.707-.62 6.707 3.394s-3.005 9.004-6.707 11.143L117.835 425.67c-3.701 2.139-6.706.62-6.706-3.394s3.005-9.004 6.706-11.142Z"/><path fill="#0052BF" d="M174.042 324.874c0-2.572 1.797-5.687 4.027-6.974l205.856-118.927c2.215-1.287 5.823-1.287 8.054 0l4.538 2.619c2.215 1.286 4.027 4.401 4.027 6.973v157.889c0 2.557-1.812 5.688-4.027 6.974L190.661 492.356c-2.215 1.271-5.839 1.271-8.054 0l-4.538-2.619c-2.215-1.271-4.027-4.417-4.027-6.974V324.874Z"/><path fill="#fff" d="m175.204 320.907 11.415 6.586 212.717-122.895c-.728-1.255-1.735-2.355-2.834-3.006l-4.554-2.604c-2.215-1.302-5.824-1.302-8.038 0L178.054 317.9c-1.131.651-2.137 1.752-2.85 3.007Z" opacity=".4"/><path fill="#000" d="M174.027 324.874v157.889c0 2.573 1.812 5.688 4.042 6.974l4.539 2.634a7.1 7.1 0 0 0 1.099.496c.511.171 1.069.31 1.658.388a9.906 9.906 0 0 0 3.175-.109c.263-.062.526-.139.774-.217.17-.062.325-.108.48-.186-.743.264-1.394.233-1.92-.031-.759-.403-1.239-1.317-1.239-2.65V332.174c0-1.659.836-2.914 2.09-3.425l-2.09-1.225-11.415-6.586c-.728 1.255-1.177 2.681-1.177 3.967l-.016-.031Z" opacity=".1"/><path fill="#000" d="m186.635 327.493 95.33 35.645c6.8 2.526 14.435.015 18.385-6.06l15.303-23.463 84.442-129.451-81.391 130.334 81.809 32.033c-.015 1.302-.495 2.744-1.254 4.014l-80.772-35.69-17.796 28.484c-4.089 6.54-12.36 9.082-19.392 5.967l-12.669-5.595-80.756 128.97c-.759-.403-1.239-1.317-1.239-2.65v-2.634l81.608-123.857-81.608-36.047Z" opacity=".2"/><path fill="#FAFAFA" stroke="#E0E0E0" stroke-miterlimit="10" stroke-width="1.17" d="M356.495 146.234v362.487c0 4.278 3.005 6.013 6.707 3.875l162.751-94.024c3.702-2.138 6.707-7.346 6.707-11.623V44.478c0-4.278-3.005-6.013-6.707-3.875l-162.751 94.024c-3.702 2.138-6.707 7.346-6.707 11.623v-.016Z"/><path fill="#455A64" d="M365.928 152.991c0-1.007.774-2.262 1.75-2.82l18.539-10.709c.961-.558 1.751-.186 1.751.806s-.775 2.263-1.751 2.82l-18.539 10.709c-.96.558-1.75.186-1.75-.806ZM365.928 160.213c0-1.007.774-2.263 1.75-2.821l18.539-10.708c.961-.558 1.751-.186 1.751.806 0 .991-.775 2.262-1.751 2.82l-18.539 10.709c-.96.558-1.75.186-1.75-.806ZM365.928 167.435c0-1.007.774-2.263 1.75-2.821l18.539-10.708c.961-.558 1.751-.186 1.751.806 0 .991-.775 2.262-1.751 2.82l-18.539 10.709c-.96.558-1.75.186-1.75-.806Z"/><path fill="#37474F" d="M520.068 74.481v-2.898c0-.17-.124-.248-.279-.186l-2.23 1.007a.257.257 0 0 1-.372-.17 4.735 4.735 0 0 0-.496-1.1.611.611 0 0 1-.031-.543l1.487-3.006a.328.328 0 0 0-.139-.434l-1.611-.93c-.155-.093-.341-.047-.449.108l-1.859 2.79a.64.64 0 0 1-.48.248c-.387 0-.79.03-1.208.124-.17.03-.31-.062-.341-.233l-.248-2.433c-.015-.17-.154-.248-.294-.155l-2.509 1.442a.661.661 0 0 0-.294.464l-.248 2.79c-.016.17-.139.403-.263.527-.48.45-.961.945-1.394 1.472a.46.46 0 0 1-.496.14l-1.611-.558a.37.37 0 0 0-.449.17l-1.843 3.193c-.093.155-.046.356.077.48l1.286 1.116a.49.49 0 0 1 .124.496 16.05 16.05 0 0 0-.573 1.937.869.869 0 0 1-.325.48l-2.293 1.612a.69.69 0 0 0-.263.496v2.898c0 .17.124.248.279.186l2.23-1.007c.155-.078.325 0 .372.17.124.403.294.775.495 1.1a.608.608 0 0 1 .031.543l-1.486 2.991a.328.328 0 0 0 .139.434l1.611.93c.155.093.34.046.449-.109l1.858-2.79a.641.641 0 0 1 .481-.247c.387 0 .79-.031 1.208-.124.17-.031.309.062.34.232l.248 2.433c.016.17.155.248.295.155l2.509-1.44a.664.664 0 0 0 .294-.466l.248-2.79c.015-.17.139-.402.263-.526.48-.45.96-.946 1.394-1.472a.459.459 0 0 1 .496-.14l1.61.558a.371.371 0 0 0 .45-.17l1.843-3.193c.093-.155.046-.356-.078-.48l-1.285-1.116c-.124-.109-.186-.341-.124-.496.232-.651.434-1.302.573-1.937a.869.869 0 0 1 .325-.48l2.292-1.613a.688.688 0 0 0 .264-.495v.015Zm-9.804 9.097c-2.339 1.348-4.229.248-4.229-2.449 0-2.696 1.89-5.982 4.229-7.33 2.338-1.348 4.228-.248 4.228 2.449 0 2.696-1.89 5.982-4.228 7.33Z"/><path fill="#455A64" d="M444.578 145.924c19.019-10.987 34.43-2.076 34.43 19.884s-15.411 48.693-34.43 59.665c-19.02 10.988-34.431 2.077-34.431-19.899 0-21.975 15.411-48.693 34.431-59.665v.015Z"/><path fill="#0052BF" d="M444.33 163.22c6.164-3.565 11.167-.682 11.167 6.447 0 7.128-5.003 15.792-11.167 19.356-6.165 3.564-11.167.682-11.167-6.447 0-7.129 5.002-15.792 11.167-19.356ZM466.339 201.22c0-11.716-8.225-16.459-18.354-10.601l-6.335 3.658c-10.129 5.858-18.353 20.1-18.353 31.801v3.192c1.827.605 3.81.915 5.916.915 4.616 0 9.835-1.519 15.349-4.712 8.255-4.773 15.845-12.522 21.777-21.557v-2.712.016ZM413.492 258.173l62.155-35.908c1.859-1.069 3.361-.31 3.361 1.705s-1.502 4.494-3.361 5.579l-62.155 35.908c-1.858 1.069-3.361.31-3.361-1.705s1.503-4.494 3.361-5.579Z"/><path fill="#455A64" d="m406.817 283.852 75.49-43.656c1.859-1.07 3.361-.31 3.361 1.705 0 2.014-1.502 4.494-3.361 5.579l-75.49 43.656c-1.859 1.069-3.361.31-3.361-1.705 0-2.014 1.502-4.494 3.361-5.579Z"/><path fill="#37474F" d="m484.336 275.391 21.142-12.212c1.115-.636 2.013-.341 2.013.65 0 .992-.898 2.341-2.013 2.976l-21.142 12.212c-1.115.635-2.013.356-2.013-.651 0-1.007.898-2.34 2.013-2.975Z"/><path fill="#0052BF" d="m378.721 329.152 31.039-17.931c1.858-1.069 3.361-.201 3.361 1.937v21.325c0 2.138-1.503 4.742-3.346 5.811l-31.038 17.931c-1.859 1.069-3.361.201-3.361-1.937v-21.325c0-2.138 1.502-4.742 3.361-5.811h-.016Z"/><path fill="#FAFAFA" d="m383.662 332.127 21.141-12.212c1.116-.635 2.014-.341 2.014.651s-.898 2.34-2.014 2.976l-21.141 12.212c-1.115.635-2.014.341-2.014-.651s.899-2.34 2.014-2.976ZM381.664 342.882v6.261c0 1.287.898 1.798 2.013 1.163l21.142-12.212c1.115-.636 2.013-2.201 2.013-3.487v-6.261c0-1.287-.898-1.798-2.013-1.163l-21.142 12.212c-1.115.636-2.013 2.201-2.013 3.487Z"/><path fill="#0052BF" d="m429.043 300.078 31.038-17.93c1.859-1.07 3.361-.202 3.361 1.937v21.324c0 2.139-1.502 4.743-3.361 5.812l-31.038 17.93c-1.859 1.07-3.361.202-3.361-1.937V305.89c0-2.139 1.502-4.743 3.361-5.812Z"/><path fill="#FAFAFA" d="m433.999 303.054 21.142-12.212c1.115-.636 2.013-.341 2.013.651 0 .991-.898 2.34-2.013 2.975l-21.142 12.212c-1.115.636-2.014.341-2.014-.651s.899-2.34 2.014-2.975ZM431.985 313.809v6.261c0 1.286.899 1.798 2.014 1.162l21.142-12.212c1.115-.635 2.013-2.2 2.013-3.487v-6.261c0-1.286-.898-1.797-2.013-1.162l-21.142 12.212c-1.115.635-2.014 2.201-2.014 3.487Z"/><path fill="#0052BF" d="m479.38 270.989 31.038-17.93c1.859-1.07 3.361-.202 3.361 1.937v21.324c0 2.139-1.502 4.743-3.361 5.812l-31.038 17.931c-1.859 1.069-3.361.201-3.361-1.938v-21.324c0-2.139 1.502-4.742 3.345-5.812h.016Z"/><path fill="#FAFAFA" d="m484.336 273.98 21.142-12.212c1.115-.635 2.013-.356 2.013.651 0 1.008-.898 2.34-2.013 2.976l-21.142 12.212c-1.115.635-2.013.356-2.013-.651 0-1.007.898-2.34 2.013-2.976ZM482.323 284.736v6.261c0 1.286.898 1.797 2.013 1.162l21.142-12.212c1.115-.635 2.013-2.201 2.013-3.487v-6.261c0-1.286-.898-1.798-2.013-1.162l-21.142 12.212c-1.115.635-2.013 2.2-2.013 3.487Z"/><path fill="#E0E0E0" d="m382.066 378.093 124.991-72.203c3.702-2.139 6.707-.62 6.707 3.394s-3.005 9.004-6.707 11.143l-124.991 72.202c-3.701 2.139-6.706.62-6.706-3.394 0-4.013 3.005-9.004 6.706-11.142ZM382.066 407.166l124.991-72.203c3.702-2.139 6.707-.62 6.707 3.394s-3.005 9.004-6.707 11.143l-124.991 72.203c-3.701 2.138-6.706.62-6.706-3.394s3.005-9.004 6.706-11.143Z"/><path fill="#0052BF" d="m422.754 420.013 43.631-25.198c1.859-1.07 3.361-.202 3.361 1.937v14.056c0 2.139-1.502 4.742-3.361 5.811l-43.631 25.199c-1.858 1.07-3.361.202-3.361-1.937v-14.056c0-2.139 1.503-4.742 3.346-5.812h.015Z"/><path fill="#FAFAFA" d="M384.808 380.232c-1.735 1.007-3.144 3.44-3.144 5.455 0 2.014 1.409 2.82 3.144 1.813 1.735-1.008 3.144-3.441 3.144-5.455 0-2.015-1.409-2.821-3.144-1.813ZM394.767 374.466c-1.735 1.008-3.144 3.441-3.144 5.455 0 2.015 1.409 2.821 3.144 1.814 1.735-1.008 3.144-3.441 3.144-5.455 0-2.015-1.409-2.821-3.144-1.814ZM404.726 368.701c-1.735 1.008-3.144 3.441-3.144 5.455 0 2.015 1.409 2.821 3.144 1.814 1.735-1.008 3.144-3.441 3.144-5.456 0-2.014-1.409-2.82-3.144-1.813ZM414.7 362.936c-1.734 1.007-3.144 3.441-3.144 5.455 0 2.015 1.41 2.821 3.144 1.813 1.735-1.007 3.145-3.44 3.145-5.455 0-2.014-1.41-2.82-3.145-1.813ZM424.659 357.171c-1.734 1.008-3.144 3.441-3.144 5.455 0 2.015 1.41 2.821 3.144 1.814 1.735-1.008 3.145-3.441 3.145-5.456 0-2.014-1.41-2.82-3.145-1.813ZM434.634 351.406c-1.735 1.007-3.144 3.441-3.144 5.455 0 2.015 1.409 2.821 3.144 1.813 1.735-1.007 3.144-3.44 3.144-5.455 0-2.014-1.409-2.82-3.144-1.813ZM444.593 345.641c-1.735 1.007-3.144 3.44-3.144 5.455s1.409 2.821 3.144 1.813c1.735-1.007 3.144-3.44 3.144-5.455s-1.409-2.82-3.144-1.813ZM384.808 409.336c-1.735 1.007-3.144 3.44-3.144 5.455 0 2.014 1.409 2.82 3.144 1.813s3.144-3.441 3.144-5.455c0-2.015-1.409-2.821-3.144-1.813ZM394.767 403.571c-1.735 1.007-3.144 3.44-3.144 5.455 0 2.014 1.409 2.82 3.144 1.813s3.144-3.441 3.144-5.455c0-2.015-1.409-2.821-3.144-1.813ZM404.726 397.806c-1.735 1.007-3.144 3.44-3.144 5.455 0 2.014 1.409 2.82 3.144 1.813s3.144-3.441 3.144-5.455c0-2.015-1.409-2.821-3.144-1.813ZM414.7 392.04c-1.734 1.008-3.144 3.441-3.144 5.455 0 2.015 1.41 2.821 3.144 1.814 1.735-1.008 3.145-3.441 3.145-5.455 0-2.015-1.41-2.821-3.145-1.814ZM424.659 386.275c-1.734 1.008-3.144 3.441-3.144 5.456 0 2.014 1.41 2.82 3.144 1.813 1.735-1.008 3.145-3.441 3.145-5.455 0-2.015-1.41-2.821-3.145-1.814ZM434.634 380.51c-1.735 1.008-3.144 3.441-3.144 5.455 0 2.015 1.409 2.821 3.144 1.814 1.735-1.008 3.144-3.441 3.144-5.455 0-2.015-1.409-2.821-3.144-1.814ZM444.593 374.745c-1.735 1.008-3.144 3.441-3.144 5.455 0 2.015 1.409 2.821 3.144 1.814 1.735-1.008 3.144-3.441 3.144-5.456 0-2.014-1.409-2.82-3.144-1.813Z"/><path fill="#455A64" d="M584.375 440.269c-5.436 0-10.578-1.333-15.256-4.03-11.167-6.447-17.564-19.945-17.564-37.023 0-30.034 19.082-64.594 43.445-78.666 13.119-7.578 26.145-8.399 36.677-2.309 11.167 6.447 17.563 19.946 17.563 37.024 0 30.034-19.081 64.593-43.444 78.665-7.311 4.216-14.59 6.339-21.421 6.339Zm31.999-104.423c-3.903 0-8.038 1.969-10.578 3.425-17.688 10.213-32.634 37.675-32.634 59.945 0 9.019 2.524 15.854 6.753 18.302 4.817 2.79 11.507-.248 15.07-2.309 17.687-10.213 32.634-37.674 32.634-59.944 0-9.02-2.525-15.854-6.753-18.303-1.379-.806-2.928-1.116-4.492-1.116Z"/><path fill="#37474F" d="M631.491 360.069c0-16.877-10.625-23.107-10.625-23.107 4.228 2.449 6.753 9.283 6.753 18.303 0 22.27-14.947 49.716-32.634 59.944-3.563 2.062-10.253 5.099-15.07 2.309 0 0 8.967 5.564 21.343-1.193 17.935-9.794 30.217-33.97 30.217-56.24l.016-.016ZM614.454 149.163c0-6.168-5.003-11.173-11.167-11.173-6.165 0-11.168 5.005-11.168 11.173v177.803c0 1.659 1.085 3.301 3.268 4.557 4.368 2.526 11.431 2.526 15.799 0 2.183-1.256 3.268-2.914 3.268-4.557V149.163Z"/><path fill="#455A64" d="M605.532 188.883c0-4.122-2.881-9.128-6.458-11.173-1.812-1.054-3.439-1.116-4.616-.403l-27.569 15.885-.666.403a1.422 1.422 0 0 0-.263.155 8.86 8.86 0 0 0-1.317 1.085 9.085 9.085 0 0 0-2.695 6.477c0 3.472 1.921 6.478 4.755 8.044a9.18 9.18 0 0 0 4.368 1.1 9.075 9.075 0 0 0 4.352-1.1c.17-.093.356-.202.527-.295l27.739-15.993c1.146-.682 1.859-2.123 1.859-4.169l-.016-.016ZM605.532 233.408c0-4.122-2.88-9.128-6.458-11.174-1.812-1.054-3.439-1.116-4.616-.403l-32.308 18.551-.667.403a1.49 1.49 0 0 0-.263.155c-.48.31-.914.682-1.316 1.084a9.089 9.089 0 0 0-2.695 6.478c0 3.472 1.92 6.478 4.755 8.044a9.178 9.178 0 0 0 4.367 1.1 9.076 9.076 0 0 0 4.353-1.1c.17-.093.356-.202.526-.295l32.479-18.659c1.146-.682 1.859-2.123 1.859-4.169l-.016-.015Z"/></g><defs><clipPath id="a"><path fill="#fff" d="M0 0h719v623H0z"/></clipPath></defs></svg>