<svg xmlns="http://www.w3.org/2000/svg" width="618" height="611" fill="none"><path fill="#BDD0FB" d="M117.771 171.7c.057-2.957 2.55-5.337 5.607-5.337h185.417c3.099 0 6.39 2.454 6.39 5.453V590.61c0 2.238-1.31 4.385-2.947 5.964-1.638 1.58-4.053 2.464-6.366 2.459l-187.446-.495c-2.333-.006-4.614-.919-6.245-2.531-1.631-1.614-2.551-3.798-2.507-6.056l8.097-418.248v-.003Z"/><g opacity=".52"><path fill="#fff" d="m224.255 196.042 60.654-.202-.022-7.344-60.588.184-.044 7.362ZM224.088 223.094l60.903-.268-.022-7.404-60.837.25-.044 7.422ZM223.92 250.371l61.155-.335-.024-7.467-61.087.318-.044 7.484ZM223.751 277.874l61.409-.402-.024-7.529-61.338.385-.047 7.546ZM223.579 305.608l61.666-.475-.025-7.591-61.594.455-.047 7.611ZM223.234 361.77l62.183-.615-.023-7.719-62.111.595-.049 7.739ZM222.706 447.807l62.975-.837-.024-7.917-62.902.817-.049 7.937ZM223.408 333.57l61.922-.544-.022-7.653-61.853.524-.047 7.673ZM223.061 390.206l62.443-.686-.023-7.784-62.374.668-.046 7.802ZM222.885 418.885l62.708-.761-.025-7.851-62.636.742-.047 7.87ZM222.525 476.975l63.245-.912-.024-7.984-63.169.89-.052 8.006ZM222.346 506.394l63.517-.99-.027-8.053-63.439.971-.051 8.072ZM222.163 536.068 285.952 535l-.025-8.123-63.713 1.048-.051 8.143ZM221.979 565.998l64.065-1.148-.026-8.192-63.987 1.125-.052 8.215ZM144.73 196.308l61.035-.204.067-7.366-60.966.186-.136 7.384ZM144.236 223.447l61.287-.271.067-7.428-61.218.253-.136 7.446ZM143.737 250.813l61.543-.34.067-7.489-61.472.32-.138 7.509ZM143.233 278.404l61.8-.406.066-7.553-61.727.389-.139 7.57ZM142.726 306.227l62.057-.477.069-7.615-61.986.457-.14 7.635ZM141.698 362.576l62.581-.619.072-7.744-62.51.597-.143 7.766ZM140.123 448.901l63.385-.841.072-7.941-63.312.819-.145 7.963ZM142.215 334.283l62.318-.546.069-7.68-62.247.526-.14 7.7ZM141.177 391.107l62.848-.69.069-7.811-62.775.673-.142 7.828ZM140.653 419.882l63.116-.766.069-7.875-63.042.744-.143 7.897ZM139.589 478.172l63.659-.919.072-8.011-63.584.897-.147 8.033ZM139.052 507.693l63.931-.997.073-8.079-63.857.975-.147 8.101ZM138.508 537.469l64.209-1.074.074-8.15-64.134 1.054-.149 8.17ZM137.96 567.505l64.488-1.156.076-8.222-64.415 1.135-.149 8.243Z" style="mix-blend-mode:overlay"/></g><path fill="#BDD0FB" d="M11.37 287.218c.08-3.421 3.606-6.236 7.926-6.236h163.306c4.378 0 8.677 2.962 8.677 6.429v309.911c0 1.667-1.214 3.268-2.704 4.444-1.491 1.177-3.701 1.836-5.808 1.832L12.02 603.23c-2.126-.005-4.204-.684-5.69-1.888-1.486-1.203-2.324-2.864-2.284-4.546l7.321-309.58.002.002Z"/><path fill="url(#a)" d="m131.637 317.501 46.522-.049.37-18.884H131.96l-.323 18.933Z"/><path fill="url(#b)" d="m79.491 317.492 46.476-.051.319-18.873H79.763l-.272 18.924Z"/><path fill="url(#c)" d="m27.396 317.481 46.43-.049.267-18.864H27.619l-.223 18.913Z"/><path fill="url(#d)" d="m131.056 351.396 46.442.024.368-18.76-46.487-.016-.323 18.752Z"/><path fill="url(#e)" d="m78.999 351.369 46.396.024.318-18.751-46.44-.015L79 351.369Z"/><path fill="url(#f)" d="m26.996 351.345 46.349.022.267-18.743-46.393-.013-.223 18.734Z"/><path fill="url(#g)" d="m130.476 385.06 46.359.037.368-18.695-46.407-.029-.32 18.687Z"/><path fill="url(#h)" d="m78.51 385.015 46.314.04.316-18.687-46.358-.031-.271 18.678Z"/><path fill="url(#i)" d="m26.597 384.973 46.268.038.265-18.676-46.31-.031-.223 18.669Z"/><path fill="url(#j)" d="m129.899 418.606 46.28.053.365-18.631-46.324-.045-.321 18.623Z"/><path fill="url(#k)" d="m78.022 418.546 46.236.053.314-18.622-46.278-.045-.272 18.614Z"/><path fill="url(#l)" d="m26.2 418.486 46.189.053.265-18.611-46.233-.047-.22 18.605Z"/><path fill="url(#m)" d="m129.324 452.036 46.2.067.363-18.565-46.244-.06-.319 18.558Z"/><path fill="url(#n)" d="m77.537 451.959 46.155.069.314-18.559-46.2-.059-.269 18.549Z"/><path fill="url(#o)" d="m25.804 451.883 46.108.067.265-18.547-46.153-.06-.22 18.54Z"/><path fill="url(#p)" d="m128.749 485.349 46.119.085.363-18.503-46.163-.075-.319 18.493Z"/><path fill="url(#q)" d="m77.054 485.256 46.074.085.312-18.494-46.117-.076-.27 18.485Z"/><path fill="url(#r)" d="m25.41 485.165 46.027.082.265-18.484-46.072-.074-.22 18.476Z"/><path fill="url(#s)" d="m128.18 518.549 46.039.098.361-18.438-46.084-.089-.316 18.429Z"/><path fill="url(#t)" d="m76.573 518.44 45.995.098.312-18.429-46.04-.089-.267 18.42Z"/><path fill="url(#u)" d="m25.018 518.332 45.947.097.263-18.42-45.992-.089-.218 18.412Z"/><path fill="url(#v)" d="m127.608 551.636 45.962.113.36-18.376-46.005-.104-.317 18.367Z"/><path fill="url(#w)" d="m76.09 551.512 45.915.111.312-18.365-45.959-.105-.267 18.359Z"/><path fill="url(#x)" d="m24.625 551.385 45.87.113.26-18.358-45.912-.104-.218 18.349Z"/><path fill="url(#y)" d="m127.041 584.609 45.883.127.359-18.312-45.926-.12-.316 18.305Z"/><path fill="url(#z)" d="m75.612 584.467 45.837.127.309-18.303-45.88-.12-.266 18.296Z"/><path fill="url(#A)" d="m24.235 584.325 45.79.127.26-18.294-45.834-.118-.216 18.285Z"/><path fill="#BDD0FB" d="M437.65 294.618c.08-3.421 3.607-6.236 7.926-6.236h163.306c4.378 0 8.678 2.961 8.678 6.429v309.91c0 1.668-1.214 3.268-2.705 4.445-1.49 1.177-3.7 1.836-5.808 1.832l-170.747-.369c-2.125-.004-4.204-.684-5.69-1.887-1.486-1.203-2.324-2.864-2.283-4.547l7.32-309.579.003.002Z"/><g fill="#fff" opacity=".5"><path d="m557.915 324.901 46.523-.049.369-18.885H558.24l-.325 18.934ZM505.77 324.892l46.475-.049.319-18.876h-46.52l-.274 18.925ZM453.675 324.883l46.429-.049.267-18.867h-46.473l-.223 18.916ZM557.334 358.798l46.442.022.368-18.76-46.487-.016-.323 18.754ZM505.279 358.771l46.396.022.316-18.749-46.44-.016-.272 18.743ZM453.276 358.744l46.349.025.265-18.743-46.393-.015-.221 18.733ZM556.755 392.459l46.362.04.365-18.696-46.404-.031-.323 18.687ZM504.79 392.417l46.315.038.317-18.687-46.36-.029-.272 18.678ZM452.878 392.373l46.268.04.266-18.678-46.314-.029-.22 18.667ZM556.177 426.005l46.279.054.366-18.63-46.324-.046-.321 18.622ZM504.303 425.945l46.233.054.316-18.621-46.28-.046-.269 18.613ZM452.48 425.885l46.187.054.265-18.612-46.231-.044-.221 18.602ZM555.603 459.436l46.199.069.363-18.567-46.244-.06-.318 18.558ZM503.817 459.358l46.153.069.314-18.556-46.197-.06-.27 18.547ZM452.084 459.283l46.108.069.263-18.549-46.15-.06-.221 18.54ZM555.03 492.751l46.12.082.363-18.502-46.166-.073-.317 18.493ZM503.335 492.658l46.072.082.315-18.491-46.12-.076-.267 18.485ZM451.69 492.565l46.028.082.263-18.483-46.072-.075-.219 18.476ZM554.458 525.951l46.041.098.361-18.438-46.086-.091-.316 18.431ZM502.852 525.842l45.994.098.312-18.429-46.039-.091-.267 18.422ZM451.296 525.731l45.95.098.263-18.42-45.995-.089-.218 18.411ZM553.888 559.038l45.961.111.361-18.374-46.006-.104-.316 18.367ZM502.372 558.911l45.914.111.31-18.365-45.959-.104-.265 18.358ZM450.906 558.787l45.868.111.263-18.358-45.915-.102-.216 18.349ZM553.321 592.009l45.881.126.359-18.311-45.926-.118-.314 18.303ZM501.893 591.867l45.836.126.31-18.302-45.881-.118-.265 18.294ZM450.514 591.727l45.791.124.261-18.294-45.834-.117-.218 18.287Z"/></g><path fill="url(#B)" d="M485.7 110.503H123.077c-2.834 0-5.131 2.289-5.131 5.113v488.317c0 2.824 2.297 5.113 5.131 5.113H485.7c2.834 0 5.131-2.289 5.131-5.113V115.616c0-2.824-2.297-5.113-5.131-5.113Z"/><path fill="#7D97F4" d="M427.351 185.401H180.629c-9.352 0-16.934 7.555-16.934 16.875V526.5c0 9.319 7.582 16.875 16.934 16.875h246.722c9.353 0 16.934-7.556 16.934-16.875V202.276c0-9.32-7.581-16.875-16.934-16.875Z"/><path fill="url(#C)" d="M418.016 214.846H190.187c-2.805 0-5.08 2.267-5.08 5.062v293.499c0 2.796 2.275 5.062 5.08 5.062h227.829c2.806 0 5.08-2.266 5.08-5.062V219.908c0-2.795-2.274-5.062-5.08-5.062Z"/><path fill="url(#D)" d="M311.597 156.588a11.09 11.09 0 0 0 0-15.721c-4.356-4.341-11.419-4.341-15.776 0a11.09 11.09 0 0 0 0 15.721c4.357 4.341 11.42 4.341 15.776 0Z"/><path fill="#455A64" d="m375.777 328.184-143.514 2.378c-10.923.182-19.81 8.645-19.81 18.904v90.067c0 10.259 8.887 18.22 19.81 17.783l143.514-5.744c10.308-.413 18.636-8.782 18.636-18.698V345.83c0-9.915-8.328-17.815-18.636-17.644v-.002ZM383.04 311.895c-4.347.064-7.876-3.279-7.876-7.466v-19.713c0-19.774-16.785-35.815-37.564-35.755l-46.752.135c-21.314.063-38.781 16.576-38.781 36.812v20.173c0 4.287-3.7 7.814-8.272 7.883-4.581.069-8.299-3.361-8.299-7.661v-20.235c0-28.884 24.972-52.384 55.352-52.384H337.6c29.519 0 53.293 22.826 53.293 50.879v19.653c0 4.176-3.514 7.612-7.853 7.677v.002Z"/><path fill="#37474F" d="M327.238 378.099c0-10.008-8.769-17.867-19.427-17.146-9.426.64-17.222 8.161-17.73 17.142-.394 6.969 3.449 12.994 9.291 16.04 2.486 1.297 3.72 4.028 3.237 6.73l-4.097 22.914c-.522 2.917 1.831 5.481 4.928 5.37l10.531-.375c3.081-.111 5.418-2.831 4.901-5.702l-4.095-22.703c-.487-2.708.925-5.397 3.416-6.882 5.418-3.228 9.045-8.954 9.045-15.392v.004Z"/><path fill="url(#E)" d="M126.56 302.029s-3.015-5.324-2.823-7.913c.192-2.586-1.426-6.385.296-6.105 1.722.282 2.077.051 2.545 3.155.467 3.103 5.899 16.662-.018 10.861v.002Z"/><path fill="url(#F)" d="M142.816 283.011c-1.742-.704-5.148-7.178-5.801-5.048-.653 2.129.276 5.048 0 5.954-.276.906-4.523 11.325-3.676 13.638.613 1.67 3.986 1.423 4.5 4.156.172.906.898 1.557 1.742 1.559.845 0 1.571-.648 1.743-1.556.069-.365 3.232-17.999 1.492-18.703Z"/><path fill="#2A373E" d="M87.209 260.856c-13.757 27.115-2.852 60.208 24.357 73.918 22.114 11.142 48.194 6.049 64.571-10.808l94.535 47.631a5.159 5.159 0 0 0 4.949-.171l9.245-5.488a5.568 5.568 0 0 0 .575-.402c.107-.087.212-.176.31-.267.033-.031.067-.062.1-.095.122-.122.241-.247.35-.378 0 0 .004-.004.004-.006a5.106 5.106 0 0 0 .804-5.149l-7.512-18.767a5.131 5.131 0 0 0-2.455-2.673l-9.469-4.771-2.506 4.94-8.134-4.098 2.506-4.94-7.61-3.834-2.306 4.542-9.885-4.982 2.306-4.542-3.683-1.856-1.187 2.338-8.288-4.176 1.188-2.338-6.446-3.248-2.506 4.939-4.605-2.32 2.506-4.939-3.99-2.012-2.506 4.938-7.981-4.021 2.507-4.94-11.218-5.652-4.803-2.42c3.915-23.136-7.43-47.085-29.544-58.227-27.209-13.71-60.418-2.842-74.175 24.272l-.004.002Zm32.208 3.746c5.51 2.775 7.718 9.478 4.933 14.968s-9.511 7.691-15.021 4.915c-5.509-2.775-7.717-9.477-4.932-14.968 2.785-5.49 9.511-7.69 15.02-4.915Z"/><path fill="#37474F" d="m163.835 277.472 44.813 22.579-2.506 4.939 7.98 4.021 2.507-4.94 3.99 2.012-2.507 4.94 4.605 2.32 2.507-4.94 6.445 3.248-1.187 2.338 8.287 4.176 1.188-2.338 3.682 1.856-2.305 4.542 9.885 4.982 2.306-4.542 7.61 3.834-2.506 4.94 8.134 4.098 2.506-4.94 9.468 4.771a5.14 5.14 0 0 1 2.456 2.674l7.512 18.766a5.116 5.116 0 0 1-2.143 6.299l-9.246 5.488a5.157 5.157 0 0 1-4.948.171l-114.121-57.499 5.583-33.795h.005Z"/><path fill="url(#G)" d="M113.266 331.943c27.209 13.709 60.418 2.842 74.175-24.273 13.758-27.114 2.852-60.208-24.357-73.917-27.209-13.709-60.418-2.842-74.175 24.273-13.757 27.114-2.852 60.208 24.357 73.917Zm-2.234-50.288c-5.51-2.776-7.718-9.478-4.933-14.968 2.785-5.491 9.511-7.691 15.021-4.916 5.509 2.775 7.717 9.478 4.932 14.968-2.785 5.491-9.511 7.691-15.02 4.916Z"/><path fill="#455A64" d="m177.837 321.133 94.535 47.631a5.157 5.157 0 0 0 4.948-.171l9.246-5.488a5.108 5.108 0 0 0 2.457-3.741c-8.615-9.303-90.516-44.942-93.579-52.278-1.09-2.608-1.277-6.56 1.989-12.688l-4.803-2.42c3.914-23.136-7.43-47.084-29.544-58.227-27.209-13.709-60.418-2.842-74.175 24.273-13.757 27.114-2.852 60.207 24.357 73.917 22.114 11.142 48.194 6.047 64.571-10.808h-.002Zm-56.718-59.364c5.51 2.775 7.718 9.478 4.933 14.968s-9.511 7.691-15.02 4.915c-5.51-2.775-7.718-9.477-4.933-14.968 2.785-5.49 9.511-7.69 15.02-4.915Z"/><path fill="#37474F" d="M118.156 322.308c21.869 11.018 48.561 2.284 59.618-19.509 11.057-21.793 2.293-48.392-19.576-59.41-21.869-11.019-48.561-2.285-59.618 19.508-11.057 21.793-2.293 48.392 19.576 59.411Zm-7.124-40.653c-5.51-2.775-7.718-9.478-4.933-14.968 2.785-5.491 9.511-7.691 15.02-4.916 5.51 2.775 7.718 9.478 4.933 14.968-2.785 5.491-9.511 7.691-15.02 4.916Z"/><g fill="#91B3FA" opacity=".3"><path d="M536.743 93.088a2.188 2.188 0 0 1-2.101-2.273 83.229 83.229 0 0 0-.013-7.083 2.188 2.188 0 0 1 2.052-2.278c.013 0 .029 0 .042-.002a2.19 2.19 0 0 1 2.288 2.087c.111 2.48.116 4.986.013 7.455a2.19 2.19 0 0 1-2.281 2.094Zm-3.415-20.785a83.364 83.364 0 0 0-1.575-6.902 2.185 2.185 0 0 1 1.539-2.684 2.196 2.196 0 0 1 2.694 1.534 88.04 88.04 0 0 1 1.657 7.264 2.185 2.185 0 0 1-2.02 2.575 2.194 2.194 0 0 1-2.295-1.787Zm-5.376-17.759a82.656 82.656 0 0 0-3.081-6.378 2.182 2.182 0 0 1 .898-2.96 2.2 2.2 0 0 1 2.969.895 87.31 87.31 0 0 1 3.244 6.716 2.183 2.183 0 0 1-1.876 3.044 2.193 2.193 0 0 1-2.154-1.319v.002Zm-9.226-16.113a83.47 83.47 0 0 0-4.433-5.535 2.18 2.18 0 0 1 .214-3.084 2.198 2.198 0 0 1 3.094.213 87.614 87.614 0 0 1 4.668 5.826 2.181 2.181 0 0 1-.477 3.055 2.198 2.198 0 0 1-3.066-.473v-.002Zm-12.598-13.665a84.625 84.625 0 0 0-5.554-4.418 2.183 2.183 0 0 1-.477-3.055 2.196 2.196 0 0 1 3.065-.473 87.89 87.89 0 0 1 5.844 4.649 2.185 2.185 0 0 1-1.299 3.83 2.186 2.186 0 0 1-1.577-.533h-.002ZM490.809 14.22a84.375 84.375 0 0 0-6.396-3.082 2.181 2.181 0 0 1-1.143-2.872 2.195 2.195 0 0 1 2.882-1.14 88.734 88.734 0 0 1 6.733 3.244 2.18 2.18 0 0 1 .894 2.96 2.197 2.197 0 0 1-2.97.892v-.002Zm-81.447-1.017a2.183 2.183 0 0 1 .902-2.957 87.582 87.582 0 0 1 6.749-3.222 2.195 2.195 0 0 1 2.878 1.153 2.182 2.182 0 0 1-1.156 2.868 82.093 82.093 0 0 0-6.408 3.06 2.197 2.197 0 0 1-2.967-.901h.002Zm64.174-5.879a82.749 82.749 0 0 0-6.92-1.583 2.187 2.187 0 0 1-1.758-2.546 2.197 2.197 0 0 1 2.556-1.752c2.442.45 4.892 1.01 7.287 1.667a2.186 2.186 0 1 1-1.165 4.214Zm-46.585-1.587a2.185 2.185 0 0 1 1.546-2.68 88.532 88.532 0 0 1 7.297-1.638 2.186 2.186 0 1 1 .782 4.3c-2.324.42-4.659.944-6.934 1.556a2.194 2.194 0 0 1-2.689-1.54l-.002.002Zm28.203-1.288a84.256 84.256 0 0 0-7.105-.002 2.188 2.188 0 0 1-2.283-2.091 2.188 2.188 0 0 1 2.051-2.274h.047c2.484-.106 5-.104 7.479 0a2.19 2.19 0 0 1 2.097 2.278 2.19 2.19 0 0 1-2.286 2.09ZM398.561 22.774c.43-.027.858-.18 1.223-.468.885-.702 1.8-1.395 2.721-2.065a2.18 2.18 0 0 0 .478-3.055 2.198 2.198 0 0 0-3.065-.477 89.97 89.97 0 0 0-2.861 2.169 2.18 2.18 0 0 0-.354 3.07 2.199 2.199 0 0 0 1.86.824l-.002.002Z"/></g><g fill="#91B3FA" opacity=".3"><path d="M366.585 81.301a2.191 2.191 0 0 0 2.043-1.974c.107-1.12.24-2.26.396-3.383a2.188 2.188 0 0 0-1.873-2.464 2.19 2.19 0 0 0-2.473 1.867 88.651 88.651 0 0 0-.417 3.563 2.189 2.189 0 0 0 2.324 2.389v.002ZM452.627 174.616a2.191 2.191 0 0 1-2.225-2.156 2.187 2.187 0 0 1 2.161-2.216 84.9 84.9 0 0 0 6.982-.391 2.193 2.193 0 0 1 2.395 1.965 2.186 2.186 0 0 1-1.972 2.387 92.076 92.076 0 0 1-7.345.411h.004Zm16.498-3.99a2.187 2.187 0 0 1 1.628-2.631 84.17 84.17 0 0 0 6.731-1.889 2.186 2.186 0 1 1 1.366 4.154 88.308 88.308 0 0 1-7.085 1.989 2.19 2.19 0 0 1-2.64-1.623Zm-28.432 3.343a86.596 86.596 0 0 1-7.261-1.205 2.186 2.186 0 0 1-1.695-2.589 2.194 2.194 0 0 1 2.597-1.689c2.275.477 4.594.861 6.893 1.143a2.19 2.19 0 0 1 1.91 2.438 2.194 2.194 0 0 1-2.447 1.902h.003Zm46.304-9.193a2.182 2.182 0 0 1 1.009-2.924 82.977 82.977 0 0 0 6.147-3.317 2.197 2.197 0 0 1 3.008.755 2.181 2.181 0 0 1-.758 2.997 88.031 88.031 0 0 1-6.472 3.495 2.198 2.198 0 0 1-2.934-1.006Zm-65.056 4.744a87.492 87.492 0 0 1-6.813-2.766 2.182 2.182 0 0 1-1.083-2.895 2.196 2.196 0 0 1 2.907-1.079 82.899 82.899 0 0 0 6.472 2.626 2.184 2.184 0 0 1-.603 4.239c-.29.017-.588-.02-.88-.125Zm-17.318-8.438a88.636 88.636 0 0 1-6.044-4.179 2.179 2.179 0 0 1-.423-3.061 2.195 2.195 0 0 1 3.072-.422 84.34 84.34 0 0 0 5.744 3.972 2.183 2.183 0 0 1-1.036 4.027 2.19 2.19 0 0 1-1.313-.335v-.002Zm-15.06-12a88.491 88.491 0 0 1-4.988-5.393 2.179 2.179 0 0 1 .256-3.081 2.198 2.198 0 0 1 3.092.255 85.233 85.233 0 0 0 4.739 5.124c.858.852.86 2.238.002 3.09a2.198 2.198 0 0 1-3.101.003v.002Zm-12.075-14.988a87.368 87.368 0 0 1-3.683-6.354 2.184 2.184 0 0 1 .929-2.951 2.198 2.198 0 0 1 2.959.926 81.817 81.817 0 0 0 3.498 6.032 2.18 2.18 0 0 1-.676 3.017 2.191 2.191 0 0 1-3.027-.673v.003Zm-8.48-17.275a87.539 87.539 0 0 1-2.185-7 2.181 2.181 0 0 1 1.557-2.673 2.195 2.195 0 0 1 2.683 1.552 81.5 81.5 0 0 0 2.076 6.649 2.184 2.184 0 0 1-1.927 2.919 2.197 2.197 0 0 1-2.204-1.445v-.002Zm-4.462-18.69a88.893 88.893 0 0 1-.61-7.306c-.052-1.205.873-2.246 2.1-2.273a2.19 2.19 0 0 1 2.284 2.094 85.007 85.007 0 0 0 .577 6.947 2.186 2.186 0 0 1-1.905 2.439c-.044.005-.091.011-.136.014a2.19 2.19 0 0 1-2.312-1.912l.002-.002ZM505.034 155.931a2.196 2.196 0 0 0 1.232-.475 91.006 91.006 0 0 0 2.758-2.3 2.18 2.18 0 0 0 .211-3.084 2.196 2.196 0 0 0-3.094-.211c-.86.746-1.74 1.481-2.62 2.185a2.18 2.18 0 0 0-.339 3.072 2.199 2.199 0 0 0 1.852.815v-.002Z"/></g><path fill="#91B3FA" d="M509.177 118.686c.254-.355.257-.83 0-1.186l-7.227-10.137a54.027 54.027 0 0 0 3.993-17.09l10.963-5.92a1.02 1.02 0 0 0 .523-1.065l-2.448-14.713a1.02 1.02 0 0 0-.84-.839l-12.293-2.073a54.123 54.123 0 0 0-9.315-14.893l3.556-11.918a1.022 1.022 0 0 0-.386-1.12l-12.171-8.68a1.022 1.022 0 0 0-1.189 0l-10.173 7.203a54.508 54.508 0 0 0-17.15-3.979l-5.94-10.925a1.026 1.026 0 0 0-1.069-.522l-14.764 2.44a1.02 1.02 0 0 0-.842.837l-2.081 12.253a54.381 54.381 0 0 0-14.945 9.282l-11.959-3.543a1.027 1.027 0 0 0-1.125.384l-8.709 12.129c-.254.355-.256.83 0 1.185l7.227 10.137a53.988 53.988 0 0 0-3.992 17.091l-10.963 5.919a1.019 1.019 0 0 0-.524 1.066l2.449 14.712c.071.431.409.769.839.84l12.294 2.073a54.126 54.126 0 0 0 9.315 14.893l-3.556 11.917a1.02 1.02 0 0 0 .385 1.122l12.171 8.678c.357.253.834.255 1.19 0l10.172-7.202a54.488 54.488 0 0 0 17.151 3.979l5.939 10.925c.207.382.637.593 1.07.522l14.764-2.44a1.02 1.02 0 0 0 .842-.837l2.081-12.251a54.382 54.382 0 0 0 14.944-9.282l11.96 3.543c.418.124.871-.031 1.125-.384l8.708-12.129v-.002Z"/><path fill="#BDD0FB" d="M450.134 101.584c-8.268-.686-14.432-7.943-13.746-16.182a14.877 14.877 0 0 1 5.273-10.202 14.973 14.973 0 0 1 10.966-3.496c8.268.686 14.432 7.943 13.746 16.182-.626 7.495-6.71 13.256-14.029 13.721-.726.046-1.464.039-2.21-.023Zm-6.207-23.713a11.408 11.408 0 0 0-4.043 7.822c-.526 6.316 4.201 11.882 10.54 12.406 6.34.528 11.923-4.188 12.451-10.504.526-6.316-4.201-11.882-10.54-12.406a11.473 11.473 0 0 0-8.408 2.68v.002Z"/><path fill="#BDD0FB" d="M453.411 123.235a37.622 37.622 0 0 0 10.736-2.284c.072-.027.143-.054.214-.083l.414-.159a.871.871 0 0 0 .493-1.135.88.88 0 0 0-1.139-.491 35.4 35.4 0 0 1-7.231 1.994c-12.318 2.038-24.226-2.589-32.008-11.223a34.852 34.852 0 0 1-8.517-17.672 35.145 35.145 0 0 1-.413-3.59c-.51-8.041 1.749-15.945 6.517-22.585 5.476-7.629 13.606-12.675 22.891-14.209 19.176-3.168 37.349 9.795 40.528 28.895.196 1.177.332 2.36.405 3.546a34.91 34.91 0 0 1-2.373 15.056.872.872 0 0 0 .495 1.133.88.88 0 0 0 1.139-.493 36.617 36.617 0 0 0 2.49-15.808 36.854 36.854 0 0 0-.425-3.72c-3.338-20.055-22.428-33.66-42.544-30.336-9.747 1.611-18.282 6.909-24.032 14.917-5.006 6.971-7.379 15.27-6.842 23.71.08 1.255.225 2.514.433 3.77 1.617 9.716 6.933 18.219 14.966 23.949 6.998 4.989 15.328 7.353 23.801 6.818h.002Z"/><g fill="#91B3FA" opacity=".3"><path d="M615.338 145.847a1.352 1.352 0 0 0 1.234-1.05c.254-1.119.477-2.258.662-3.39a1.35 1.35 0 0 0-1.118-1.55 1.35 1.35 0 0 0-1.555 1.115 56.905 56.905 0 0 1-.631 3.232 1.35 1.35 0 0 0 1.023 1.614c.129.029.258.038.385.029ZM616.55 135.55a1.35 1.35 0 0 1-1.301-1.401c.071-1.88.047-3.785-.071-5.663a55.01 55.01 0 0 0-.09-1.193 1.353 1.353 0 0 1 1.237-1.458c.706-.031 1.401.488 1.464 1.232a57.942 57.942 0 0 1 .167 7.184 1.352 1.352 0 0 1-1.404 1.295l-.002.004Zm-2.46-15.041a55.972 55.972 0 0 0-1.818-6.61 1.349 1.349 0 0 1 .845-1.714 1.36 1.36 0 0 1 1.72.842 58.962 58.962 0 0 1 1.907 6.929 1.35 1.35 0 0 1-1.243 1.623 1.356 1.356 0 0 1-1.411-1.07Zm-4.446-12.948a55.194 55.194 0 0 0-3.396-5.963 1.348 1.348 0 0 1 .395-1.867 1.355 1.355 0 0 1 1.875.393 57.882 57.882 0 0 1 3.561 6.254 1.348 1.348 0 0 1-1.132 1.938 1.354 1.354 0 0 1-1.303-.755Zm-7.502-11.465a55.924 55.924 0 0 0-4.754-4.953 1.345 1.345 0 0 1-.076-1.907 1.359 1.359 0 0 1 1.914-.076 58.567 58.567 0 0 1 4.986 5.196 1.348 1.348 0 0 1-.947 2.218 1.357 1.357 0 0 1-1.123-.476v-.002Zm-10.083-9.291a56.4 56.4 0 0 0-5.819-3.654 1.348 1.348 0 0 1-.537-1.832 1.354 1.354 0 0 1 1.838-.535 59.172 59.172 0 0 1 6.1 3.83 1.349 1.349 0 0 1-.707 2.444 1.35 1.35 0 0 1-.875-.25v-.003Zm-12.042-6.57a55.46 55.46 0 0 0-6.532-2.126 1.35 1.35 0 1 1 .68-2.613c2.317.599 4.622 1.35 6.85 2.23a1.348 1.348 0 0 1-.414 2.603 1.322 1.322 0 0 1-.586-.093h.002Zm-13.282-3.434a55.673 55.673 0 0 0-6.862-.464 1.352 1.352 0 0 1-1.346-1.359c.005-.746.613-1.334 1.364-1.343 2.403.016 4.825.18 7.196.489a1.351 1.351 0 0 1 1.167 1.514 1.352 1.352 0 0 1-1.519 1.163Zm-22.141.138a1.35 1.35 0 0 1 .996-1.632 59.374 59.374 0 0 1 7.1-1.272c.737-.107 1.417.444 1.502 1.185a1.35 1.35 0 0 1-1.19 1.497 56.147 56.147 0 0 0-6.771 1.21 1.355 1.355 0 0 1-1.637-.992v.004Z"/></g><g fill="#91B3FA" opacity=".3"><path d="M562.375 190.192a59.478 59.478 0 0 1-7.091-.071 1.353 1.353 0 0 1-1.257-1.443 1.363 1.363 0 0 1 1.448-1.252c2.239.157 4.514.18 6.764.066a1.355 1.355 0 0 1 1.422 1.281c.037.74-.528 1.37-1.268 1.417h-.018v.002Zm5.487-1.883a1.349 1.349 0 0 1 1.105-1.558 56.614 56.614 0 0 0 6.59-1.541 1.36 1.36 0 0 1 1.687.908 1.352 1.352 0 0 1-.909 1.681 59.607 59.607 0 0 1-6.907 1.614c-.049.009-.098.013-.147.017a1.352 1.352 0 0 1-1.419-1.118v-.003Zm-19.614.882a58.913 58.913 0 0 1-6.866-1.776 1.351 1.351 0 1 1 .837-2.569 56.36 56.36 0 0 0 6.55 1.696 1.35 1.35 0 0 1 1.07 1.583 1.355 1.355 0 0 1-1.591 1.066Zm32.966-4.527a1.347 1.347 0 0 1 .697-1.778 55.825 55.825 0 0 0 6.02-3.08 1.361 1.361 0 0 1 1.856.471c.381.641.169 1.47-.475 1.849a58.177 58.177 0 0 1-6.314 3.231 1.352 1.352 0 0 1-1.784-.695v.002Zm-46.427.155a58.677 58.677 0 0 1-6.233-3.37 1.348 1.348 0 0 1-.433-1.86 1.356 1.356 0 0 1 1.867-.431 55.604 55.604 0 0 0 5.947 3.215 1.35 1.35 0 0 1-.488 2.571 1.356 1.356 0 0 1-.658-.125h-.002Zm-12.017-7.464a59.059 59.059 0 0 1-5.247-4.76 1.346 1.346 0 0 1 .025-1.907 1.36 1.36 0 0 1 1.916.025 56.464 56.464 0 0 0 5.006 4.54 1.35 1.35 0 0 1-.764 2.397 1.358 1.358 0 0 1-.936-.295Zm-9.878-10.117a57.989 57.989 0 0 1-3.948-5.877 1.346 1.346 0 0 1 .486-1.847 1.359 1.359 0 0 1 1.853.484 55.223 55.223 0 0 0 3.765 5.604 1.345 1.345 0 0 1-.258 1.891 1.357 1.357 0 0 1-1.898-.255ZM594.497 178.399c.26-.016.519-.109.742-.28a57.653 57.653 0 0 0 2.678-2.191 1.35 1.35 0 0 0 .131-1.905 1.36 1.36 0 0 0-1.911-.131 55.294 55.294 0 0 1-2.554 2.089 1.347 1.347 0 0 0-.242 1.894c.285.368.724.548 1.158.521l-.002.003Z"/></g><path fill="#91B3FA" d="M598.093 152.947a.683.683 0 0 0 0-.795l-4.835-6.782a36.113 36.113 0 0 0 2.671-11.436l7.337-3.961a.68.68 0 0 0 .349-.712l-1.637-9.847a.682.682 0 0 0-.562-.561l-8.227-1.388a36.233 36.233 0 0 0-6.234-9.966l2.38-7.975a.682.682 0 0 0-.259-.75l-8.145-5.808a.687.687 0 0 0-.797 0l-6.807 4.818a36.446 36.446 0 0 0-11.475-2.662l-3.975-7.311a.684.684 0 0 0-.715-.349l-9.881 1.632a.685.685 0 0 0-.563.56l-1.393 8.198a36.386 36.386 0 0 0-10.001 6.212l-8.002-2.371a.686.686 0 0 0-.753.258l-5.828 8.117a.675.675 0 0 0 0 .792l4.834 6.783a36.113 36.113 0 0 0-2.671 11.436l-7.337 3.96a.678.678 0 0 0-.349.713l1.637 9.846a.685.685 0 0 0 .562.562l8.227 1.387a36.224 36.224 0 0 0 6.234 9.967l-2.38 7.974c-.082.28.02.582.259.751l8.145 5.808a.688.688 0 0 0 .797 0l6.807-4.818a36.44 36.44 0 0 0 11.475 2.662l3.975 7.311c.14.255.428.397.715.348l9.881-1.632a.684.684 0 0 0 .563-.559l1.393-8.199a36.38 36.38 0 0 0 10.001-6.212l8.002 2.371a.688.688 0 0 0 .753-.257l5.829-8.117v.002Z"/><path fill="#BDD0FB" d="M558.568 141.684a10.182 10.182 0 0 1-6.973-3.578 10.118 10.118 0 0 1-2.391-7.445c.468-5.61 5.423-9.788 11.062-9.331 5.632.469 9.831 5.413 9.361 11.023a10.134 10.134 0 0 1-3.591 6.949 10.197 10.197 0 0 1-7.47 2.382h.002Zm-6.664-10.798a7.447 7.447 0 0 0 1.758 5.477 7.514 7.514 0 0 0 5.129 2.633 7.525 7.525 0 0 0 5.496-1.754 7.452 7.452 0 0 0 2.642-5.111c.345-4.127-2.745-7.764-6.886-8.108a7.734 7.734 0 0 0-1.107-.011c-3.668.231-6.718 3.119-7.032 6.874Z"/><path fill="#BDD0FB" d="M560.851 156.752a25.728 25.728 0 0 0 7.595-1.651c.074-.029.145-.058.219-.085a1.35 1.35 0 0 0 .762-1.751 1.356 1.356 0 0 0-1.758-.757 22.895 22.895 0 0 1-4.681 1.289c-.087.016-.176.029-.263.043a22.66 22.66 0 0 1-11.122-1.042 22.895 22.895 0 0 1-5.451-2.819c-.013-.009-.027-.02-.042-.029a7.534 7.534 0 0 0-.127-.089c-4.955-3.534-8.235-8.778-9.231-14.768a22.985 22.985 0 0 1-.267-2.325c-.332-5.206 1.132-10.323 4.22-14.621 3.547-4.938 8.809-8.204 14.82-9.196 6.006-.99 12.05.406 17.005 3.938 4.955 3.535 8.234 8.779 9.23 14.769a22.583 22.583 0 0 1-1.272 12.039 1.344 1.344 0 0 0 .764 1.75 1.359 1.359 0 0 0 1.758-.762 25.302 25.302 0 0 0 1.426-13.471c-1.116-6.703-4.784-12.571-10.329-16.523-5.543-3.951-12.298-5.521-19.024-4.404-6.725 1.11-12.612 4.764-16.579 10.29-3.454 4.809-5.091 10.534-4.721 16.358.055.863.153 1.732.298 2.6 2.161 12.974 13.875 22.039 26.775 21.222l-.005-.005Z"/><defs><linearGradient id="a" x1="131.637" x2="178.529" y1="308.034" y2="308.034" gradientUnits="userSpaceOnUse"><stop stop-color="#DAE3FE"/><stop offset="1" stop-color="#E9EFFD"/></linearGradient><linearGradient id="b" x1="79.491" x2="126.286" y1="308.03" y2="308.03" gradientUnits="userSpaceOnUse"><stop stop-color="#DAE3FE"/><stop offset="1" stop-color="#E9EFFD"/></linearGradient><linearGradient id="c" x1="27.396" x2="74.093" y1="308.025" y2="308.025" gradientUnits="userSpaceOnUse"><stop stop-color="#DAE3FE"/><stop offset="1" stop-color="#E9EFFD"/></linearGradient><linearGradient id="d" x1="131.056" x2="177.866" y1="342.031" y2="342.031" gradientUnits="userSpaceOnUse"><stop stop-color="#DAE3FE"/><stop offset="1" stop-color="#E9EFFD"/></linearGradient><linearGradient id="e" x1="78.999" x2="125.713" y1="342.011" y2="342.011" gradientUnits="userSpaceOnUse"><stop stop-color="#DAE3FE"/><stop offset="1" stop-color="#E9EFFD"/></linearGradient><linearGradient id="f" x1="26.996" x2="73.612" y1="341.989" y2="341.989" gradientUnits="userSpaceOnUse"><stop stop-color="#DAE3FE"/><stop offset="1" stop-color="#E9EFFD"/></linearGradient><linearGradient id="g" x1="130.476" x2="177.203" y1="375.735" y2="375.735" gradientUnits="userSpaceOnUse"><stop stop-color="#DAE3FE"/><stop offset="1" stop-color="#E9EFFD"/></linearGradient><linearGradient id="h" x1="78.511" x2="125.14" y1="375.697" y2="375.697" gradientUnits="userSpaceOnUse"><stop stop-color="#DAE3FE"/><stop offset="1" stop-color="#E9EFFD"/></linearGradient><linearGradient id="i" x1="26.597" x2="73.13" y1="375.657" y2="375.657" gradientUnits="userSpaceOnUse"><stop stop-color="#DAE3FE"/><stop offset="1" stop-color="#E9EFFD"/></linearGradient><linearGradient id="j" x1="129.899" x2="176.544" y1="409.321" y2="409.321" gradientUnits="userSpaceOnUse"><stop stop-color="#DAE3FE"/><stop offset="1" stop-color="#E9EFFD"/></linearGradient><linearGradient id="k" x1="78.022" x2="124.572" y1="409.266" y2="409.266" gradientUnits="userSpaceOnUse"><stop stop-color="#DAE3FE"/><stop offset="1" stop-color="#E9EFFD"/></linearGradient><linearGradient id="l" x1="26.2" x2="72.654" y1="409.21" y2="409.21" gradientUnits="userSpaceOnUse"><stop stop-color="#DAE3FE"/><stop offset="1" stop-color="#E9EFFD"/></linearGradient><linearGradient id="m" x1="129.324" x2="175.887" y1="442.79" y2="442.79" gradientUnits="userSpaceOnUse"><stop stop-color="#DAE3FE"/><stop offset="1" stop-color="#E9EFFD"/></linearGradient><linearGradient id="n" x1="77.537" x2="124.006" y1="442.719" y2="442.719" gradientUnits="userSpaceOnUse"><stop stop-color="#DAE3FE"/><stop offset="1" stop-color="#E9EFFD"/></linearGradient><linearGradient id="o" x1="25.804" x2="72.177" y1="442.647" y2="442.647" gradientUnits="userSpaceOnUse"><stop stop-color="#DAE3FE"/><stop offset="1" stop-color="#E9EFFD"/></linearGradient><linearGradient id="p" x1="128.749" x2="175.231" y1="476.145" y2="476.145" gradientUnits="userSpaceOnUse"><stop stop-color="#DAE3FE"/><stop offset="1" stop-color="#E9EFFD"/></linearGradient><linearGradient id="q" x1="77.054" x2="123.44" y1="476.056" y2="476.056" gradientUnits="userSpaceOnUse"><stop stop-color="#DAE3FE"/><stop offset="1" stop-color="#E9EFFD"/></linearGradient><linearGradient id="r" x1="25.409" x2="71.702" y1="475.967" y2="475.967" gradientUnits="userSpaceOnUse"><stop stop-color="#DAE3FE"/><stop offset="1" stop-color="#E9EFFD"/></linearGradient><linearGradient id="s" x1="128.18" x2="174.58" y1="509.385" y2="509.385" gradientUnits="userSpaceOnUse"><stop stop-color="#DAE3FE"/><stop offset="1" stop-color="#E9EFFD"/></linearGradient><linearGradient id="t" x1="76.573" x2="122.88" y1="509.278" y2="509.278" gradientUnits="userSpaceOnUse"><stop stop-color="#DAE3FE"/><stop offset="1" stop-color="#E9EFFD"/></linearGradient><linearGradient id="u" x1="25.018" x2="71.228" y1="509.174" y2="509.174" gradientUnits="userSpaceOnUse"><stop stop-color="#DAE3FE"/><stop offset="1" stop-color="#E9EFFD"/></linearGradient><linearGradient id="v" x1="127.608" x2="173.93" y1="542.509" y2="542.509" gradientUnits="userSpaceOnUse"><stop stop-color="#DAE3FE"/><stop offset="1" stop-color="#E9EFFD"/></linearGradient><linearGradient id="w" x1="76.091" x2="122.317" y1="542.387" y2="542.387" gradientUnits="userSpaceOnUse"><stop stop-color="#DAE3FE"/><stop offset="1" stop-color="#E9EFFD"/></linearGradient><linearGradient id="x" x1="24.625" x2="70.755" y1="542.267" y2="542.267" gradientUnits="userSpaceOnUse"><stop stop-color="#DAE3FE"/><stop offset="1" stop-color="#E9EFFD"/></linearGradient><linearGradient id="y" x1="127.041" x2="173.283" y1="575.52" y2="575.52" gradientUnits="userSpaceOnUse"><stop stop-color="#DAE3FE"/><stop offset="1" stop-color="#E9EFFD"/></linearGradient><linearGradient id="z" x1="75.612" x2="121.758" y1="575.382" y2="575.382" gradientUnits="userSpaceOnUse"><stop stop-color="#DAE3FE"/><stop offset="1" stop-color="#E9EFFD"/></linearGradient><linearGradient id="A" x1="24.235" x2="70.286" y1="575.245" y2="575.245" gradientUnits="userSpaceOnUse"><stop stop-color="#DAE3FE"/><stop offset="1" stop-color="#E9EFFD"/></linearGradient><linearGradient id="B" x1="414.423" x2="280.743" y1="-279.861" y2="502.66" gradientUnits="userSpaceOnUse"><stop stop-color="#4042E2"/><stop offset="1" stop-color="#4F52FF"/></linearGradient><linearGradient id="C" x1="185.107" x2="423.096" y1="366.659" y2="366.659" gradientUnits="userSpaceOnUse"><stop stop-color="#4042E2"/><stop offset="1" stop-color="#4F52FF"/></linearGradient><linearGradient id="D" x1="322.636" x2="394.616" y1="105.201" y2="-61.487" gradientUnits="userSpaceOnUse"><stop stop-color="#09005D"/><stop offset="1" stop-color="#1A0F91"/></linearGradient><linearGradient id="E" x1="143.195" x2="70.636" y1="281.149" y2="344.046" gradientUnits="userSpaceOnUse"><stop stop-color="#FEBBBA"/><stop offset="1" stop-color="#FF928E"/></linearGradient><linearGradient id="F" x1="145.889" x2="73.329" y1="284.257" y2="347.154" gradientUnits="userSpaceOnUse"><stop stop-color="#FEBBBA"/><stop offset="1" stop-color="#FF928E"/></linearGradient><linearGradient id="G" x1="74.05" x2="362.635" y1="278.076" y2="299.741" gradientUnits="userSpaceOnUse"><stop stop-color="#FF9085"/><stop offset="1" stop-color="#FB6FBB"/></linearGradient></defs></svg>