<svg xmlns="http://www.w3.org/2000/svg" width="648" height="570" fill="none"><g clip-path="url(#a)"><path fill="#0052BF" d="M611.376 337.903c-17.862 54.235-56.353 113.668-113.012 133.029-85.589 29.239-93.243 99.546-248.586 99.068-24.217-.066-46.701-2.612-67.449-7.253-11.149-2.493-21.808-5.609-31.937-9.282C58.393 520.207 7.998 441.149.808 356.666c-9.48-111.109 66.033-167.174 115.237-200.192C165.248 123.455 221.35.73 374.071 0c23.278-.106 46.609 2.188 69.33 7.413 51.852 11.921 105.213 40.67 137.256 84.469a203.03 203.03 0 0 1 6.925 10.104c43.232 67.363 48.158 161.963 23.794 235.904v.013Z"/><path fill="#fff" d="M611.376 337.903c-17.862 54.235-56.353 113.668-113.012 133.029-85.589 29.239-93.243 99.546-248.586 99.068-24.217-.066-46.701-2.612-67.449-7.253-11.149-2.493-21.808-5.609-31.937-9.282C58.393 520.207 7.998 441.149.808 356.666c-9.48-111.109 66.033-167.174 115.237-200.192C165.248 123.455 221.35.73 374.071 0c23.278-.106 46.609 2.188 69.33 7.413 51.852 11.921 105.213 40.67 137.256 84.469a203.03 203.03 0 0 1 6.925 10.104c43.232 67.363 48.158 161.963 23.794 235.904v.013Z" opacity=".7"/><path fill="#fff" stroke="#263238" stroke-miterlimit="10" d="M445.466 48.043V503.71c0 12.505-10.129 22.649-22.615 22.649H226.249c-12.487 0-22.616-10.144-22.616-22.649V48.029c0-12.504 10.116-22.635 22.602-22.635h84.385l.066.265c2.106 7.585 6.939 12.505 12.314 12.505h3.085c5.376 0 10.209-4.933 12.315-12.505l.079-.265h84.358c12.487 0 22.616 10.144 22.616 22.649h.013Z"/><path fill="#263238" stroke="#263238" stroke-linecap="round" stroke-linejoin="round" d="M361.677 307.28H291.54a6.414 6.414 0 0 0-6.409 6.418v13.048a6.413 6.413 0 0 0 6.409 6.418h70.137a6.413 6.413 0 0 0 6.409-6.418v-13.048a6.414 6.414 0 0 0-6.409-6.418Z"/><path fill="#DBDBDB" stroke="#263238" stroke-linecap="round" stroke-linejoin="round" d="M203.646 384.593v119.105c0 12.504 10.13 22.649 22.616 22.649h196.602c12.486 0 22.615-10.145 22.615-22.649V384.593H203.646Z"/><path fill="#fff" d="M277.292 398.98h-60.286a3.007 3.007 0 0 0-3.005 3.01v16.284a3.007 3.007 0 0 0 3.005 3.01h60.286a3.008 3.008 0 0 0 3.006-3.01V401.99a3.008 3.008 0 0 0-3.006-3.01Zm74.19 0h-60.287a3.007 3.007 0 0 0-3.005 3.01v16.284a3.007 3.007 0 0 0 3.005 3.01h60.287a3.007 3.007 0 0 0 3.005-3.01V401.99a3.007 3.007 0 0 0-3.005-3.01Zm74.202 0h-60.286a3.008 3.008 0 0 0-3.006 3.01v16.284a3.008 3.008 0 0 0 3.006 3.01h60.286a3.008 3.008 0 0 0 3.006-3.01V401.99a3.008 3.008 0 0 0-3.006-3.01Zm-148.392 28.497h-60.286a3.007 3.007 0 0 0-3.005 3.01v16.284a3.007 3.007 0 0 0 3.005 3.01h60.286a3.008 3.008 0 0 0 3.006-3.01v-16.284a3.008 3.008 0 0 0-3.006-3.01Zm74.19 0h-60.287a3.007 3.007 0 0 0-3.005 3.01v16.284a3.007 3.007 0 0 0 3.005 3.01h60.287a3.007 3.007 0 0 0 3.005-3.01v-16.284a3.007 3.007 0 0 0-3.005-3.01Zm74.202 0h-60.286a3.008 3.008 0 0 0-3.006 3.01v16.284a3.008 3.008 0 0 0 3.006 3.01h60.286a3.008 3.008 0 0 0 3.006-3.01v-16.284a3.008 3.008 0 0 0-3.006-3.01Zm-148.392 28.51h-60.286a3.007 3.007 0 0 0-3.005 3.01v16.284a3.007 3.007 0 0 0 3.005 3.01h60.286a3.008 3.008 0 0 0 3.006-3.01v-16.284a3.008 3.008 0 0 0-3.006-3.01Zm74.19 0h-60.287a3.007 3.007 0 0 0-3.005 3.01v16.284a3.007 3.007 0 0 0 3.005 3.01h60.287a3.007 3.007 0 0 0 3.005-3.01v-16.284a3.007 3.007 0 0 0-3.005-3.01Zm74.202 0h-60.286a3.008 3.008 0 0 0-3.006 3.01v16.284a3.008 3.008 0 0 0 3.006 3.01h60.286a3.008 3.008 0 0 0 3.006-3.01v-16.284a3.008 3.008 0 0 0-3.006-3.01Zm-74.202 28.496h-60.287a3.008 3.008 0 0 0-3.005 3.011v16.283a3.007 3.007 0 0 0 3.005 3.01h60.287a3.007 3.007 0 0 0 3.005-3.01v-16.283a3.008 3.008 0 0 0-3.005-3.011Zm69.197 22.318h-41.352l-8.937-10.396 8.937-11.922h41.352v22.318Z"/><path fill="#0052BF" d="m327.211 112.829-.596-.451-.596.451s-30.48 17.358-44.224 23.949c0 0 6.58 37.115 11.36 53.863 4.78 16.762 23.304 25.739 33.473 31.719 10.156-5.98 28.694-14.957 33.474-31.719 4.78-16.761 11.36-53.863 11.36-53.863-13.744-6.591-44.224-23.949-44.224-23.949h-.027Z"/><path fill="#fff" d="m323.477 184.581-20.219-17.358c-1.946-1.67-2.171-4.601-.503-6.537 1.668-1.949 4.595-2.175 6.528-.504l13.254 11.378 22.682-25.885a4.627 4.627 0 0 1 6.541-.424 4.645 4.645 0 0 1 .424 6.551l-28.72 32.779h.013Z"/><path fill="#fff" stroke="#263238" stroke-miterlimit="10" d="M247.712 243.086h-27.488v27.529h27.488v-27.529Zm37.048 0h-27.488v27.529h27.488v-27.529Zm37.062 0h-27.488v27.529h27.488v-27.529Zm37.061 0h-27.488v27.529h27.488v-27.529Zm37.049 0h-27.489v27.529h27.489v-27.529Zm37.061 0h-27.488v27.529h27.488v-27.529Z"/><path fill="#DBDBDB" stroke="#263238" stroke-linecap="round" stroke-linejoin="round" d="M445.466 69.246V48.043c0-12.505-10.129-22.65-22.616-22.65h-84.358l-.079.266c-2.106 7.585-6.952 12.505-12.314 12.505h-3.085c-5.376 0-10.209-4.933-12.315-12.505l-.066-.265h-84.384c-12.487 0-22.603 10.13-22.603 22.635v21.217h241.82Z"/><path fill="#0052BF" stroke="#263238" stroke-linecap="round" stroke-linejoin="round" d="M460.839 156.871v-45.51h-4.105V53.095c0-19.838-16.061-35.91-35.856-35.91h-192.63c-19.809 0-35.857 16.085-35.857 35.91v462.988c0 19.838 16.062 35.909 35.857 35.909h192.63c19.808 0 35.856-16.085 35.856-35.909V195.658h4.105v-26.892h-4.105v-11.895h4.105Zm-15.373 333.553c0 19.838-16.061 35.923-35.87 35.923H239.503c-19.796 0-35.87-16.072-35.87-35.923V61.303c0-19.824 16.061-35.91 35.87-35.91h71.117l.066.266c2.106 7.585 6.938 12.505 12.314 12.505h3.085c5.376 0 10.209-4.933 12.315-12.505l.079-.265h71.104c19.795 0 35.87 16.071 35.87 35.909v429.134l.013-.013Z"/><path fill="#263238" stroke="#263238" stroke-linecap="round" stroke-linejoin="round" d="M417.991 22.132H231.108c-19.107 0-34.585 15.501-34.585 34.636v455.655c0 19.135 15.478 34.636 34.585 34.636h186.883c19.107 0 34.585-15.501 34.585-34.636V56.768c0-19.135-15.478-34.636-34.585-34.636Zm27.475 469.578c0 19.135-15.492 34.637-34.585 34.637H238.245c-19.107 0-34.586-15.515-34.586-34.637V60.03c0-19.122 15.479-34.623 34.573-34.623h72.401l.066.265c2.106 7.585 6.939 12.505 12.315 12.505h3.085c5.376 0 10.208-4.933 12.314-12.505l.079-.265h72.389c19.106 0 34.585 15.515 34.585 34.636V491.71Z"/><path fill="#fff" d="M327.184 27.118a3.37 3.37 0 0 0-3.363-3.368 3.37 3.37 0 0 0-3.363 3.368 3.37 3.37 0 0 0 3.363 3.368 3.37 3.37 0 0 0 3.363-3.368Z"/><path fill="#263238" d="M225.136 40.033c0 3.408-3.826 4.641-3.84 7.24v.173h3.708v1.153h-4.952v-.968c0-3.66 3.826-4.362 3.826-7.545 0-1.167-.384-1.777-1.324-1.777-.94 0-1.324.663-1.324 1.671v1.008h-1.178v-.915c0-1.724.794-2.878 2.529-2.878 1.734 0 2.555 1.128 2.555 2.865v-.027Zm6.184-.013v.292c0 1.167-.464 1.989-1.377 2.334.953.358 1.377 1.206 1.377 2.347v.875c0 1.724-.808 2.864-2.556 2.864-1.747 0-2.529-1.127-2.529-2.864v-.783h1.179v.862c0 1.021.423 1.631 1.324 1.631.9 0 1.324-.596 1.324-1.75v-.875c0-1.114-.464-1.645-1.417-1.684h-.675v-1.127h.741c.835-.027 1.351-.57 1.351-1.552v-.517c0-1.167-.411-1.764-1.324-1.764-.914 0-1.324.637-1.324 1.645v.583h-1.179v-.517c0-1.724.808-2.851 2.529-2.851 1.722 0 2.556 1.114 2.556 2.85Zm2.436.862v1.565h-1.205v-1.565h1.205Zm0 6.153v1.564h-1.205v-1.564h1.205Zm2.556-5.145c.357-.61.913-.942 1.681-.942 1.457 0 2.092 1.061 2.092 2.679v2.214c0 1.724-.821 2.864-2.555 2.864-1.735 0-2.529-1.127-2.529-2.864v-.756h1.178v.836c0 1.02.424 1.63 1.324 1.63.901 0 1.324-.61 1.324-1.63V43.72c0-1.021-.423-1.631-1.324-1.631-.688 0-1.165.384-1.271 1.206v.265h-1.178l.304-6.285h4.449v1.127h-3.323l-.172 3.474v.014Zm10.063-1.883v.212h-1.179v-.292c0-1.02-.423-1.618-1.337-1.618-.914 0-1.377.61-1.377 1.83v2.533c.305-.769.914-1.207 1.827-1.207 1.457 0 2.106 1.048 2.106 2.679v1.71c0 1.724-.861 2.865-2.582 2.865-1.722 0-2.596-1.127-2.596-2.864v-5.769c0-1.79.808-2.904 2.596-2.904 1.787 0 2.555 1.1 2.555 2.825h-.013Zm-3.893 4.23v1.697c0 1.021.424 1.631 1.337 1.631.914 0 1.338-.61 1.338-1.63v-1.698c0-1.021-.437-1.631-1.338-1.631-.9 0-1.337.61-1.337 1.63Zm127.246-3.74h-3.191v7.983h3.191v-7.983Zm4.25-1.591h-3.191v9.587h3.191v-9.587Zm4.264-1.14h-3.191v10.727h3.191V37.766Zm4.25-1.976h-3.191v12.703h3.191V35.79Zm39.485 12.478H402.83V36.546h19.147v11.722Zm-18.074-1.06h17.014V37.62h-17.014v9.587Z"/><path fill="#263238" d="M415.594 38.774h-10.102v7.266h10.102v-7.266Zm8.117 2.254h-2.41v2.758h2.41v-2.758Zm-27.899 4.694a.66.66 0 0 1-.37-.106c-3.893-2.32-6.475-.172-6.581-.08a.712.712 0 0 1-1.006-.066.726.726 0 0 1 .066-1.008c.132-.12 3.429-2.944 8.249-.08.344.2.45.637.251.982a.702.702 0 0 1-.609.345v.013Z"/><path fill="#263238" d="M397.256 43.309a.66.66 0 0 1-.371-.106c-5.628-3.355-9.414-.107-9.454-.08a.7.7 0 0 1-1.006-.066.702.702 0 0 1 .066-1.008c.04-.04 4.608-3.965 11.135-.08a.713.713 0 0 1-.357 1.326l-.013.014Z"/><path fill="#263238" d="M398.553 40.524a.659.659 0 0 1-.37-.106c-7.137-4.243-11.878-.252-12.076-.08a.725.725 0 0 1-1.007-.066.715.715 0 0 1 .067-1.008c.053-.053 5.693-4.88 13.744-.08.344.2.45.637.251.982a.702.702 0 0 1-.609.345v.013Zm-4.899 6.391a1.79 1.79 0 0 1-1.787 1.79c-.98 0-1.788-.808-1.788-1.79a1.8 1.8 0 0 1 1.788-1.79 1.8 1.8 0 0 1 1.787 1.79Zm8.236 449.264 6.448-6.458a1.977 1.977 0 0 0 0-2.811c-.781-.769-2.039-.782-2.807 0l-6.448 6.458-6.448-6.458a1.974 1.974 0 0 0-2.808 0 1.98 1.98 0 0 0 0 2.811l6.449 6.458-6.449 6.458a1.98 1.98 0 0 0 0 2.811c.384.385.901.584 1.404.584.503 0 1.02-.199 1.404-.584l6.448-6.458 6.448 6.458c.384.385.901.584 1.404.584.503 0 1.019-.199 1.403-.584a1.977 1.977 0 0 0 0-2.811l-6.448-6.458Zm-158.216-78.396v-13.074c-.08.039-.239.106-.464.185-.238.08-.49.159-.768.226-.278.079-.529.146-.768.212a4.223 4.223 0 0 0-.49.159v-2.055c.186-.067.411-.16.689-.279.278-.119.569-.252.887-.411.305-.159.596-.318.874-.504.265-.185.49-.384.662-.583h2.105v16.111h-2.741l.014.013Zm74.176 0v-1.949l3.972-6.153c.291-.451.569-.875.821-1.286.265-.411.463-.835.635-1.286.159-.438.252-.929.252-1.459 0-.597-.106-1.061-.318-1.366-.212-.318-.543-.477-.993-.477-.424 0-.755.119-.993.358s-.397.544-.49.928a6.301 6.301 0 0 0-.132 1.273v.676h-2.701v-.716c0-.954.145-1.79.423-2.519a3.534 3.534 0 0 1 1.364-1.698c.622-.411 1.43-.609 2.45-.609 1.377 0 2.409.371 3.098 1.113.689.743 1.033 1.777 1.033 3.103 0 .663-.093 1.26-.278 1.804a7.854 7.854 0 0 1-.742 1.538c-.304.491-.635.994-.993 1.512l-3.297 5.012h4.886v2.215h-7.997v-.014Zm77.486.239c-1.007 0-1.814-.186-2.437-.57a3.227 3.227 0 0 1-1.337-1.618c-.278-.69-.41-1.512-.41-2.44v-.557h2.727v.478c0 .503.053.941.133 1.299.079.358.225.623.45.822.225.186.516.279.9.279.411 0 .715-.106.927-.305.199-.199.344-.491.411-.875.079-.385.105-.836.105-1.38 0-.822-.132-1.471-.384-1.936-.251-.464-.754-.729-1.496-.769h-.463v-2.201h.41c.729-.013 1.232-.212 1.51-.583.278-.372.41-.982.41-1.817 0-.676-.106-1.207-.304-1.591-.212-.385-.596-.571-1.179-.571-.582 0-.953.213-1.139.637-.185.424-.291.981-.304 1.658v.596h-2.728v-.769c0-.915.159-1.697.49-2.334a3.386 3.386 0 0 1 1.417-1.472c.622-.331 1.377-.503 2.264-.503.887 0 1.682.159 2.304.503a3.254 3.254 0 0 1 1.417 1.446c.331.636.49 1.405.49 2.32 0 .915-.199 1.737-.596 2.347-.397.61-.914 1.008-1.523 1.194a2.59 2.59 0 0 1 1.113.689c.317.332.569.743.741 1.273.185.531.265 1.154.265 1.897 0 .968-.133 1.816-.411 2.559a3.457 3.457 0 0 1-1.324 1.724c-.609.411-1.43.61-2.449.61v-.04Zm-150.325 28.324v-3.965h-4.807v-2.347l4.185-9.812h3.204v9.972h1.655v2.187h-1.655v3.965h-2.582Zm-2.503-6.139h2.503v-7.002l-2.503 7.002Zm79.512 6.378c-1.072 0-1.906-.199-2.489-.597-.596-.398-.993-.968-1.218-1.697-.225-.729-.344-1.591-.344-2.573h2.688c0 .544.039 1.022.106 1.446.066.424.211.742.436.981.212.226.543.345.967.332.464 0 .795-.146.98-.451.185-.305.318-.716.371-1.26.053-.544.079-1.167.079-1.883 0-.623-.04-1.167-.106-1.631-.079-.464-.212-.822-.424-1.087-.211-.266-.542-.385-.993-.385-.384 0-.701.133-.953.385s-.437.596-.556 1.021h-2.37l.159-8.978h7.229v2.467h-4.925l-.159 3.872c.198-.239.49-.424.86-.57a4.608 4.608 0 0 1 1.258-.266c.848-.039 1.536.146 2.066.544.53.398.913.968 1.165 1.724s.384 1.658.384 2.705c0 .849-.053 1.631-.172 2.347-.106.716-.318 1.34-.622 1.857a3.177 3.177 0 0 1-1.285 1.22c-.543.291-1.258.437-2.132.437v.04Zm73.408-.027c-.993 0-1.8-.225-2.423-.702-.622-.464-1.072-1.101-1.364-1.897-.291-.795-.423-1.697-.423-2.691v-5.649c0-1.048.119-1.989.357-2.838.239-.836.662-1.512 1.271-2.002.61-.491 1.457-.73 2.556-.73.94 0 1.708.159 2.291.464a2.949 2.949 0 0 1 1.297 1.366c.278.597.411 1.326.411 2.215v.265h-2.648c0-.716-.093-1.26-.252-1.605-.172-.358-.543-.543-1.112-.543-.345 0-.623.106-.834.318-.212.212-.371.557-.464 1.047-.106.491-.146 1.128-.146 1.936v1.937c.186-.305.464-.544.848-.73a3.195 3.195 0 0 1 1.324-.265c.874 0 1.562.172 2.066.57.503.398.86.942 1.085 1.658.212.703.331 1.498.331 2.413 0 1.048-.132 1.989-.397 2.811-.265.823-.702 1.486-1.311 1.963-.609.477-1.43.716-2.476.716l.013-.027Zm.027-2.134c.384 0 .675-.12.874-.359.198-.238.331-.57.41-.994a8.17 8.17 0 0 0 .119-1.485c0-.557-.026-1.101-.066-1.565-.053-.451-.172-.822-.37-1.101-.199-.265-.53-.411-.994-.411-.225 0-.437.04-.622.133a1.693 1.693 0 0 0-.49.331 2.272 2.272 0 0 0-.331.398v2.533c0 .451.04.875.133 1.247.079.384.238.689.463.928.212.225.516.345.887.345h-.013Zm-153.41 30.472 3.191-14.003h-4.356v-2.108h7.057v1.697l-3.244 14.427h-2.661l.013-.013Zm79.936.225c-1.02 0-1.841-.212-2.463-.609-.622-.398-1.059-.982-1.324-1.724-.265-.73-.397-1.592-.397-2.56 0-.464.039-.888.132-1.286.079-.384.212-.742.384-1.061.159-.318.371-.596.609-.848.238-.239.503-.451.821-.61-.477-.332-.874-.783-1.205-1.366-.331-.57-.49-1.313-.503-2.201 0-.876.146-1.631.424-2.281a3.108 3.108 0 0 1 1.324-1.472c.596-.332 1.337-.504 2.224-.504.887 0 1.642.172 2.225.517a3.13 3.13 0 0 1 1.297 1.472c.292.637.424 1.392.411 2.268 0 .901-.172 1.644-.49 2.201-.318.57-.702 1.021-1.179 1.352.305.16.583.358.808.61.238.252.437.531.609.849.159.318.291.676.384 1.061.08.384.133.822.133 1.286 0 .968-.12 1.817-.384 2.559-.278.73-.715 1.313-1.324 1.724-.61.411-1.444.61-2.477.61l-.039.013Zm0-2.095c.437 0 .768-.132.98-.397.225-.266.357-.597.423-1.008.066-.398.093-.822.093-1.247 0-.451-.013-.888-.093-1.299-.079-.411-.225-.756-.45-1.021-.225-.266-.543-.398-.967-.398-.423 0-.728.132-.94.398-.225.265-.37.61-.45 1.021a5.942 5.942 0 0 0-.132 1.313c0 .424.039.848.106 1.259.066.411.225.743.45 1.008.225.252.543.385.98.385v-.014Zm0-7.691c.331 0 .596-.132.781-.344.199-.226.331-.518.41-.902.08-.385.12-.822.12-1.313 0-.61-.093-1.101-.305-1.485-.199-.385-.53-.57-1.006-.57-.477 0-.808.199-1.02.57-.225.384-.331.875-.331 1.472 0 .49.04.928.133 1.326.079.398.225.703.423.915.199.212.464.331.795.345v-.014Zm0 37.779c-.94 0-1.722-.199-2.331-.596a3.572 3.572 0 0 1-1.39-1.658c-.305-.703-.463-1.512-.463-2.427v-7.147c0-.942.145-1.764.45-2.48a3.513 3.513 0 0 1 1.364-1.657c.622-.398 1.403-.597 2.37-.597.966 0 1.761.199 2.37.597.622.398 1.072.954 1.377 1.657.304.716.45 1.538.45 2.48v7.147c0 .915-.159 1.724-.463 2.427a3.706 3.706 0 0 1-1.391 1.658c-.609.397-1.39.596-2.33.596h-.013Zm0-2.373c.41 0 .715-.12.913-.372a2.06 2.06 0 0 0 .398-.915c.066-.358.092-.716.092-1.047v-7.068c0-.371-.026-.743-.092-1.101a1.904 1.904 0 0 0-.384-.928c-.199-.252-.517-.371-.941-.371-.423 0-.728.119-.926.371a1.895 1.895 0 0 0-.384.928 7.56 7.56 0 0 0-.093 1.101v7.068c0 .345.04.703.106 1.047.066.358.212.663.41.915.199.252.504.372.887.372h.014Zm73.169-25.619c-.927 0-1.681-.16-2.29-.478a2.904 2.904 0 0 1-1.311-1.392c-.278-.61-.411-1.353-.411-2.228v-.225h2.622c0 .716.093 1.259.265 1.604.185.358.556.544 1.139.544.357 0 .635-.106.834-.318.198-.213.344-.557.437-1.048.092-.491.132-1.14.132-1.936v-1.923c-.185.305-.463.544-.834.716-.371.173-.821.265-1.324.279-.861 0-1.549-.186-2.052-.61-.517-.425-.874-.981-1.1-1.698a8.562 8.562 0 0 1-.331-2.426c0-1.061.133-1.989.411-2.798.278-.796.728-1.432 1.351-1.883.622-.451 1.43-.69 2.436-.69s1.801.226 2.423.663c.622.438 1.072 1.061 1.364 1.844.278.782.423 1.67.423 2.678v5.702c0 1.048-.119 2.002-.37 2.851-.252.849-.662 1.525-1.271 2.016-.609.49-1.457.742-2.569.742l.026.014Zm.027-8.5c.371 0 .662-.093.887-.279a2.77 2.77 0 0 0 .53-.597v-2.506c0-.464-.04-.888-.12-1.26-.079-.384-.225-.689-.423-.915-.212-.225-.503-.344-.887-.344s-.662.119-.861.358c-.212.238-.344.57-.424.994a8.27 8.27 0 0 0-.119 1.485c0 .557.027 1.088.066 1.552.04.464.172.835.371 1.101.199.278.53.411.993.411h-.013Z"/><path fill="#0052BF" d="M303.841 327.953v-16.111h6.753v2.069h-3.814v4.641h3.006v2.042h-3.006v5.33h3.853v2.029h-6.792Zm8.5 0v-16.111h2.039l3.92 9.189v-9.189h2.423v16.111h-1.947l-3.932-9.627v9.627h-2.503Zm12.434 0v-13.936h-2.556v-2.162h8.024v2.162h-2.516v13.936h-2.952Zm6.925 0v-16.111h6.753v2.069h-3.814v4.641h3.006v2.042h-3.006v5.33h3.853v2.029H331.7Zm8.5 0v-16.111h3.853c1.086 0 2 .133 2.755.384.741.266 1.324.703 1.708 1.327.384.623.582 1.471.582 2.546 0 .649-.053 1.233-.172 1.75a3.305 3.305 0 0 1-.609 1.326c-.291.371-.675.65-1.178.849l2.251 7.929h-2.94l-1.946-7.372h-1.351v7.372H340.2Zm2.94-9.229h.913c.57 0 1.02-.079 1.364-.252.345-.172.583-.424.729-.795.145-.372.211-.836.211-1.406 0-.809-.145-1.419-.45-1.817-.304-.398-.86-.61-1.695-.61h-1.072v4.88Z"/><path fill="#263238" d="m647.992 96.11-117.5-24.219-17.313 84.242 117.5 24.219 17.313-84.242Z"/><path fill="#fff" stroke="#263238" stroke-miterlimit="10" d="m641.906 88.281-117.5-24.219-17.313 84.242 117.501 24.219 17.312-84.242Z"/><path stroke="#263238" stroke-linecap="round" stroke-linejoin="round" d="m524.422 64.048 50.091 54.235 67.409-30.022"/></g><defs><clipPath id="a"><path fill="#fff" d="M0 0h648v570H0z"/></clipPath></defs></svg>