<svg xmlns="http://www.w3.org/2000/svg" width="704" height="595" fill="none"><g clip-path="url(#a)"><path fill="#F5F5F5" d="M103.093 535.503c-137.468-79.309-137.468-207.905 0-287.214 137.467-79.309 360.331-79.309 497.799 0 137.467 79.309 137.467 207.905 0 287.214-137.468 79.309-360.332 79.309-497.799 0Z"/><path fill="#E0E0E0" d="M383.556 447.923c74.892-40.366 119.309-103.282 99.209-140.526-20.101-37.245-97.108-34.714-171.999 5.652-74.892 40.367-119.309 103.282-99.209 140.527 20.101 37.244 97.108 34.713 171.999-5.653Z"/><path fill="#37474F" d="m471.724 77.531-.243-.136h-.03L413.496 44.06s-.03-.016-.061-.03l-.334-.168c-27.077-13.628-63.2-9.541-102.044 15.573-78.053 50.442-137.544 166.549-132.861 259.319 2.341 46.249 20.175 77.957 47.145 91.889l.243.137s.016 0 .031.015l57.97 33.35h.03l.289.152c27.077 13.674 63.23 9.602 102.12-15.528 78.053-50.442 137.543-166.549 132.861-259.319-2.341-46.249-20.175-77.957-47.145-91.89l-.016-.03Z"/><path fill="#263238" d="m281.609 443.067-55.978-32.301h-.046l-.258-.152c-26.955-13.978-44.789-45.686-47.115-91.874-2.083-41.371 8.605-87.361 27.959-130.085l.395-.942 57.59 34.276c-19.399 42.709-30.057 88.699-27.974 130.085 2.28 45.246 19.43 76.574 45.427 90.978v.015Z"/><path fill="#455A64" d="M386.008 428.755c78.053-50.442 137.544-166.549 132.846-259.319-4.683-92.77-71.759-127.092-149.813-76.65-78.053 50.441-137.543 166.548-132.861 259.319 4.683 92.785 71.76 127.092 149.813 76.65h.015Z"/><path fill="#37474F" d="m452.128 70.345-97.833 201.372-21.056-22.805c-6.492-7.05-15.751-11.091-25.405-11.091a34.645 34.645 0 0 0-23.504 9.161c-14.002 12.93-14.869 34.854-1.946 48.862l55.476 60.044c6.142 6.655 14.504 10.574 23.55 11.061.639.03 1.277.045 1.916.045 1.657 0 3.329-.121 5.017-.365 11.341-1.686 21.102-8.827 26.073-19.113l112.2-230.953c-11.448-25.6-30.619-41.538-54.488-46.248v.03Z"/><path fill="#0052BF" d="M531.564 3.996a24.649 24.649 0 0 0-1.885-.988c-14.93-7.217-32.961-.987-40.167 13.887l-124.499 256.25-7.07-7.657a29.917 29.917 0 0 0-7.054-5.637c-3.71-2.127-19.491-11.258-22.045-12.732-11.068-6.381-25.496-5.181-35.439 3.95-12.162 11.228-12.907 30.265-1.687 42.435l55.476 60.059a30.263 30.263 0 0 0 7.161 5.698c3.619 2.066 19.339 11.167 21.923 12.656a29.921 29.921 0 0 0 13.455 3.996c1.976.106 3.968.03 6.02-.259 9.852-1.458 18.32-7.672 22.638-16.591L565.665 55.911c6.917-14.266 1.52-31.359-11.996-39.138-.623-.349-18.168-10.483-22.105-12.747v-.03Z"/><path fill="#000" d="M531.564 3.996a24.649 24.649 0 0 0-1.885-.988c-14.93-7.217-32.961-.987-40.167 13.887l-124.499 256.25-7.07-7.657a29.917 29.917 0 0 0-7.054-5.637c-3.71-2.127-19.491-11.258-22.045-12.732-11.068-6.381-25.496-5.181-35.439 3.95-12.162 11.228-12.907 30.265-1.687 42.435l55.476 60.059a30.263 30.263 0 0 0 7.161 5.698c3.619 2.066 19.339 11.167 21.923 12.656a29.921 29.921 0 0 0 13.455 3.996c1.976.106 3.968.03 6.02-.259 9.852-1.458 18.32-7.672 22.638-16.591L565.665 55.911c6.917-14.266 1.52-31.359-11.996-39.138-.623-.349-18.168-10.483-22.105-12.747v-.03Z" opacity=".15"/><path fill="#000" d="M376.278 371.902c-2.569-1.489-18.289-10.605-21.923-12.656a30.224 30.224 0 0 1-7.161-5.683l-55.476-60.044a29.932 29.932 0 0 1-5.732-9.131l22.06 12.717a29.636 29.636 0 0 0 5.762 9.146l55.477 60.044a30.54 30.54 0 0 0 6.993 5.622v-.015ZM518.565 20.39a29.783 29.783 0 0 0-6.963 9.237L383.56 293.2l-18.517-20.07L489.527 16.895a29.65 29.65 0 0 1 6.978-9.238l22.06 12.733Z" opacity=".15"/><path fill="#0052BF" d="M551.768 15.74c-14.929-7.217-32.96-.987-40.166 13.887L383.56 293.2l-25.602-27.712c-11.19-12.14-30.224-12.915-42.463-1.672-12.162 11.228-12.907 30.265-1.687 42.435l55.476 60.059c5.321 5.774 12.589 9.177 20.449 9.603 1.976.106 3.968.03 6.02-.259 9.852-1.458 18.32-7.672 22.638-16.591L565.664 55.911c7.237-14.92 1.004-32.924-13.896-40.14v-.03Z"/></g><defs><clipPath id="a"><path fill="#fff" d="M0 0h704v595H0z"/></clipPath></defs></svg>