<svg xmlns="http://www.w3.org/2000/svg" width="670" height="665" fill="none"><g clip-path="url(#a)"><path fill="#F5F5F5" d="M98.125 613.748c130.823 68.336 342.943 68.336 473.766 0 130.823-68.336 130.823-179.139 0-247.46-130.823-68.336-342.943-68.336-473.766 0-130.823 68.336-130.823 179.139 0 247.46Z"/><path fill="#0052BF" d="M489.879 412.585c0 5.426 3.815 12.038 8.528 14.759 1.824 1.064 3.511 1.368 4.895 1.033a4.274 4.274 0 0 1-.928.73l2.053-1.171s.076-.045.121-.076c.107-.06.198-.136.304-.212.137-.092.259-.213.38-.32.076-.076.152-.152.213-.228.015 0 .03-.015.046-.045.06-.076.137-.152.197-.259a4.82 4.82 0 0 0 .7-1.261c.045-.137.106-.274.152-.41.03-.076.045-.137.06-.213.046-.122.076-.259.092-.38a9.1 9.1 0 0 0 .228-2.113c0-5.426-3.816-12.038-8.513-14.758-1.368-.791-2.66-1.171-3.816-1.171h-.03c-.183 0-.35 0-.517.031l-.486.091a.896.896 0 0 0-.289.091l-.183.046a3.295 3.295 0 0 0-.349.152l-.076.03a3.144 3.144 0 0 0-.319.167l-1.779 1.019c.289-.152.593-.259.927-.32-1.003 1.034-1.581 2.66-1.581 4.788h-.03Zm14.031 15.595.152-.076c-.046.015-.091.045-.152.076Z"/><path fill="#EBEBEB" d="m312.92 510.636 12.024 20.884 2.037-1.171L502.39 429.092c.334-.183.653-.426.927-.73.988-1.034 1.566-2.66 1.566-4.788 0-5.426-3.816-12.038-8.528-14.758-1.368-.791-2.661-1.171-3.801-1.171-.38 0-.729.046-1.079.122a3.94 3.94 0 0 0-.927.319.697.697 0 0 0-.152.076l-.046.031h-.015l-177.4 102.412-.015.031Z"/><path fill="#0052BF" d="M318.94 511.244c-4.713-2.721-8.513-.517-8.513 4.924 0 5.427 3.815 12.038 8.513 14.759 4.712 2.721 8.512.517 8.512-4.925 0-5.441-3.815-12.038-8.512-14.758Z"/><path fill="#E0E0E0" d="M300.622 523.89c.06-.091.136-.167.212-.243l10.869-11.947s0-.015.016-.03l.091-.092s.137-.152.197-.212l.122-.122c1.55-1.49 4.013-1.611 6.81 0 4.713 2.721 8.513 9.317 8.513 14.758 0 3.147-1.292 5.214-3.284 5.852l-.136.031c-.198.06-.411.106-.624.136l-.136.031h-.046l-15.764 3.435c-.79.182-1.733 0-2.751-.593-2.691-1.55-4.88-5.32-4.88-8.436 0-1.109.274-1.976.76-2.568h.031Z"/><path fill="#455A64" d="M439.881 446.328s.03-.031.046-.031l.288-.167c.517-.228 1.217-.152 1.977.289 1.672.957 3.025 3.328 3.025 5.259 0 .851-.259 1.474-.699 1.824l-.365.212-129.47 74.735-8.513-4.924 133.726-77.197h-.015Z"/><path fill="#37474F" d="m326.707 521.503-12.024 6.946-8.513-4.924 16.281-9.393a20.357 20.357 0 0 1 4.256 7.371Z"/><path fill="#0052BF" d="m296.335 529.574 9.866-10.837c.091-.106.167-.213.258-.289 1.095-1.094 2.858-1.185 4.865-.03 3.329 1.915 6.019 6.581 6.019 10.427 0 2.219-.896 3.678-2.295 4.149a.217.217 0 0 0-.091.03l-.395.092-14.457 3.146c-.441.091-.973 0-1.55-.335-1.521-.866-2.737-2.994-2.737-4.742 0-.699.213-1.231.548-1.565l-.031-.046Z"/><path fill="#000" d="m296.335 529.574 9.866-10.837c.091-.106.167-.213.258-.289 1.095-1.094 2.858-1.185 4.865-.03 3.329 1.915 6.019 6.581 6.019 10.427 0 2.219-.896 3.678-2.295 4.149a.217.217 0 0 0-.091.03l-.395.092-14.457 3.146c-.441.091-.973 0-1.55-.335-1.521-.866-2.737-2.994-2.737-4.742 0-.699.213-1.231.548-1.565l-.031-.046Z" opacity=".1"/><path fill="#0052BF" d="M295.788 531.14c0 1.748 1.231 3.876 2.751 4.742.578.334 1.11.441 1.551.334l7.311-1.58c1.156-.244 1.901-1.338 1.901-3.071 0-2.796-1.961-6.201-4.378-7.599-1.429-.836-2.706-.76-3.512 0l-.197.212-4.895 5.366c-.335.334-.548.866-.548 1.58l.016.016Z"/><path fill="#000" d="M298.539 529.559c-1.52-.866-2.736-.167-2.736 1.581s1.231 3.876 2.736 4.742c1.52.866 2.736.167 2.736-1.581s-1.231-3.876-2.736-4.742Z" opacity=".1"/><path fill="#FAFAFA" d="M472.139 427.708c.547-.319 1.307-.273 2.143.213 1.673.958 3.026 3.299 3.01 5.229 0 .973-.334 1.657-.897 1.961l-31.862 18.391c.441-.35.7-.973.7-1.824 0-1.93-1.368-4.286-3.025-5.259-.76-.441-1.46-.517-1.977-.289l31.908-18.422Z"/><path fill="#F5F5F5" d="M471.258 429.654c0 1.915 1.353 4.256 3.025 5.229.821.471 1.566.516 2.113.212.562-.304.897-.972.897-1.945 0-1.915-1.338-4.256-3.01-5.229-.836-.486-1.596-.532-2.144-.213-.547.32-.881 1.004-.881 1.946Z"/><path fill="#0052BF" d="m477.991 416.75.091-.061c.046-.03.092-.046.137-.076l12.572-7.25a2.59 2.59 0 0 1 .289-.167l.076-.046c1.368-.669 3.192-.501 5.198.654 4.242 2.447 7.662 8.39 7.662 13.284 0 2.462-.867 4.18-2.265 4.97l-12.724 7.341c-.015 0-.045.031-.06.046l-.076.045c-1.384.73-3.253.593-5.306-.592-4.241-2.447-7.661-8.39-7.661-13.284 0-2.356.79-4.013 2.098-4.849l-.031-.015Z"/><path fill="#000" d="m477.991 416.75.091-.061c.046-.03.092-.046.137-.076l12.572-7.25a2.59 2.59 0 0 1 .289-.167l.076-.046c1.368-.669 3.192-.501 5.198.654 4.242 2.447 7.662 8.39 7.662 13.284 0 2.462-.867 4.18-2.265 4.97l-12.724 7.341c-.015 0-.045.031-.06.046l-.076.045c-1.384.73-3.253.593-5.306-.592-4.241-2.447-7.661-8.39-7.661-13.284 0-2.356.79-4.013 2.098-4.849l-.031-.015Z" opacity=".05"/><path fill="#000" d="M483.571 417.191c-4.242-2.448-7.662-.456-7.662 4.423 0 4.894 3.436 10.837 7.662 13.284 4.241 2.447 7.661.456 7.661-4.423 0-4.879-3.435-10.837-7.661-13.284Z" opacity=".1"/><path fill="#455A64" d="m292.307 534.134 5.199-3.116c.258-.167.623-.152 1.019.076.775.441 1.398 1.535 1.398 2.432 0 .441-.152.76-.41.912l-5.184 3.131a2.036 2.036 0 0 1-.958.243 1.988 1.988 0 0 1-1.991-1.991c0-.714.365-1.337.927-1.687Z"/><path fill="#263238" d="M292.018 534.377c.091-.091.182-.167.274-.228h.015c.243-.091.562-.045.897.152.775.456 1.398 1.535 1.398 2.432 0 .441-.152.745-.395.897-.03.015-.076.045-.106.045a1.75 1.75 0 0 1-.107.046c-.198.091-.41.106-.638.106a2.001 2.001 0 0 1-1.992-2.006c0-.577.243-1.094.624-1.444h.03Z"/><path fill="#0052BF" d="m191.658 548.026-5.305-3.055c-1.672-.973-3.025-3.313-3.025-5.244V146.734c0-1.93 1.353-4.271 3.025-5.244L430.198.73c1.672-.973 4.378-.973 6.05 0l5.306 3.07c1.672.973 3.025 3.313 3.025 5.244v392.993c0 1.93-1.353 4.271-3.025 5.244l-243.845 140.76c-1.673.958-4.378.958-6.051 0v-.015Z"/><path fill="#fff" d="M444.548 8.542c-.213-1.566-1.49-2.143-2.995-1.262L197.708 148.041c-.836.471-1.581 1.307-2.143 2.25l-11.371-6.551c.563-.958 1.308-1.763 2.144-2.25L430.183.73c1.672-.958 4.393-.958 6.05 0l5.32 3.055c1.521.881 2.797 2.933 2.995 4.757Z" opacity=".4"/><path fill="#000" d="M197.192 548.269s-.122.061-.183.076a1.008 1.008 0 0 1-.304.107l-.121.045c-.183.061-.365.092-.563.137h-.076c-1.201.228-2.523.122-3.602-.289a6.475 6.475 0 0 1-.669-.304l-5.321-3.055c-1.657-.972-3.025-3.313-3.025-5.243V146.734c0-.957.335-2.037.882-2.994l11.37 6.551c-.562.957-.896 2.021-.896 2.994v392.993c0 .684.167 1.231.456 1.596.38.456.957.654 1.626.517.137-.03.274-.076.426-.122Z" opacity=".15"/><path fill="#455A64" d="M368.42 73.078c-.137-.091-.289-.167-.441-.258l-5.032-2.888c-1.17-.745-3.025-1.46-5.868-2.082a31.301 31.301 0 0 1-2.341-.639 17.549 17.549 0 0 1-2.219-.912l.38-.456-5.685-3.298a6.636 6.636 0 0 0-1.49-.593c-2.143-.516-5.336.73-8.543.365-2.022-.228-4.059-1.11-5.807-3.45-1.946-2.614-3.116-7.205-4.834-10.99l1.49-2.203c-.152-.091-.304-.182-.472-.258l-5.214-3.025a5.714 5.714 0 0 0-2.903-.79c-1.52 0-3.314.531-5.473 1.778-12.48 7.22-12.906 24.334-17.405 35.597-4.5 11.277-10.869 14.788-14.335 19.637-3.496 4.833-3.709 8.436-11.386 19.014-7.677 10.579-7.981 13.163-7.981 15.169v15.762l5.67 3.268L370.73 92.822l-2.295-19.729-.015-.015Zm-93.702 60.767c-1.322.76-2.417-.258-2.417-2.325 0-2.068 1.095-4.347 2.417-5.123 1.323-.775 2.402.274 2.402 2.341s-1.079 4.332-2.402 5.107Zm44.89-44.245c-3.359 1.945-6.293.836-7.874-2.402-3.953.776-6.902-3.055-6.902-9.636 0-7.752 4.089-16.37 9.121-19.273 3.36-1.945 6.293-.836 7.859 2.402 3.968-.79 6.902 3.04 6.902 9.636 0 7.752-4.074 16.37-9.106 19.273Zm33.929-1.277c-1.322.775-2.401-.258-2.401-2.31s1.079-4.332 2.401-5.107c1.338-.775 2.417.258 2.417 2.325 0 2.068-1.079 4.317-2.417 5.092Z"/><path fill="#37474F" d="m274.186 136.672-10.99-6.338a7.846 7.846 0 0 0-.365 2.447v15.762l5.67 3.268 5.67-3.283v-11.871l.015.015ZM285.557 117.004l5.685-13.117-9.029-5.29c-2.645 3.664-3.421 6.628-6.978 12.449l10.322 5.958ZM308.268 90.77l.73-3.815c-2.508-1.049-4.181-4.438-4.181-9.378 0-6.581 2.95-13.77 6.917-17.585l-7.874-4.545c-3.36 7.645-4.591 16.659-7.342 23.513a41.124 41.124 0 0 1-1.825 3.998l13.56 7.827.015-.015Z" opacity=".5"/><path fill="#37474F" d="M368.42 73.078c-.137-.091-.289-.167-.441-.258-1.171-.608-2.858-1.17-5.245-1.702-4.53-1.019-6.46-2.615-7.995-3.922-.624-.532-1.186-1.003-1.84-1.368a5.478 5.478 0 0 0-1.52-.608c-3.435-.82-9.698 2.918-14.198-2.903l-.137-.182c-3.146-4.24-4.287-13.68-8.999-16.461-.152-.091-.304-.183-.471-.259-1.946-.911-4.469-.744-7.935 1.247-12.481 7.22-12.906 24.334-17.406 35.597-4.5 11.277-10.869 14.788-14.335 19.637-3.496 4.833-3.694 8.436-11.386 19.014-7.676 10.579-7.965 13.163-7.965 15.169v15.777l102.199-59.003V77.09c0-1.307-.122-2.69-2.296-3.967l-.03-.046Zm-88.046 64.035c-1.323.775-2.402-.259-2.402-2.326s1.079-4.347 2.402-5.122c1.337-.775 2.401.274 2.401 2.341s-1.064 4.332-2.401 5.107ZM319.608 89.6c-3.359 1.945-6.293.836-7.874-2.402-.791-1.626-1.247-3.77-1.247-6.368 0-7.752 4.09-16.37 9.121-19.273.76-.44 1.49-.73 2.189-.866 3.968-.79 6.902 3.04 6.902 9.636 0 7.752-4.074 16.37-9.106 19.273h.015Zm39.615 2.006c-1.338.775-2.417-.258-2.417-2.31s1.079-4.332 2.417-5.107c1.323-.775 2.402.258 2.402 2.325 0 2.068-1.079 4.317-2.402 5.092Z"/><path fill="#263238" d="M328.713 70.327c0 7.752-4.074 16.37-9.105 19.273-3.36 1.945-6.294.836-7.875-2.402.715-.136 1.445-.425 2.205-.866 5.031-2.903 9.105-11.536 9.105-19.273 0-2.584-.441-4.742-1.246-6.353 3.967-.79 6.901 3.04 6.901 9.636l.015-.015ZM280.373 137.113c-1.338.775-2.417-.258-2.417-2.31s1.079-4.347 2.417-5.123c1.338-.775 2.402.289 2.402 2.326s-1.079 4.332-2.402 5.092M359.208 91.621c-1.338.776-2.417-.258-2.417-2.31s1.079-4.347 2.417-5.122c1.338-.775 2.402.289 2.402 2.325 0 2.037-1.079 4.332-2.402 5.092"/><path fill="#F5F5F5" d="m213.534 184.808 212.18-122.49c1.003-.578 2.63-.578 3.633 0l2.052 1.185c1.004.577 1.809 1.99 1.809 3.146v323.669c0 1.155-.805 2.569-1.809 3.146l-212.18 122.492c-1.003.577-2.63.577-3.633 0l-2.052-1.186c-1.004-.578-1.809-1.991-1.809-3.146V187.955c0-1.156.805-2.569 1.809-3.147Z"/><path fill="#FAFAFA" d="M433.148 66.087c-.228-.745-.927-.973-1.748-.502L219.219 188.076c-.502.289-.958.775-1.292 1.353l-5.67-3.268c.319-.577.79-1.079 1.292-1.353L425.73 62.318c.988-.594 2.629-.594 3.617 0l2.053 1.17c.851.501 1.565 1.58 1.748 2.599Z"/><path fill="#E0E0E0" d="M218.793 516.123a3.325 3.325 0 0 1-.669.182c-.106 0-.243.031-.349.046-.365.03-.745 0-1.11-.046a3.075 3.075 0 0 1-.669-.182 5.118 5.118 0 0 1-.41-.198l-2.037-1.17c-1.004-.593-1.824-1.991-1.824-3.146V187.955c0-.593.197-1.231.532-1.794l5.67 3.268c-.319.578-.532 1.216-.532 1.793v323.654c0 .988.593 1.475 1.383 1.247h.015Z"/><path fill="#455A64" d="m385.416 108.158-5.655-3.268c-1.46-.836-3.375-.851-5.67.168-6.598 2.903-9.456 4.225-12.861 5.654-.775.319-1.581.638-2.462.988-1.323.532-3.998.091-3.177-4.575l8.771-23.605s-.091-.045-.122-.076l-5.548-3.222a2.674 2.674 0 0 0-.928-.32 3.735 3.735 0 0 0-.608-.06c-3.587-.091-4.621-23.24-4.636-23.954l-.259-.152-5.487-3.162c-.912-.532-1.976-.79-3.132-.79-1.535 0-3.283.471-5.199 1.474-8.619 4.53-17.344 17.95-19.457 30.004-1.338 7.6-8.984 19.303-13.408 23.604-4.439 4.332-4.728 7.919-4.728 7.919l-3.435 19.486-1.11 6.231c-.805 4.651-5.579 9.15-5.579 9.15l-17.8 13.33c-11.143 9.257-14.29 18.589-16.433 30.156v.091c-.076.41 0 .684.197.79.076.046.137.046.198 0h.03l2.281-1.307 122.447-70.616c.486-.258.988-1.034 1.125-1.702 0 0 0-.046.03-.061v-.046c.699-4.225 2.736-12.114 2.736-12.114-.03 0-.061-.03-.091-.045l-.03.03Zm-35.404-35.779c-1.308 7.402-6.659 15.67-11.964 18.452-3.663 1.915-6.339.73-7.236-2.645-1.626.502-2.994.29-4.013-.516-1.702-1.338 13.894-28.12 15.171-27.526 1.14.517 1.946 1.626 2.356 3.207 4.378-1.323 6.871 2.37 5.686 9.028Z"/><path fill="#37474F" d="m274.202 176.023-8.923-5.152c-5.184 6.809-7.251 13.968-8.802 22.282v.091c-.076.41 0 .684.198.79.076.046.137.046.197 0h.061l7.038-5.593 10.246-12.433-.015.015ZM295.696 142.524l12.572 7.265 5.685-32.785-11.34-6.551c-1.627 2.554-1.779 4.332-1.779 4.332l-3.435 19.486-1.11 6.231c-.121.684-.334 1.353-.593 2.022ZM324.929 67.607c-2.873 4.909-5.047 10.411-5.959 15.655-.578 3.252-2.311 7.265-4.454 11.126l10.793 6.231 5.366-12.387c-1.551.44-2.873.243-3.861-.547-.882-.684 2.827-8.101 6.795-15.063l-8.68-5.015Z" opacity=".5"/><path fill="#37474F" d="m385.506 108.204-.091-.046c-1.459-.82-3.36-.82-5.655.183-8.102 3.572-10.55 4.742-15.338 6.642-1.292.517-3.877.091-3.208-4.271 0-.091.031-.198.046-.289l1.11-6.232 3.055-16.993s.699-2.675-1.079-3.678c-.046-.03-.091-.045-.122-.076-.365-.182-.821-.288-1.414-.304-1.702-.045-3.633-1.216-5.062-3.222-1.641-2.295-2.614-5.67-1.9-9.712 1.292-7.28-.121-12.388-3.359-14.288a2.21 2.21 0 0 0-.259-.152c-2.082-1.11-4.879-.927-8.148.79-8.619 4.53-17.344 17.951-19.457 30.004-1.338 7.6-8.984 19.303-13.408 23.605-4.439 4.331-4.728 7.918-4.728 7.918l-3.435 19.486-1.11 6.232c-.805 4.651-5.594 9.15-5.594 9.15l-17.785 13.329c-8.361 6.947-12.329 14.227-14.639 22.161 0 0-6.674 5.168-7.084 5.593l2.28-1.307 122.797-70.585s1.413-.775 1.717-.958c.304-.182 5.26-4.864 5.26-4.864-.213-4.027-1.383-6.885-3.435-8.116h.045Zm-35.48-35.81c-1.307 7.402-6.658 15.67-11.963 18.452-3.664 1.915-6.339.73-7.236-2.644-.38-1.505-.426-3.45 0-5.746 1.307-7.402 6.673-15.67 11.978-18.436a9.895 9.895 0 0 1 1.536-.654c4.378-1.322 6.871 2.371 5.685 9.028Z"/><path fill="#263238" d="M350.011 72.38c-1.307 7.401-6.658 15.67-11.964 18.451-3.663 1.915-6.339.73-7.235-2.645a10.495 10.495 0 0 0 1.55-.638c5.321-2.782 10.671-11.05 11.964-18.452.41-2.295.38-4.24 0-5.745 4.378-1.323 6.871 2.37 5.685 9.028Z"/><path fill="#263238" d="M344.889 63.67c1.14 0 1.976.41 2.553 1.231 2.205 3.131.092 11.096-.821 13.649-1.276 3.557-9.5 11.87-11.781 11.87-2.006-.09-3.481-2.051-3.709-2.37-.365-1.52-.365-3.435 0-5.533 1.292-7.31 6.598-15.473 11.797-18.194a10.048 10.048 0 0 1 1.444-.623c.167-.015.334-.03.501-.03m0-.35c-.182 0-.365 0-.562.03a9.846 9.846 0 0 0-1.535.654c-5.321 2.767-10.672 11.035-11.979 18.437-.411 2.295-.365 4.24 0 5.745 0 0 1.626 2.463 4.028 2.584h.046c2.462 0 10.747-8.39 12.07-12.098 1.292-3.633 4.195-15.352-2.068-15.352ZM256.873 194.05l125.092-71.893s1.414-.775 1.718-.958c.304-.182 5.259-4.879 5.259-4.879l-124.985 72.136s-7.571 5.867-7.069 5.609l-.015-.015Z"/><path fill="#E0E0E0" d="M240.12 244.466v2.842c0 1.55 1.079 2.173 2.417 1.398l165.543-95.558c1.338-.775 2.417-2.645 2.417-4.195v-2.857c0-1.551-1.079-2.174-2.417-1.399l-165.543 95.558c-1.338.776-2.417 2.645-2.417 4.195v.016ZM240.12 261.641v2.842c0 1.55 1.079 2.174 2.417 1.398l165.543-95.558c1.338-.775 2.417-2.644 2.417-4.195v-2.857c0-1.55-1.079-2.174-2.417-1.398l-165.543 95.558c-1.338.775-2.417 2.644-2.417 4.195v.015ZM240.12 278.74v2.842c0 1.551 1.079 2.174 2.417 1.399l165.543-95.558c1.338-.776 2.417-2.645 2.417-4.195v-2.858c0-1.55-1.079-2.173-2.417-1.398L242.537 274.53c-1.338.775-2.417 2.644-2.417 4.195v.015ZM240.12 316.586v2.843c0 1.55 1.079 2.173 2.417 1.398l165.543-95.558c1.338-.775 2.417-2.645 2.417-4.195v-2.858c0-1.55-1.079-2.173-2.417-1.398l-165.543 95.558c-1.338.775-2.417 2.645-2.417 4.195v.015ZM240.12 333.777v2.842c0 1.55 1.079 2.174 2.417 1.398l165.543-95.558c1.338-.775 2.417-2.644 2.417-4.195v-2.857c0-1.55-1.079-2.174-2.417-1.398l-165.543 95.558c-1.338.775-2.417 2.644-2.417 4.195v.015ZM240.12 350.861v2.842c0 1.55 1.079 2.174 2.417 1.398l165.543-95.558c1.338-.775 2.417-2.644 2.417-4.195v-2.857c0-1.551-1.079-2.174-2.417-1.399l-165.543 95.559c-1.338.775-2.417 2.644-2.417 4.195v.015ZM240.12 388.722v2.842c0 1.551 1.079 2.174 2.417 1.399l165.543-95.558c1.338-.775 2.417-2.645 2.417-4.195v-2.858c0-1.55-1.079-2.173-2.417-1.398l-165.543 95.558c-1.338.775-2.417 2.645-2.417 4.195v.015ZM240.12 405.913v2.842c0 1.55 1.079 2.173 2.417 1.398l165.543-95.558c1.338-.775 2.417-2.644 2.417-4.195v-2.857c0-1.551-1.079-2.174-2.417-1.399l-165.543 95.558c-1.338.776-2.417 2.645-2.417 4.195v.016ZM240.12 422.997v2.842c0 1.55 1.079 2.173 2.417 1.398l165.543-95.558c1.338-.775 2.417-2.645 2.417-4.195v-2.857c0-1.551-1.079-2.174-2.417-1.399l-165.543 95.558c-1.338.776-2.417 2.645-2.417 4.195v.016ZM325.309 425.292l85.188-49.17v1.642l-85.188 49.169v-1.641Z"/><path fill="#455A64" d="M345.131 399.757c3.542-2.371 7.494-6.369 6.856-11.111-.395-2.872-2.721-3.967-5.366-2.964-5.184 1.992-8.467 9.789-10.276 14.501-1.581 4.119-3.588 11.885 2.584 13.193 7.266 1.55 12.876-9.105 14.502-14.653.228-.775-1.034-1.2-1.383-.501-.654 1.261-4.925 9.575-.228 8.542 1.672-.365 2.645-2.964 3.238-4.286 1.079-2.371 1.611-5.67 3.283-7.706-.41-.183-.821-.38-1.231-.563.076 2.189.061 3.678 1.459 5.381.228.273.73.471 1.034.182 2.402-2.234 2.569-5.867 5.214-7.888a37.796 37.796 0 0 1-1.079-.517c-.031.699-.304 2.69-.365 3.617-.031.441.593.715.942.593.867-.319 1.095-.471 1.505-1.307-.38-.137-.775-.274-1.155-.426 1.003 5.351 5.579.031 7.145-2.036 4.621-6.095 7.813-12.601 7.935-20.398 0-.623-1.171-.942-1.186-.182-.106 5.988-2.721 11.475-4.408 17.114-1.825 6.11-3.314 12.312-4.515 18.574.365.137.729.258 1.079.395.107-4.469 1.703-8.694 3.344-12.798 1.384-3.465 2.949-7.037 5.747-9.606-.335-.121-.669-.258-1.004-.38.745 3.101-.547 6.414-2.432 8.846-.319.411.395 1.171.714.775 1.673-2.097 4.424-2.766 6.218-4.803 1.854-2.112 2.995-4.863 4.484-7.234l-.821-.411c-.106 5.107 4.713-2.857 5.366-3.708-.258-.107-.532-.198-.79-.304.319 1.048.76 1.747 1.946 1.763 2.356.015 3.238-3.435 5.016-3.831.015 0 .791.669 1.049.684 1.079.092 1.855.016 2.843-.532 2.006-1.124 3.557-3.222 4.651-5.198.274-.486-.653-1.094-.973-.562-1.155 1.976-4.818 7.22-7.463 4.651-.152-.152-.517-.289-.684-.076-.715.881-4.804 5.563-5.564 3.085-.091-.304-.532-.638-.791-.304-.623.821-1.125 1.733-1.687 2.599-.319.472-2.113 3.466-2.037 1.946.015-.365-.578-.79-.821-.41-1.657 2.538-2.873 5.882-5.183 7.934-1.718 1.535-3.983 2.112-5.458 3.936.243.259.471.517.715.775 2.082-2.659 3.587-6.201 2.782-9.606-.107-.425-.654-.684-1.004-.38-2.842 2.615-4.454 6.293-5.852 9.819-1.672 4.195-3.299 8.497-3.405 13.056 0 .472.972 1.004 1.079.396 1.307-6.749 2.934-13.452 5.001-20.003 1.672-5.289 3.937-10.381 4.044-16.005l-1.186-.182c-.091 6.095-1.976 11.172-5.275 16.248-.866 1.322-1.763 2.645-2.721 3.906-.426.563-4.195 5.487-4.682 2.615-.076-.411-.882-.988-1.155-.426-.365.319-.73.638-1.095.973.32.197.639.395.943.593.076-1.232.319-2.402.365-3.633.015-.486-.73-.775-1.08-.517-2.69 2.052-2.873 5.685-5.305 7.919.35.061.684.122 1.034.182-.836-1.459-1.216-2.979-1.14-4.575 0-.532-.821-1.048-1.232-.562-1.854 2.219-2.432 5.761-3.648 8.344-.669 1.414-3.101 5.183-2.265 1.156.334-1.627 1.368-3.253 2.128-4.712-.456-.167-.927-.335-1.383-.502-1.429 4.834-5.245 12.175-10.459 13.74-6.658 1.991-5.503-6.262-4.286-9.925a40.736 40.736 0 0 1 6.354-11.886c.532-.684 1.079-1.398 1.717-1.976 1.353-1.231 1.764-1.459 3.649-.456 1.976 1.064 1.976 1.688 1.459 3.709-.258 1.003-.714 2.006-1.246 2.873-1.141 1.885-2.767 3.404-4.47 4.772-.243.198.107.852.38.654h-.015Z"/></g><defs><clipPath id="a"><path fill="#fff" d="M0 0h670v665H0z"/></clipPath></defs></svg>